<svg width="130" height="22" viewBox="0 0 130 22" fill="none" xmlns="http://www.w3.org/2000/svg">
<g clip-path="url(#clip0_1_1273)">
<path d="M51.2314 0.2939H55.0956L46.5702 21.7061H42.6955L51.2314 0.2939Z" fill="#14142F"/>
<path d="M64.2187 21.763H60.344L54.0522 6.06765L55.9922 1.23723L64.2187 21.763Z" fill="#14142F"/>
<path d="M72.7546 21.763H68.8904L77.4158 0.350784H81.2905L72.7599 21.763H72.7546Z" fill="#14142F"/>
<path d="M59.7673 0.2939H63.642L69.9338 15.9892L67.9938 20.8196L59.7673 0.2939Z" fill="#14142F"/>
<path d="M16.8939 7.05839C16.6684 6.42318 16.3695 5.85434 15.9973 5.34712C15.625 4.83991 15.1793 4.40853 14.6603 4.04827C14.1412 3.688 13.554 3.4178 12.8986 3.22818C12.2379 3.03857 11.5144 2.94376 10.7279 2.94376C9.39612 2.94376 8.19019 3.25663 7.12059 3.87287C6.05098 4.48912 5.20158 5.39927 4.58289 6.59858C3.96419 7.79315 3.6496 9.25792 3.6496 10.9834C3.6496 12.7089 3.96419 14.1879 4.58813 15.3872C5.21207 16.5865 6.06671 17.4967 7.15729 18.1176C8.24262 18.7386 9.48001 19.0468 10.8695 19.0468C12.1593 19.0468 13.2813 18.8097 14.2408 18.3357C15.2003 17.8617 15.9448 17.1885 16.4744 16.3211C17.004 15.4536 17.2661 14.4296 17.2661 13.254L18.1889 13.4105H11.4095V10.7464H20.7214V13.1829C20.7214 14.9795 20.2967 16.5391 19.4525 17.8617C18.6084 19.1842 17.4444 20.2034 15.9606 20.9192C14.4768 21.635 12.778 21.9953 10.8642 21.9953C8.71975 21.9953 6.8427 21.5497 5.2278 20.6585C3.6129 19.7673 2.35454 18.5016 1.45271 16.8567C0.550888 15.2118 0.0999756 13.2683 0.0999756 11.0119C0.0999756 9.30532 0.362134 7.76945 0.886452 6.40896C1.41077 5.04848 2.15006 3.89183 3.09907 2.94376C4.05333 1.99095 5.17537 1.26568 6.46519 0.758457C7.75501 0.251239 9.17067 0 10.7017 0C11.981 0 13.1765 0.170653 14.2828 0.511959C15.3891 0.853264 16.3748 1.33678 17.2452 1.96725C18.1155 2.59772 18.8338 3.33721 19.4001 4.19996C19.9716 5.0627 20.3544 6.01551 20.5588 7.05839H16.8939V7.05839Z" fill="#14142F"/>
<path d="M23.7886 21.7061V0.2939H32.2301C34.0653 0.2939 35.591 0.578321 36.8022 1.1519C38.0186 1.72549 38.9257 2.51239 39.5286 3.52208C40.1316 4.52704 40.4305 5.69317 40.4305 7.01099C40.4305 8.32881 40.1264 9.47597 39.5234 10.4667C38.9204 11.4622 38.0081 12.2301 36.7917 12.7847C35.5753 13.3346 34.0548 13.6096 32.2197 13.6096H25.823V10.827H31.8946C33.0533 10.827 33.9918 10.6753 34.7206 10.3766C35.4495 10.078 35.9843 9.64188 36.3251 9.0683C36.6659 8.49472 36.8336 7.81211 36.8336 7.00625C36.8336 6.20039 36.6606 5.49881 36.3198 4.90627C35.9738 4.31372 35.439 3.85865 34.7102 3.54104C33.9814 3.22344 33.0271 3.06701 31.8474 3.06701H27.3592V21.7061H23.7834H23.7886ZM35.4809 12.0452L41.3323 21.7061H37.2636L31.5276 12.0452H35.4809Z" fill="#14142F"/>
<path d="M86.8588 0.2939V21.7061H83.2829V0.2939H86.8588Z" fill="#14142F"/>
<path d="M89.4646 3.07175V0.2939H107.795V3.07175H100.402V21.7061H96.8418V3.07175H89.4646V3.07175Z" fill="#14142F"/>
<path d="M109.153 0.2939H113.211L119.398 10.0306H119.655L125.842 0.2939H129.9L121.306 13.3014V21.7061H117.746V13.3014L109.153 0.2939Z" fill="#14142F"/>
</g>
<defs>
<clipPath id="clip0_1_1273">
<rect width="129.8" height="22" fill="white" transform="translate(0.0999756)"/>
</clipPath>
</defs>
</svg>
