<svg width="219" height="217" viewBox="0 0 219 217" fill="none" xmlns="http://www.w3.org/2000/svg">
<path d="M138.184 2.15294L126.823 51.9117C119.873 82.354 137.765 113.056 167.842 122.296L218.439 137.839L166.849 126.002C136.182 118.966 105.335 136.608 96.1334 166.447L81.0927 215.22L92.4536 165.461C99.4041 135.019 81.5112 104.317 51.4343 95.0771L0.838084 79.5336L52.4275 91.3706C83.0948 98.4071 113.941 80.7648 123.143 50.9258L138.184 2.15294Z" fill="#DDFF55"/>
<path d="M188.034 30.8078L153.129 68.1622C131.775 91.0155 131.851 126.433 153.306 149.357L189.396 187.92L150.578 152.067C127.503 130.753 91.85 130.677 68.8449 151.89L31.2424 186.565L66.1474 149.211C87.5021 126.357 87.4252 90.9396 65.9711 68.0158L29.8802 29.4526L68.6986 65.3062C91.7741 86.6194 127.427 86.6962 150.432 65.4824L188.034 30.8078Z" fill="#DDFF55"/>
<path d="M216.879 80.3303L167.782 95.2712C137.745 104.412 119.985 135.055 127.068 165.521L138.983 216.771L123.337 166.507C114.037 136.628 83.1311 118.853 52.4869 125.757L2.39808 137.043L51.4944 122.102C81.5314 112.961 99.2911 82.3176 92.2083 51.8523L80.2935 0.602489L95.9394 50.8657C105.24 80.7446 136.146 98.52 166.79 91.6157L216.879 80.3303Z" fill="#DDFF55"/>
</svg>
