<svg width="24" height="24" viewBox="0 0 24 24" fill="none" xmlns="http://www.w3.org/2000/svg">
<rect width="24" height="24" fill="white" fill-opacity="0.01"/>
<path fill-rule="evenodd" clip-rule="evenodd" d="M13.3098 5.34296L20.6688 18.513C20.7536 18.6651 20.7972 18.8369 20.7953 19.0111C20.7934 19.1853 20.7459 19.356 20.6577 19.5062C20.5695 19.6565 20.4436 19.7811 20.2924 19.8677C20.1412 19.9543 19.97 19.9999 19.7958 20H4.20377C4.02939 20 3.85803 19.9544 3.70671 19.8678C3.55538 19.7811 3.42934 19.6564 3.3411 19.506C3.25286 19.3556 3.20548 19.1847 3.20367 19.0104C3.20186 18.836 3.24567 18.6642 3.33077 18.512L10.6908 5.34296C10.821 5.1102 11.011 4.91638 11.2411 4.78147C11.4711 4.64656 11.733 4.57544 11.9998 4.57544C12.2665 4.57544 12.5284 4.64656 12.7585 4.78147C12.9886 4.91638 13.1785 5.1102 13.3088 5.34296H13.3098ZM11.9998 8.49996C11.844 8.49995 11.69 8.5333 11.5482 8.59777C11.4064 8.66224 11.28 8.75633 11.1776 8.87371C11.0752 8.9911 10.9991 9.12905 10.9544 9.2783C10.9098 9.42755 10.8976 9.58462 10.9188 9.73897L11.4318 13.505C11.4501 13.6426 11.5178 13.769 11.6222 13.8605C11.7267 13.952 11.8609 14.0024 11.9998 14.0024C12.1387 14.0024 12.2728 13.952 12.3773 13.8605C12.4818 13.769 12.5495 13.6426 12.5678 13.505L13.0808 9.73897C13.1019 9.58462 13.0897 9.42755 13.0451 9.2783C13.0004 9.12905 12.9244 8.9911 12.8219 8.87371C12.7195 8.75633 12.5932 8.66224 12.4513 8.59777C12.3095 8.5333 12.1556 8.49995 11.9998 8.49996ZM11.9998 17.13C12.2981 17.13 12.5843 17.0114 12.7953 16.8005C13.0062 16.5895 13.1248 16.3033 13.1248 16.005C13.1248 15.7066 13.0062 15.4204 12.7953 15.2095C12.5843 14.9985 12.2981 14.88 11.9998 14.88C11.7014 14.88 11.4153 14.9985 11.2043 15.2095C10.9933 15.4204 10.8748 15.7066 10.8748 16.005C10.8748 16.3033 10.9933 16.5895 11.2043 16.8005C11.4153 17.0114 11.7014 17.13 11.9998 17.13Z" fill="#FFAB00"/>
</svg>
