<svg width="16" height="16" viewBox="0 0 16 16" fill="none" xmlns="http://www.w3.org/2000/svg">
<path fill-rule="evenodd" clip-rule="evenodd" d="M11.7333 3.2V1.6C11.7333 0.716344 11.017 0 10.1333 0H5.86667C4.98301 0 4.26667 0.716344 4.26667 1.6V3.2H0V4.26667H1.06667V14.4C1.06667 15.2837 1.78301 16 2.66667 16H13.3333C14.217 16 14.9333 15.2837 14.9333 14.4V4.26667H16V3.2H11.7333ZM5.33333 1.6C5.33333 1.30545 5.57212 1.06667 5.86667 1.06667H10.1333C10.4279 1.06667 10.6667 1.30545 10.6667 1.6V3.2H5.33333V1.6ZM7.46667 7.46667V12.8H8.53333V7.46667H7.46667ZM4.26667 12.8V9.6H5.33333V12.8H4.26667ZM10.6667 9.6V12.8H11.7333V9.6H10.6667Z" fill="#FF5F68"/>
</svg>
