<svg width="16" height="16" viewBox="0 0 16 16" fill="none" xmlns="http://www.w3.org/2000/svg">
  <path
    d="M6.40824 7.99997C6.40824 7.11631 7.12092 6.39997 8.00006 6.39997C8.8792 6.39997 9.59189 7.11631 9.59189 7.99997C9.59189 8.88362 8.8792 9.59997 8.00006 9.59997C7.12092 9.59997 6.40824 8.88362 6.40824 7.99997Z"
    fill="currentColor" />
  <path fill-rule="evenodd" clip-rule="evenodd"
    d="M15.4286 7.99995C15.9212 7.80189 15.9211 7.80166 15.921 7.80141L15.9201 7.79924L15.9183 7.79465L15.9122 7.77976C15.907 7.76734 15.8997 7.74999 15.8902 7.72801C15.8713 7.68408 15.8436 7.62165 15.8069 7.54338C15.7335 7.38691 15.6238 7.1666 15.4756 6.90369C15.1798 6.37895 14.7271 5.67864 14.0984 4.97652C12.8403 3.57146 10.8504 2.1333 7.99998 2.1333C5.14957 2.1333 3.15965 3.57146 1.90155 4.97652C1.27288 5.67864 0.820211 6.37895 0.524376 6.9037C0.376159 7.1666 0.26648 7.38691 0.193094 7.54338C0.156381 7.62165 0.128691 7.68408 0.10975 7.72802C0.100278 7.74999 0.0929878 7.76735 0.0878462 7.77977L0.0817387 7.79465L0.079884 7.79925L0.0792549 7.80081C0.0791555 7.80106 0.0788241 7.80189 0.571482 7.99997L0.0788241 7.80189L0 7.99997L0.0788241 8.19804L0.571482 7.99997C0.0788241 8.19804 0.0787247 8.19779 0.0788241 8.19804L0.0792549 8.19912L0.079884 8.20069L0.0817387 8.20528L0.0878462 8.22017C0.0929878 8.23259 0.100278 8.24995 0.10975 8.27192C0.128691 8.31585 0.156381 8.37828 0.193094 8.45656C0.26648 8.61302 0.376159 8.83334 0.524376 9.09624C0.820211 9.62099 1.27288 10.3213 1.90155 11.0234C3.15965 12.4285 5.14957 13.8666 7.99998 13.8666C10.8504 13.8666 12.8403 12.4285 14.0984 11.0234C14.7271 10.3213 15.1798 9.62099 15.4756 9.09624C15.6238 8.83334 15.7335 8.61303 15.8069 8.45656C15.8436 8.37828 15.8713 8.31586 15.8902 8.27192C15.8997 8.24995 15.907 8.23259 15.9122 8.22017L15.9183 8.20528L15.9201 8.20069L15.9207 8.19912C15.9208 8.19887 15.9212 8.198 15.4286 7.99995L15.9212 8.19804L16 7.99997L15.921 7.80141L15.4286 7.99995ZM8.00006 5.3333C6.53483 5.3333 5.34702 6.52721 5.34702 7.99997C5.34702 9.47273 6.53483 10.6666 8.00006 10.6666C9.46529 10.6666 10.6531 9.47273 10.6531 7.99997C10.6531 6.52721 9.46529 5.3333 8.00006 5.3333Z"
    fill="currentColor" />
</svg>