<svg width="108" height="108" viewBox="0 0 108 108" fill="none" xmlns="http://www.w3.org/2000/svg">
<path fill-rule="evenodd" clip-rule="evenodd" d="M36.634 0C27.0315 0 18.2473 1.1091 11.7861 2.95426C8.57218 3.87209 5.79383 5.01075 3.76287 6.38161C1.81775 7.69452 0 9.61695 0 12.2048V61.0185C0 63.6064 1.81775 65.5288 3.76287 66.8417C5.79383 68.2126 8.57218 69.3512 11.7861 70.2691C18.2473 72.1142 27.0315 73.2233 36.634 73.2233C46.2365 73.2233 55.0207 72.1142 61.4819 70.2691C64.6959 69.3512 67.4742 68.2126 69.5052 66.8417C71.4503 65.5288 73.268 63.6064 73.268 61.0185V12.2048C73.268 9.61695 71.4503 7.69452 69.5052 6.38161C67.4742 5.01075 64.6959 3.87209 61.4819 2.95426C55.0207 1.1091 46.2365 0 36.634 0ZM6.16536 13.9885L8.37235 15.0343C13.8767 17.6428 24.3403 19.5319 36.6337 19.5319C48.9271 19.5319 59.3907 17.6428 64.8951 15.0343L67.1021 13.9885L69.1938 18.4025L66.9868 19.4483C60.525 22.5105 49.2156 24.4164 36.6337 24.4164C24.0518 24.4164 12.7424 22.5105 6.28063 19.4483L4.07363 18.4025L6.16536 13.9885ZM8.37235 39.3115L6.16536 38.2657L4.07363 42.6797L6.28063 43.7255C12.7424 46.7877 24.0518 48.6936 36.6337 48.6936C49.2156 48.6936 60.525 46.7877 66.9868 43.7255L69.1938 42.6797L67.1021 38.2657L64.8951 39.3115C59.3907 41.92 48.9271 43.8091 36.6337 43.8091C24.3403 43.8091 13.8767 41.92 8.37235 39.3115Z" fill="url(#paint0_linear_8461_18622)"/>
<path d="M86.2228 87.9108H87.9728V86.1608V81.701V79.951H86.2228H81.763H80.013V81.701V86.1608V87.9108H81.763H86.2228ZM71.0934 86.1608V86.8574C70.4901 86.0383 70.1336 85.0262 70.1336 83.9309C70.1336 82.8356 70.4901 81.8235 71.0934 81.0045V81.701V86.1608ZM75.0733 88.8706C73.978 88.8706 72.9659 88.5141 72.1468 87.9108H72.8434H77.3032H79.0532V86.1608V81.701V79.951H77.3032H72.8434H72.1468C72.9659 79.3477 73.978 78.9912 75.0733 78.9912H92.9125C94.0078 78.9912 95.0198 79.3477 95.8389 79.951H95.1424H90.6826H88.9326V81.701V86.1608V87.9108H90.6826H95.1424H95.8389C95.0198 88.5141 94.0078 88.8706 92.9125 88.8706H75.0733ZM96.8924 81.701V81.0045C97.4957 81.8235 97.8521 82.8356 97.8521 83.9309C97.8521 85.0262 97.4957 86.0383 96.8924 86.8574V86.1608V81.701ZM48.7944 52.7124V62.1119H43.8547C39.1936 62.1119 35.415 65.8904 35.415 70.5515V97.3103C35.415 101.971 39.1936 105.75 43.8547 105.75H88.4527C93.1138 105.75 96.8924 101.971 96.8924 97.3103V96.2042C102.069 94.5266 105.812 89.6675 105.812 83.9309C105.812 78.1943 102.069 73.3353 96.8924 71.6576V70.5515C96.8924 65.8904 93.1138 62.1119 88.4527 62.1119H83.513V52.7124C83.513 43.1251 75.741 35.3531 66.1537 35.3531C56.5664 35.3531 48.7944 43.1251 48.7944 52.7124ZM56.7542 52.7124C56.7542 47.5212 60.9625 43.3129 66.1537 43.3129C71.3449 43.3129 75.5532 47.5212 75.5532 52.7124V62.1119H56.7542V52.7124Z" fill="url(#paint1_linear_8461_18622)" stroke="white" stroke-width="3.5"/>
<defs>
<linearGradient id="paint0_linear_8461_18622" x1="-6" y1="28" x2="78.2011" y2="92.4254" gradientUnits="userSpaceOnUse">
<stop stop-color="#CA77B3"/>
<stop offset="0.79986" stop-color="#514EE7"/>
</linearGradient>
<linearGradient id="paint1_linear_8461_18622" x1="29.5" y1="62.5" x2="87.0549" y2="108.702" gradientUnits="userSpaceOnUse">
<stop stop-color="#CA77B3"/>
<stop offset="0.761634" stop-color="#514EE7"/>
</linearGradient>
</defs>
</svg>
