<svg width="16" height="16" viewBox="0 0 16 16" fill="none" xmlns="http://www.w3.org/2000/svg">
<path fill-rule="evenodd" clip-rule="evenodd" d="M0.5 8C0.5 3.85786 3.85786 0.5 8 0.5C12.1421 0.5 15.5 3.85786 15.5 8C15.5 12.1421 12.1421 15.5 8 15.5C3.85786 15.5 0.5 12.1421 0.5 8ZM6 6.5C6 5.39543 6.89543 4.5 8 4.5H8.6C9.64934 4.5 10.5 5.35066 10.5 6.4V6.5C10.5 7.60457 9.60457 8.5 8.5 8.5V9.5H7.5V7.5H8.5C9.05228 7.5 9.5 7.05228 9.5 6.5V6.4C9.5 5.90294 9.09706 5.5 8.6 5.5H8C7.44772 5.5 7 5.94772 7 6.5H6ZM7.5 11.5V10.5H8.5V11.5H7.5Z" fill="#7D8490"/>
</svg>
