<svg width="10" height="8" viewBox="0 0 10 8" fill="none" xmlns="http://www.w3.org/2000/svg">
<path d="M3.24998 0C2.92781 0 2.66665 0.255837 2.66665 0.571429C2.66665 0.88702 2.92781 1.14286 3.24998 1.14286H6.74998C7.07215 1.14286 7.33331 0.88702 7.33331 0.571429C7.33331 0.255837 7.07215 0 6.74998 0H3.24998Z" fill="#6565FB"/>
<path d="M1.49998 2.28571C1.49998 1.97012 1.76115 1.71429 2.08331 1.71429H7.91665C8.23881 1.71429 8.49998 1.97012 8.49998 2.28571C8.49998 2.60131 8.23881 2.85714 7.91665 2.85714H2.08331C1.76115 2.85714 1.49998 2.60131 1.49998 2.28571Z" fill="#6565FB"/>
<path d="M0.333313 4.57143C0.333313 3.94025 0.855648 3.42857 1.49998 3.42857H8.49998C9.14431 3.42857 9.66665 3.94025 9.66665 4.57143V6.85714C9.66665 7.48833 9.14431 8 8.49998 8H1.49998C0.855648 8 0.333313 7.48833 0.333313 6.85714V4.57143Z" fill="#6565FB"/>
</svg>
