<svg width="28" height="28" viewBox="0 0 28 28" fill="none" xmlns="http://www.w3.org/2000/svg">
<path d="M20.0298 3.66287C20.0301 3.49225 19.9797 3.32539 19.8851 3.18343C19.7904 3.04147 19.6558 2.9308 19.4982 2.86547C19.3405 2.80014 19.1671 2.78307 18.9998 2.81644C18.8324 2.84981 18.6788 2.93211 18.5583 3.05291L15.1122 6.499C15.0323 6.57915 14.9689 6.67428 14.9257 6.77894C14.8826 6.8836 14.8604 6.99574 14.8606 7.10895V11.9214L13.5839 13.1965C13.3285 13.1287 13.0609 13.1204 12.8018 13.1724C12.5427 13.2243 12.299 13.335 12.0894 13.496C11.8798 13.6569 11.71 13.8639 11.593 14.1008C11.476 14.3378 11.415 14.5984 11.4146 14.8626C11.4147 15.1079 11.4671 15.3502 11.5684 15.5735C11.6697 15.7969 11.8175 15.996 12.0019 16.1576C12.1863 16.3193 12.4031 16.4397 12.6377 16.5108C12.8724 16.5819 13.1195 16.6022 13.3627 16.5701C13.6058 16.5381 13.8392 16.4546 14.0475 16.3251C14.2557 16.1956 14.4339 16.0231 14.5702 15.8193C14.7064 15.6154 14.7976 15.3848 14.8376 15.1429C14.8776 14.9009 14.8655 14.6533 14.8021 14.4164L16.0788 13.1396H20.8913C21.0045 13.1398 21.1166 13.1177 21.2213 13.0745C21.326 13.0314 21.4211 12.968 21.5013 12.888L24.9473 9.44196C25.0681 9.32146 25.1504 9.16782 25.1838 9.0005C25.2172 8.83317 25.2001 8.65971 25.1348 8.5021C25.0694 8.34449 24.9588 8.20982 24.8168 8.11518C24.6749 8.02053 24.508 7.97017 24.3374 7.97048H20.0298V3.66287ZM23.3794 13.4463C23.6759 15.5918 23.291 17.7762 22.2792 19.6912C21.2674 21.6062 19.6797 23.1551 17.7402 24.1191C15.8008 25.0832 13.6075 25.4138 11.47 25.0643C9.33254 24.7147 7.35882 23.7027 5.82747 22.1711C4.29612 20.6394 3.28449 18.6655 2.93537 16.528C2.58625 14.3904 2.91729 12.1972 3.88175 10.2579C4.8462 8.31865 6.39537 6.73125 8.31056 5.71981C10.2258 4.70837 12.4102 4.32397 14.5557 4.62088L13.8957 5.28081C13.6555 5.52078 13.4648 5.80575 13.3348 6.11944C13.2047 6.43312 13.1377 6.76937 13.1376 7.10895C11.6041 7.10895 10.105 7.5637 8.82988 8.41569C7.55479 9.26767 6.56098 10.4786 5.97413 11.8954C5.38727 13.3122 5.23372 14.8713 5.5329 16.3753C5.83207 17.8794 6.57054 19.261 7.65491 20.3453C8.73929 21.4297 10.1209 22.1682 11.6249 22.4674C13.129 22.7665 14.688 22.613 16.1048 22.0261C17.5216 21.4393 18.7326 20.4455 19.5846 19.1704C20.4365 17.8953 20.8913 16.3962 20.8913 14.8626C21.5765 14.862 22.2335 14.5893 22.7177 14.1045L23.3794 13.4463ZM13.1376 8.832C11.9449 8.832 10.7789 9.18569 9.78715 9.84834C8.79542 10.511 8.02245 11.4529 7.56601 12.5548C7.10956 13.6568 6.99014 14.8693 7.22283 16.0392C7.45552 17.209 8.02989 18.2836 8.87329 19.127C9.71669 19.9704 10.7912 20.5447 11.9611 20.7774C13.1309 21.0101 14.3435 20.8907 15.4454 20.4342C16.5474 19.9778 17.4892 19.2048 18.1519 18.2131C18.8146 17.2214 19.1683 16.0554 19.1683 14.8626H16.7922L16.5768 15.078C16.5354 15.74 16.3038 16.3759 15.9099 16.9095C15.516 17.4431 14.9765 17.8517 14.3561 18.0862C13.7357 18.3208 13.0608 18.3713 12.4124 18.2318C11.764 18.0922 11.1697 17.7685 10.7007 17.2996C10.2317 16.8306 9.90802 16.2362 9.76848 15.5878C9.62894 14.9394 9.67948 14.2645 9.91402 13.6442C10.1486 13.0238 10.5572 12.4843 11.0908 12.0903C11.6243 11.6964 12.2603 11.4649 12.9222 11.4235L13.1376 11.2081V8.832Z" fill="#374151"/>
</svg>
