<svg width="29" height="28" viewBox="0 0 29 28" fill="none" xmlns="http://www.w3.org/2000/svg">
<path d="M13.0105 3.24554C13.5911 2.92409 14.2718 2.83444 14.9157 2.99462C15.5597 3.1548 16.1191 3.55291 16.4814 4.10887L16.5782 4.26987L25.6304 20.6137C25.8441 20.9999 25.9569 21.4338 25.9585 21.8753C25.9601 22.3167 25.8503 22.7514 25.6393 23.1391C25.4283 23.5269 25.123 23.8552 24.7515 24.0936C24.38 24.3321 23.9544 24.473 23.514 24.5034L23.3344 24.5104H5.23237C4.79131 24.5106 4.35732 24.3996 3.97047 24.1878C3.58362 23.976 3.25637 23.6701 3.01896 23.2984C2.78154 22.9267 2.64161 22.5012 2.61209 22.0611C2.58257 21.621 2.6644 21.1806 2.85003 20.7805L2.93403 20.6137L11.985 4.26987C12.224 3.83895 12.5793 3.48397 13.0105 3.24554ZM14.2834 18.6689C14.1273 18.6639 13.9718 18.6904 13.8262 18.7467C13.6805 18.803 13.5477 18.8881 13.4355 18.9967C13.3233 19.1054 13.2342 19.2355 13.1733 19.3793C13.1124 19.5231 13.081 19.6776 13.081 19.8338C13.081 19.9899 13.1124 20.1445 13.1733 20.2883C13.2342 20.4321 13.3233 20.5622 13.4355 20.6709C13.5477 20.7795 13.6805 20.8645 13.8262 20.9208C13.9718 20.9772 14.1273 21.0036 14.2834 20.9987C14.5859 20.9891 14.8729 20.8622 15.0836 20.6448C15.2942 20.4274 15.412 20.1365 15.412 19.8338C15.412 19.5311 15.2942 19.2402 15.0836 19.0228C14.8729 18.8054 14.5859 18.6784 14.2834 18.6689ZM14.281 9.33087C13.9951 9.33094 13.7191 9.43601 13.5056 9.62614C13.292 9.81626 13.1557 10.0782 13.1225 10.3622L13.1167 10.4975V16.3332L13.1249 16.4697C13.1575 16.7543 13.2936 17.0169 13.5074 17.2075C13.7211 17.3982 13.9975 17.5036 14.2839 17.5036C14.5704 17.5036 14.8468 17.3982 15.0605 17.2075C15.2743 17.0169 15.4104 16.7543 15.443 16.4697L15.45 16.3332V10.4975L15.4419 10.361C15.4084 10.077 15.2718 9.81523 15.058 9.62531C14.8442 9.4354 14.5682 9.33062 14.2822 9.33087H14.281Z" fill="#374151"/>
</svg>
