<svg width="23" height="24" viewBox="0 0 23 24" fill="none" xmlns="http://www.w3.org/2000/svg">
<path fill-rule="evenodd" clip-rule="evenodd" d="M22.54 12.1565C22.54 11.341 22.4668 10.5569 22.3309 9.8042H11.5V14.2526H17.6891C17.4225 15.6901 16.6123 16.9081 15.3943 17.7235V20.609H19.1109C21.2855 18.6069 22.54 15.6587 22.54 12.1565Z" fill="#4285F4"/>
<path fill-rule="evenodd" clip-rule="evenodd" d="M11.4999 23.3948C14.6049 23.3948 17.2081 22.3651 19.1108 20.6087L15.3942 17.7232C14.3644 18.4132 13.0472 18.821 11.4999 18.821C8.50467 18.821 5.96945 16.798 5.06513 14.0798H1.22308V17.0594C3.11536 20.8178 7.00445 23.3948 11.4999 23.3948Z" fill="#34A853"/>
<path fill-rule="evenodd" clip-rule="evenodd" d="M5.06523 14.08C4.83523 13.39 4.70455 12.653 4.70455 11.895C4.70455 11.1371 4.83523 10.4 5.06523 9.71001V6.73047H1.22318C0.444318 8.28297 0 10.0393 0 11.895C0 13.7507 0.444318 15.5071 1.22318 17.0596L5.06523 14.08Z" fill="#FBBC05"/>
<path fill-rule="evenodd" clip-rule="evenodd" d="M11.4999 4.96888C13.1883 4.96888 14.7042 5.54911 15.896 6.68866L19.1944 3.39025C17.2029 1.53456 14.5997 0.39502 11.4999 0.39502C7.00445 0.39502 3.11536 2.97206 1.22308 6.73047L5.06513 9.71002C5.96945 6.99184 8.50468 4.96888 11.4999 4.96888Z" fill="#EA4335"/>
</svg>
