<svg width="17" height="16" viewBox="0 0 17 16" fill="none" xmlns="http://www.w3.org/2000/svg">
<path fill-rule="evenodd" clip-rule="evenodd" d="M0.656738 7.975C0.656738 12.3795 4.22727 15.95 8.63174 15.95C13.0362 15.95 16.6067 12.3795 16.6067 7.975C16.6067 3.57053 13.0362 0 8.63174 0C4.22727 0 0.656738 3.57053 0.656738 7.975ZM16.1742 8.38027L15.7474 8.47874C15.7371 8.62043 15.7225 8.7619 15.7037 8.90295L15.5064 8.53435L14.1667 8.84343L14.1774 8.86045L12.5265 11.3381L12.5242 13.3281L13.1603 13.4894C12.9564 13.6572 12.7438 13.8131 12.5235 13.9567L12.5233 14.1241L12.3408 14.0718C12.2698 14.1151 12.1981 14.157 12.1257 14.1978L11.837 14.4302L11.8388 14.3505C11.4872 14.5276 11.1207 14.6755 10.7431 14.7924L11.2644 14.9824L10.7231 15.1107C10.4894 15.1661 10.2531 15.2096 10.0149 15.2408L9.97339 15.2463L7.36334 14.2581H5.8033L5.78342 14.9336L5.5511 14.8707L5.16089 15.0606L5.19078 13.8548L3.66204 12.1076L2.57174 12.2828L2.02573 11.7477L3.18518 11.5626L3.13605 11.5064L4.22117 10.4213L4.20877 7.55898L3.10031 6.00723L1.2529 6.83135L1.30448 6.52483C1.33017 6.37215 1.35723 6.23418 1.38787 6.10288L1.40668 6.02232L3.00456 5.30858L4.28412 3.26145L3.93567 2.20643L3.99299 2.13568C4.04853 2.06713 4.09567 2.01284 4.19403 1.90231L4.20548 1.88943L4.24342 1.84673L4.44113 1.6235L4.868 3.03038H6.93253L9.6062 1.63903V0.638077C11.3497 0.878012 12.9602 1.70237 14.1744 2.97637L12.5306 3.75797L12.5274 6.2458L13.8092 8.27693L15.4338 7.84453L15.622 6.86819H15.6806C15.7268 7.16278 15.7543 7.45961 15.763 7.7569L16.0023 7.69322L15.9508 7.96037L16.1742 8.38027ZM10.5173 14.7102L10.509 14.6348L11.8541 13.6785L11.8999 11.6653L9.95837 10.9376L7.60727 12.2034V13.6498L10.5173 14.7102ZM15.7037 8.90295L15.704 8.90345H15.7036L15.7037 8.90295ZM9.6232 7.87322V10.4124L7.28591 11.6719L4.84335 10.3148L4.83065 7.60589L6.83266 6.30759L9.6232 7.87322ZM11.9061 6.38916L9.99715 7.36789L7.21781 5.8069L7.05702 3.68045L9.85564 2.22409L11.9094 3.5181L11.9061 6.38916Z" fill="#9EA0AA"/>
</svg>
