<svg width="16" height="16" viewBox="0 0 16 16" fill="none" xmlns="http://www.w3.org/2000/svg">
<path d="M7.99994 4.76666V12.2333M4.2666 8.5H11.7333" stroke-width="1" />
<path stroke-width="1" d="M2 1.5H14V-0.5H2V1.5ZM15 2.5V14.5H17V2.5H15ZM14 15.5H2V17.5H14V15.5ZM1 14.5V2.5H-1V14.5H1ZM2 15.5C1.44772 15.5 1 15.0523 1 14.5H-1C-1 16.1569 0.343146 17.5 2 17.5V15.5ZM15 14.5C15 15.0523 14.5523 15.5 14 15.5V17.5C15.6569 17.5 17 16.1569 17 14.5H15ZM14 1.5C14.5523 1.5 15 1.94772 15 2.5H17C17 0.843146 15.6569 -0.5 14 -0.5V1.5ZM2 -0.5C0.343146 -0.5 -1 0.843146 -1 2.5H1C1 1.94772 1.44772 1.5 2 1.5V-0.5Z" />
</svg>
