<svg width="17" height="16" viewBox="0 0 17 16" fill="none" xmlns="http://www.w3.org/2000/svg">
<path fill-rule="evenodd" clip-rule="evenodd" d="M15.429 1.02199C17.1997 2.88841 15.9181 5.39064 14.9632 6.49455C15.624 7.11569 17.1594 8.84275 16.5442 11.0236C15.6427 14.2196 12.8234 14.3276 12.6247 14.331H12.1163C11.1897 15.5376 9.69505 15.9687 8.68749 15.9687C7.59024 15.9687 6.10558 15.4606 5.23671 14.331H4.72893C4.54023 14.3276 1.72093 14.2196 0.819391 11.0236C0.202586 8.83841 1.74593 7.10803 2.40708 6.48722C1.4532 5.3793 0.180581 2.88441 1.94731 1.02233C2.56845 0.367515 3.33962 0.0144357 4.17748 0.000432534C5.82885 -0.0269069 7.17215 1.25038 7.31985 1.39641L7.32252 1.39841L7.39987 1.4691C7.85764 1.3524 8.35308 1.28405 8.89187 1.28405C9.30796 1.28405 9.69505 1.32473 10.0565 1.39641L10.0568 1.39608C10.2045 1.25038 11.5478 -0.0269069 13.1992 0.000765942C14.0374 0.0147691 14.8082 0.367848 15.429 1.02199ZM9.11675 13.1661C9.16442 13.2154 9.23844 13.2524 9.35047 13.2524C9.69088 13.2524 9.70521 12.9237 9.70521 12.92L10.3717 12.95V12.953C10.3507 13.4218 9.98561 13.9192 9.35047 13.9192C9.09341 13.9192 8.86069 13.8289 8.68365 13.6682C8.50628 13.8289 8.27356 13.9192 8.01683 13.9192C7.38169 13.9192 7.01694 13.4218 6.99561 12.953V12.95L7.66209 12.92C7.66209 12.9237 7.67676 13.2524 8.01683 13.2524C8.12886 13.2524 8.20254 13.2154 8.25055 13.1661C8.34591 13.0684 8.34224 12.9237 8.34224 12.9237V12.1945C7.81946 11.9561 7.21199 11.273 7.21199 10.8305C7.21199 10.2867 7.76178 10.2867 7.76178 10.2867H8.67832H9.59552C9.59552 10.2867 10.1456 10.2867 10.1456 10.8305C10.1456 11.2706 9.54551 11.9471 9.02473 12.1895V12.9237C9.02473 12.9237 9.02139 13.0684 9.11675 13.1661ZM11.674 7.28557C11.3059 7.28557 11.0071 7.73367 11.0071 8.28613C11.0071 8.83792 11.3059 9.28602 11.674 9.28602C12.0424 9.28602 12.3408 8.83792 12.3408 8.28613C12.3408 7.73367 12.0424 7.28557 11.674 7.28557ZM5.00562 8.28613C5.00562 7.73367 5.30435 7.28557 5.67243 7.28557C6.04085 7.28557 6.33925 7.73367 6.33925 8.28613C6.33925 8.83792 6.04085 9.28602 5.67243 9.28602C5.30435 9.28602 5.00562 8.83792 5.00562 8.28613Z" fill="#9EA0AA"/>
</svg>
