<svg width="15" height="16" viewBox="0 0 15 16" fill="none" xmlns="http://www.w3.org/2000/svg">
<path d="M6.5 2.9987L5.96971 2.46833L5.43926 2.9987L5.96971 3.52907L6.5 2.9987ZM7.5 2.24878H6.75V3.74878H7.5V2.24878ZM2.25 8.99487V8.24487H0.75V8.99487H2.25ZM7.96871 0.46963L5.96971 2.46833L7.03029 3.52907L9.02929 1.53037L7.96871 0.46963ZM5.96971 3.52907L7.96871 5.52776L9.02929 4.46702L7.03029 2.46833L5.96971 3.52907ZM7.5 3.74878C10.3992 3.74878 12.75 6.0987 12.75 8.99487H14.25C14.25 5.26935 11.2268 2.24878 7.5 2.24878V3.74878ZM12.75 8.99487C12.75 11.891 10.3992 14.241 7.5 14.241V15.741C11.2268 15.741 14.25 12.7204 14.25 8.99487H12.75ZM7.5 14.241C4.60075 14.241 2.25 11.891 2.25 8.99487H0.75C0.75 12.7204 3.77325 15.741 7.5 15.741V14.241Z" fill="currentColor"/>
</svg>
