<svg width="16" height="17" viewBox="0 0 16 17" fill="none" xmlns="http://www.w3.org/2000/svg">
<path d="M14.5 8.5L8.74264 14.2574C7.94699 15.053 6.86786 15.5 5.74264 15.5C3.3995 15.5 1.5 13.6005 1.5 11.2574C1.5 10.1321 1.94699 9.05301 2.74264 8.25736L8.67157 2.32843C9.20201 1.79799 9.92143 1.5 10.6716 1.5C12.2337 1.5 13.5 2.76633 13.5 4.32843C13.5 5.07857 13.202 5.79799 12.6716 6.32843L6.91421 12.0858C6.649 12.351 6.28929 12.5 5.91421 12.5C5.13316 12.5 4.5 11.8668 4.5 11.0858C4.5 10.7107 4.649 10.351 4.91421 10.0858L10.5 4.5" stroke="#273240" stroke-width="1.5"/>
</svg>
