<svg width="20" height="20" viewBox="0 0 20 20" fill="none" xmlns="http://www.w3.org/2000/svg">
<path d="M7 8.5C7 7.11929 8.11929 6 9.5 6C10.8807 6 12 7.11929 12 8.5C12 9.88071 10.8807 11 9.5 11C8.11929 11 7 9.88071 7 8.5Z" fill="#9EA0AA"/>
<path fill-rule="evenodd" clip-rule="evenodd" d="M9.5 3C5.35786 3 2 6.35786 2 10.5C2 14.6421 5.35786 18 9.5 18C13.6421 18 17 14.6421 17 10.5C17 6.35786 13.6421 3 9.5 3ZM3 10.5C3 6.91015 5.91015 4 9.5 4C13.0899 4 16 6.91015 16 10.5C16 12.3496 15.2275 14.0187 13.9875 15.2024C13.8365 13.4086 12.3328 12 10.5 12H8.5C6.66724 12 5.16345 13.4086 5.01247 15.2024C3.77251 14.0187 3 12.3496 3 10.5Z" fill="#9EA0AA"/>
</svg>
