<svg width="16" height="16" viewBox="0 0 16 16" fill="none" xmlns="http://www.w3.org/2000/svg">
<path d="M5.375 2C4.89175 2 4.5 2.38376 4.5 2.85714C4.5 3.33053 4.89175 3.71429 5.375 3.71429H10.625C11.1082 3.71429 11.5 3.33053 11.5 2.85714C11.5 2.38376 11.1082 2 10.625 2H5.375Z" fill="#374151"/>
<path d="M2.75 5.42857C2.75 4.95518 3.14175 4.57143 3.625 4.57143H12.375C12.8582 4.57143 13.25 4.95518 13.25 5.42857C13.25 5.90196 12.8582 6.28571 12.375 6.28571H3.625C3.14175 6.28571 2.75 5.90196 2.75 5.42857Z" fill="#374151"/>
<path d="M1 8.85714C1 7.91037 1.7835 7.14286 2.75 7.14286H13.25C14.2165 7.14286 15 7.91037 15 8.85714V12.2857C15 13.2325 14.2165 14 13.25 14H2.75C1.7835 14 1 13.2325 1 12.2857V8.85714Z" fill="#374151"/>
</svg>
