<svg width="14" height="14" viewBox="0 0 14 14" fill="none" xmlns="http://www.w3.org/2000/svg">
<path fill-rule="evenodd" clip-rule="evenodd" d="M8.69682 0.909881C9.27941 0.327294 10.0696 0 10.8935 0C12.6092 0 14 1.39084 14 3.10653C14 3.93044 13.6727 4.72059 13.0901 5.30318L10.13 8.26332L9.47002 7.60335L12.4302 4.64322C12.8377 4.23566 13.0667 3.6829 13.0667 3.10653C13.0667 1.90631 12.0937 0.933333 10.8935 0.933333C10.3171 0.933333 9.76434 1.16229 9.35679 1.56985L6.39665 4.52998L5.73668 3.87002L8.69682 0.909881ZM10.13 4.52998L4.52998 10.13L3.87002 9.47002L9.47002 3.87002L10.13 4.52998ZM4.52998 6.39665L1.56985 9.35678C1.16229 9.76434 0.933333 10.3171 0.933333 10.8935C0.933333 12.0937 1.90631 13.0667 3.10653 13.0667C3.6829 13.0667 4.23566 12.8377 4.64321 12.4302L7.60335 9.47002L8.26332 10.13L5.30318 13.0901C4.72059 13.6727 3.93044 14 3.10653 14C1.39084 14 0 12.6092 0 10.8935C0 10.0696 0.327294 9.27941 0.909882 8.69682L3.87002 5.73668L4.52998 6.39665Z" fill="#7D8490"/>
</svg>
