<svg width="20" height="17" viewBox="0 0 20 17" fill="none" xmlns="http://www.w3.org/2000/svg">
<path d="M16 4.5H16.75V4.18934L16.5303 3.96967L16 4.5ZM13 1.5L13.5303 0.96967L13.3107 0.75H13V1.5ZM9 7.5V6.75H8.25V7.5H9ZM9 9.5H8.25V10.25H9V9.5ZM11 9.5H11.75V8.75H11V9.5ZM11 11.5V12.25H11.75V11.5H11ZM13 10.5H12.25V10.8107L12.4697 11.0303L13 10.5ZM14 11.5L13.4697 12.0303L14 12.5607L14.5303 12.0303L14 11.5ZM15 10.5L15.5303 11.0303L15.75 10.8107V10.5H15ZM5 7.5V6.75H4.25V7.5H5ZM5 11.5H4.25V12.25H5V11.5ZM4.75 6V2.5H3.25V6H4.75ZM15.25 4.5V6H16.75V4.5H15.25ZM5 2.25H13V0.75H5V2.25ZM12.4697 2.03033L15.4697 5.03033L16.5303 3.96967L13.5303 0.96967L12.4697 2.03033ZM4.75 2.5C4.75 2.36193 4.86193 2.25 5 2.25V0.75C4.0335 0.75 3.25 1.5335 3.25 2.5H4.75ZM3.25 13V14.5H4.75V13H3.25ZM5 16.25H15V14.75H5V16.25ZM16.75 14.5V13H15.25V14.5H16.75ZM15 16.25C15.9665 16.25 16.75 15.4665 16.75 14.5H15.25C15.25 14.6381 15.1381 14.75 15 14.75V16.25ZM3.25 14.5C3.25 15.4665 4.0335 16.25 5 16.25V14.75C4.86193 14.75 4.75 14.6381 4.75 14.5H3.25ZM11.5 6.75H9V8.25H11.5V6.75ZM8.25 7.5V9.5H9.75V7.5H8.25ZM9 10.25H11V8.75H9V10.25ZM10.25 9.5V11.5H11.75V9.5H10.25ZM11 10.75H8.5V12.25H11V10.75ZM12.25 7V10.5H13.75V7H12.25ZM12.4697 11.0303L13.4697 12.0303L14.5303 10.9697L13.5303 9.96967L12.4697 11.0303ZM14.5303 12.0303L15.5303 11.0303L14.4697 9.96967L13.4697 10.9697L14.5303 12.0303ZM15.75 10.5V7H14.25V10.5H15.75ZM7.5 6.75H5V8.25H7.5V6.75ZM4.25 7.5V11.5H5.75V7.5H4.25ZM5 12.25H7.5V10.75H5V12.25Z" fill="white"/>
</svg>
