<svg width="17" height="17" viewBox="0 0 17 17" fill="none" xmlns="http://www.w3.org/2000/svg">
<path d="M1.5 10.5L0.96967 9.96967L0.75 10.1893V10.5H1.5ZM10.5 1.5L11.0303 0.96967C10.7374 0.676777 10.2626 0.676777 9.96967 0.96967L10.5 1.5ZM15.5 6.5L16.0303 7.03033C16.3232 6.73744 16.3232 6.26256 16.0303 5.96967L15.5 6.5ZM6.5 15.5V16.25H6.81066L7.03033 16.0303L6.5 15.5ZM1.5 15.5H0.75C0.75 15.9142 1.08579 16.25 1.5 16.25L1.5 15.5ZM2.03033 11.0303L11.0303 2.03033L9.96967 0.96967L0.96967 9.96967L2.03033 11.0303ZM9.96967 2.03033L14.9697 7.03033L16.0303 5.96967L11.0303 0.96967L9.96967 2.03033ZM14.9697 5.96967L5.96967 14.9697L7.03033 16.0303L16.0303 7.03033L14.9697 5.96967ZM6.5 14.75H1.5V16.25H6.5V14.75ZM2.25 15.5V10.5H0.75V15.5H2.25ZM6.96967 5.03033L11.9697 10.0303L13.0303 8.96967L8.03033 3.96967L6.96967 5.03033ZM9 16.25H16V14.75H9V16.25Z" fill="currentColor"/>
</svg>
