<svg width="16" height="16" fill="none" xmlns="http://www.w3.org/2000/svg">
    <path d="m15.467.533.689.296a.75.75 0 0 0-.985-.985l.296.69zM.533 6.933l-.295-.689a.75.75 0 0 0-.09 1.332l.385-.643zm8.534 8.534-.643.385a.75.75 0 0 0 1.332-.09l-.69-.295zM15.17-.156.238 6.244l.59 1.379 14.934-6.4-.59-1.379zM.147 7.576l5.334 3.2.772-1.286-5.334-3.2-.772 1.286zm5.077 2.943 3.2 5.333 1.286-.771-3.2-5.334-1.286.772zm4.532 5.243L16.156.83 14.777.238l-6.4 14.933 1.379.591zM14.936.003l-9.6 9.6 1.061 1.06 9.6-9.6-1.06-1.06z" fill="#8D9183"/>
</svg>
