<svg width="16" height="16" viewBox="0 0 16 16" fill="currentColor" xmlns="http://www.w3.org/2000/svg">
<path fill-rule="evenodd" clip-rule="evenodd" d="M14.8127 1.16481C15.0325 1.38455 15.0325 1.7408 14.8127 1.96054L2.98251 13.79C2.87301 13.9003 2.72901 13.955 2.58501 13.955C2.44102 13.955 2.29702 13.9003 2.18752 13.79C1.96778 13.5703 1.96778 13.2148 2.18752 12.995L3.66645 11.517C2.60611 10.5472 1.70665 9.23979 1.04612 7.70031C0.984625 7.55782 0.984625 7.39732 1.04612 7.25557C1.81186 5.48261 2.89033 4.01489 4.1653 3.01217C6.63487 1.05775 9.88153 0.954007 12.4513 2.73117L14.0178 1.16481C14.2375 0.945064 14.593 0.945064 14.8127 1.16481ZM14.5351 4.78048C15.0781 5.50121 15.5551 6.33444 15.9533 7.25392C16.0156 7.39642 16.0156 7.55841 15.9533 7.70016C14.3813 11.3428 11.5952 13.517 8.49998 13.517C7.79725 13.517 7.09826 13.403 6.42328 13.1788C6.12853 13.0805 5.96879 12.7618 6.06704 12.4671C6.16528 12.1716 6.48253 12.0148 6.77877 12.1108C7.33901 12.2976 7.91799 12.3921 8.49998 12.3921C11.0709 12.3921 13.4206 10.5606 14.8223 7.47742C14.4803 6.72818 14.0821 6.04945 13.6366 5.45696C13.4499 5.20872 13.4994 4.85548 13.7476 4.66873C13.9951 4.48198 14.3483 4.53298 14.5351 4.78048ZM4.86204 3.89565C3.78506 4.74313 2.86033 5.9776 2.17785 7.47907C2.77292 8.79337 3.55469 9.90178 4.46271 10.7203L6.06603 9.11715C5.73984 8.63722 5.56432 8.07136 5.56432 7.47877C5.56432 5.8588 6.88129 4.54108 8.49976 4.54108C9.08698 4.54108 9.6614 4.71989 10.1396 5.04305L11.6408 3.54203C9.50118 2.15889 6.89711 2.28507 4.86204 3.89565ZM10.9279 7.34602C11.2339 7.40077 11.4371 7.69326 11.3824 7.99926C11.1671 9.19398 10.2207 10.142 9.02669 10.3595C8.99295 10.3655 8.95845 10.3685 8.92545 10.3685C8.6592 10.3685 8.42221 10.178 8.37271 9.90646C8.31721 9.60122 8.51971 9.30798 8.8257 9.25248C9.56068 9.11898 10.1427 8.53549 10.2747 7.79976C10.3302 7.49452 10.6227 7.29352 10.9279 7.34602ZM8.49976 5.66606C7.50153 5.66606 6.6893 6.47904 6.6893 7.47877C6.6893 7.7678 6.75734 8.0468 6.88561 8.29735L9.31978 5.86288C9.06917 5.73518 8.7873 5.66606 8.49976 5.66606Z" fill="currentColor" stroke="currentColor" stroke-width="0.5"/>
</svg>
