<svg width="24" height="24" viewBox="0 0 24 24" fill="none" xmlns="http://www.w3.org/2000/svg">
<path d="M9.375 6C8.89175 6 8.5 6.38376 8.5 6.85714C8.5 7.33053 8.89175 7.71429 9.375 7.71429H14.625C15.1082 7.71429 15.5 7.33053 15.5 6.85714C15.5 6.38376 15.1082 6 14.625 6H9.375Z" fill="#6565FB"/>
<path d="M6.75 9.42857C6.75 8.95518 7.14175 8.57143 7.625 8.57143H16.375C16.8582 8.57143 17.25 8.95518 17.25 9.42857C17.25 9.90196 16.8582 10.2857 16.375 10.2857H7.625C7.14175 10.2857 6.75 9.90196 6.75 9.42857Z" fill="#6565FB"/>
<path d="M5 12.8571C5 11.9104 5.7835 11.1429 6.75 11.1429H17.25C18.2165 11.1429 19 11.9104 19 12.8571V16.2857C19 17.2325 18.2165 18 17.25 18H6.75C5.7835 18 5 17.2325 5 16.2857V12.8571Z" fill="#6565FB"/>
</svg>
