<svg width="17" height="16" viewBox="0 0 17 16" fill="none" xmlns="http://www.w3.org/2000/svg">
<path fill-rule="evenodd" clip-rule="evenodd" d="M8.67676 0C13.095 0 16.6768 3.58172 16.6768 8C16.6768 12.4183 13.095 16 8.67676 16C4.25848 16 0.676758 12.4183 0.676758 8C0.676758 3.58172 4.25848 0 8.67676 0ZM11.3434 4.66666C11.8722 4.69062 12.2821 5.13774 12.2601 5.66666C12.2896 6.01281 12.1217 6.34609 11.8258 6.52827C11.53 6.71045 11.1568 6.71045 10.861 6.52827C10.5652 6.34609 10.3972 6.01281 10.4267 5.66666C10.4047 5.13774 10.8146 4.69062 11.3434 4.66666ZM6.93474 5.66434C6.9556 5.13359 6.54278 4.68617 6.01207 4.66434C5.48124 4.686 5.06822 5.13347 5.08907 5.66434C5.06822 6.19521 5.48124 6.64268 6.01207 6.66434C6.54278 6.6425 6.9556 6.19508 6.93474 5.66434ZM8.68239 9.374C10.1675 9.374 11.5103 9.0825 12.4749 8.87311C13.4172 8.66855 13.9984 8.54238 13.9984 8.843C13.9984 11.4923 11.5887 13.6397 8.65273 13.6397C5.71673 13.6397 3.36639 11.492 3.36639 8.84267C3.36639 8.5415 3.9478 8.66784 4.89039 8.87267C5.85488 9.08225 7.19753 9.374 8.68239 9.374ZM11.7727 9.75281C11.0742 9.93556 10.0037 10.2157 8.67676 10.2157C7.34979 10.2157 6.27927 9.93556 5.58082 9.75281C5.00025 9.60089 4.67676 9.51625 4.67676 9.71567C4.67676 11.6293 7.58476 11.7157 8.67676 11.7157C9.90276 11.7157 12.6768 11.6293 12.6768 9.71567C12.6768 9.51625 12.3533 9.60089 11.7727 9.75281Z" fill="#273240"/>
</svg>
