<svg width="12" height="16" viewBox="0 0 12 16" fill="none" xmlns="http://www.w3.org/2000/svg">
<path fill-rule="evenodd" clip-rule="evenodd" d="M8.57559 14.9882L8.6191 14.9893C8.60894 15.4313 8.2808 15.8013 7.8431 15.8642C7.32494 15.948 6.80129 15.9934 6.27645 15.9999C5.7516 15.9934 5.22795 15.948 4.70979 15.8642C4.27209 15.8013 3.94395 15.4313 3.93379 14.9893V13.0369L3.83113 12.1666C3.68936 11.0235 3.12821 9.9738 2.25647 9.22095C1.1587 8.23304 0.555597 6.80915 0.60981 5.3333C0.60981 2.39265 3.15213 0 6.27645 0C9.40076 0 11.9431 2.39265 11.9431 5.3333C11.9973 6.80915 11.3942 8.23304 10.2964 9.22095C9.42468 9.9738 8.86353 11.0235 8.72177 12.1666L8.6191 13.0359V14.9882H8.57559ZM4.93379 12.9999V13.0369L4.93353 14.8872C5.38203 14.9566 5.83387 14.9943 6.26398 15C6.71289 14.9944 7.16082 14.9575 7.6191 14.8873V12.9999H4.93379ZM6.9608 7.81982C6.94923 7.77063 6.94312 7.71935 6.94312 7.66663C6.94312 7.29844 7.24159 6.99997 7.60978 6.99997C7.97797 6.99997 8.27644 7.29844 8.27644 7.66663C8.27644 8.03482 7.97797 8.3333 7.60978 8.3333C7.55385 8.3333 7.49954 8.32641 7.44763 8.31344L6.60978 9.08627V11.3333H5.94312V9.08596L5.10553 8.31337C5.05354 8.32639 4.99914 8.3333 4.94312 8.3333C4.57493 8.3333 4.27646 8.03482 4.27646 7.66663C4.27646 7.29844 4.57493 6.99997 4.94312 6.99997C5.31131 6.99997 5.60978 7.29844 5.60978 7.66663C5.60978 7.71926 5.60369 7.77046 5.59216 7.81957L6.27662 8.4509L6.9608 7.81982Z" fill="#9EA0AA"/>
</svg>
