<svg width="20" height="20" viewBox="0 0 20 20" fill="none" xmlns="http://www.w3.org/2000/svg">
<g clip-path="url(#clip0)">
<path d="M9.75 16.9909V17.7409H11.25V16.9909H9.75ZM-0.25 16.9909V17.7409H1.25V16.9909H-0.25ZM7.5 11.9941L7.5 12.7441L7.5 12.7441L7.5 11.9941ZM3.5 11.9941L3.5 11.2441L3.5 11.2441L3.5 11.9941ZM7.75 5.99804C7.75 7.23929 6.74325 8.24609 5.5 8.24609V9.74609C7.57075 9.74609 9.25 8.06864 9.25 5.99804H7.75ZM5.5 8.24609C4.25675 8.24609 3.25 7.23929 3.25 5.99804H1.75C1.75 8.06864 3.42925 9.74609 5.5 9.74609V8.24609ZM3.25 5.99804C3.25 4.7568 4.25675 3.75 5.5 3.75V2.25C3.42925 2.25 1.75 3.92745 1.75 5.99804H3.25ZM5.5 3.75C6.74325 3.75 7.75 4.7568 7.75 5.99804H9.25C9.25 3.92745 7.57075 2.25 5.5 2.25V3.75ZM1.25 16.9909C1.25 16.9895 1.25 16.9881 1.25 16.9867C1.25 16.9853 1.25 16.9839 1.25 16.9826C1.25 16.9812 1.25 16.9798 1.25 16.9784C1.25 16.977 1.25 16.9756 1.25 16.9742C1.25 16.9729 1.25 16.9715 1.25 16.9701C1.25 16.9687 1.25 16.9673 1.25 16.9659C1.25 16.9645 1.25 16.9632 1.25 16.9618C1.25 16.9604 1.25 16.959 1.25 16.9576C1.25 16.9562 1.25 16.9549 1.25 16.9535C1.25 16.9521 1.25 16.9507 1.25 16.9493C1.25 16.9479 1.25 16.9465 1.25 16.9452C1.25 16.9438 1.25 16.9424 1.25 16.941C1.25 16.9396 1.25 16.9382 1.25 16.9369C1.25 16.9355 1.25 16.9341 1.25 16.9327C1.25 16.9313 1.25 16.9299 1.25 16.9286C1.25 16.9272 1.25 16.9258 1.25 16.9244C1.25 16.923 1.25 16.9217 1.25 16.9203C1.25 16.9189 1.25 16.9175 1.25 16.9161C1.25 16.9147 1.25 16.9134 1.25 16.912C1.25 16.9106 1.25 16.9092 1.25 16.9078C1.25 16.9065 1.25 16.9051 1.25 16.9037C1.25 16.9023 1.25 16.9009 1.25 16.8995C1.25 16.8982 1.25 16.8968 1.25 16.8954C1.25 16.894 1.25 16.8926 1.25 16.8913C1.25 16.8899 1.25 16.8885 1.25 16.8871C1.25 16.8857 1.25 16.8844 1.25 16.883C1.25 16.8816 1.25 16.8802 1.25 16.8788C1.25 16.8775 1.25 16.8761 1.25 16.8747C1.25 16.8733 1.25 16.8719 1.25 16.8706C1.25 16.8692 1.25 16.8678 1.25 16.8664C1.25 16.8651 1.25 16.8637 1.25 16.8623C1.25 16.8609 1.25 16.8595 1.25 16.8582C1.25 16.8568 1.25 16.8554 1.25 16.854C1.25 16.8526 1.25 16.8513 1.25 16.8499C1.25 16.8485 1.25 16.8471 1.25 16.8458C1.25 16.8444 1.25 16.843 1.25 16.8416C1.25 16.8403 1.25 16.8389 1.25 16.8375C1.25 16.8361 1.25 16.8347 1.25 16.8334C1.25 16.832 1.25 16.8306 1.25 16.8292C1.25 16.8279 1.25 16.8265 1.25 16.8251C1.25 16.8237 1.25 16.8224 1.25 16.821C1.25 16.8196 1.25 16.8182 1.25 16.8169C1.25 16.8155 1.25 16.8141 1.25 16.8127C1.25 16.8114 1.25 16.81 1.25 16.8086C1.25 16.8072 1.25 16.8059 1.25 16.8045C1.25 16.8031 1.25 16.8017 1.25 16.8004C1.25 16.799 1.25 16.7976 1.25 16.7962C1.25 16.7949 1.25 16.7935 1.25 16.7921C1.25 16.7907 1.25 16.7894 1.25 16.788C1.25 16.7866 1.25 16.7852 1.25 16.7839C1.25 16.7825 1.25 16.7811 1.25 16.7798C1.25 16.7784 1.25 16.777 1.25 16.7756C1.25 16.7743 1.25 16.7729 1.25 16.7715C1.25 16.7701 1.25 16.7688 1.25 16.7674C1.25 16.766 1.25 16.7647 1.25 16.7633C1.25 16.7619 1.25 16.7605 1.25 16.7592C1.25 16.7578 1.25 16.7564 1.25 16.7551C1.25 16.7537 1.25 16.7523 1.25 16.7509C1.25 16.7496 1.25 16.7482 1.25 16.7468C1.25 16.7455 1.25 16.7441 1.25 16.7427C1.25 16.7414 1.25 16.74 1.25 16.7386C1.25 16.7372 1.25 16.7359 1.25 16.7345C1.25 16.7331 1.25 16.7318 1.25 16.7304C1.25 16.729 1.25 16.7277 1.25 16.7263C1.25 16.7249 1.25 16.7236 1.25 16.7222C1.25 16.7208 1.25 16.7194 1.25 16.7181C1.25 16.7167 1.25 16.7153 1.25 16.714C1.25 16.7126 1.25 16.7112 1.25 16.7099C1.25 16.7085 1.25 16.7071 1.25 16.7058C1.25 16.7044 1.25 16.703 1.25 16.7017C1.25 16.7003 1.25 16.6989 1.25 16.6976C1.25 16.6962 1.25 16.6948 1.25 16.6935C1.25 16.6921 1.25 16.6907 1.25 16.6894C1.25 16.688 1.25 16.6866 1.25 16.6853C1.25 16.6839 1.25 16.6825 1.25 16.6812C1.25 16.6798 1.25 16.6784 1.25 16.6771C1.25 16.6757 1.25 16.6743 1.25 16.673C1.25 16.6716 1.25 16.6702 1.25 16.6689C1.25 16.6675 1.25 16.6661 1.25 16.6648C1.25 16.6634 1.25 16.6621 1.25 16.6607C1.25 16.6593 1.25 16.658 1.25 16.6566C1.25 16.6552 1.25 16.6539 1.25 16.6525C1.25 16.6511 1.25 16.6498 1.25 16.6484C1.25 16.6471 1.25 16.6457 1.25 16.6443C1.25 16.643 1.25 16.6416 1.25 16.6402C1.25 16.6389 1.25 16.6375 1.25 16.6361C1.25 16.6348 1.25 16.6334 1.25 16.6321C1.25 16.6307 1.25 16.6293 1.25 16.628C1.25 16.6266 1.25 16.6253 1.25 16.6239C1.25 16.6225 1.25 16.6212 1.25 16.6198C1.25 16.6184 1.25 16.6171 1.25 16.6157C1.25 16.6144 1.25 16.613 1.25 16.6116C1.25 16.6103 1.25 16.6089 1.25 16.6076C1.25 16.6062 1.25 16.6048 1.25 16.6035C1.25 16.6021 1.25 16.6008 1.25 16.5994C1.25 16.598 1.25 16.5967 1.25 16.5953C1.25 16.594 1.25 16.5926 1.25 16.5912C1.25 16.5899 1.25 16.5885 1.25 16.5872C1.25 16.5858 1.25 16.5844 1.25 16.5831C1.25 16.5817 1.25 16.5804 1.25 16.579C1.25 16.5777 1.25 16.5763 1.25 16.5749C1.25 16.5736 1.25 16.5722 1.25 16.5709C1.25 16.5695 1.25 16.5681 1.25 16.5668C1.25 16.5654 1.25 16.5641 1.25 16.5627C1.25 16.5614 1.25 16.56 1.25 16.5586C1.25 16.5573 1.25 16.5559 1.25 16.5546C1.25 16.5532 1.25 16.5519 1.25 16.5505C1.25 16.5492 1.25 16.5478 1.25 16.5464C1.25 16.5451 1.25 16.5437 1.25 16.5424C1.25 16.541 1.25 16.5397 1.25 16.5383C1.25 16.537 1.25 16.5356 1.25 16.5342C1.25 16.5329 1.25 16.5315 1.25 16.5302C1.25 16.5288 1.25 16.5275 1.25 16.5261C1.25 16.5248 1.25 16.5234 1.25 16.5221C1.25 16.5207 1.25 16.5193 1.25 16.518C1.25 16.5166 1.25 16.5153 1.25 16.5139C1.25 16.5126 1.25 16.5112 1.25 16.5099C1.25 16.5085 1.25 16.5072 1.25 16.5058C1.25 16.5045 1.25 16.5031 1.25 16.5018C1.25 16.5004 1.25 16.4991 1.25 16.4977C1.25 16.4963 1.25 16.495 1.25 16.4936C1.25 16.4923 1.25 16.4909 1.25 16.4896C1.25 16.4882 1.25 16.4869 1.25 16.4855C1.25 16.4842 1.25 16.4828 1.25 16.4815C1.25 16.4801 1.25 16.4788 1.25 16.4774C1.25 16.4761 1.25 16.4747 1.25 16.4734C1.25 16.472 1.25 16.4707 1.25 16.4693C1.25 16.468 1.25 16.4666 1.25 16.4653C1.25 16.4639 1.25 16.4626 1.25 16.4612C1.25 16.4599 1.25 16.4585 1.25 16.4572C1.25 16.4558 1.25 16.4545 1.25 16.4531C1.25 16.4518 1.25 16.4504 1.25 16.4491C1.25 16.4477 1.25 16.4464 1.25 16.4451C1.25 16.4437 1.25 16.4424 1.25 16.441C1.25 16.4397 1.25 16.4383 1.25 16.437C1.25 16.4356 1.25 16.4343 1.25 16.4329C1.25 16.4316 1.25 16.4302 1.25 16.4289C1.25 16.4275 1.25 16.4262 1.25 16.4248C1.25 16.4235 1.25 16.4222 1.25 16.4208C1.25 16.4195 1.25 16.4181 1.25 16.4168C1.25 16.4154 1.25 16.4141 1.25 16.4127C1.25 16.4114 1.25 16.41 1.25 16.4087C1.25 16.4074 1.25 16.406 1.25 16.4047C1.25 16.4033 1.25 16.402 1.25 16.4006C1.25 16.3993 1.25 16.3979 1.25 16.3966C1.25 16.3953 1.25 16.3939 1.25 16.3926C1.25 16.3912 1.25 16.3899 1.25 16.3885C1.25 16.3872 1.25 16.3858 1.25 16.3845C1.25 16.3832 1.25 16.3818 1.25 16.3805C1.25 16.3791 1.25 16.3778 1.25 16.3764C1.25 16.3751 1.25 16.3738 1.25 16.3724C1.25 16.3711 1.25 16.3697 1.25 16.3684C1.25 16.3671 1.25 16.3657 1.25 16.3644C1.25 16.363 1.25 16.3617 1.25 16.3603C1.25 16.359 1.25 16.3577 1.25 16.3563C1.25 16.355 1.25 16.3536 1.25 16.3523C1.25 16.351 1.25 16.3496 1.25 16.3483C1.25 16.3469 1.25 16.3456 1.25 16.3443C1.25 16.3429 1.25 16.3416 1.25 16.3402C1.25 16.3389 1.25 16.3376 1.25 16.3362C1.25 16.3349 1.25 16.3335 1.25 16.3322C1.25 16.3309 1.25 16.3295 1.25 16.3282C1.25 16.3269 1.25 16.3255 1.25 16.3242C1.25 16.3228 1.25 16.3215 1.25 16.3202C1.25 16.3188 1.25 16.3175 1.25 16.3162C1.25 16.3148 1.25 16.3135 1.25 16.3121C1.25 16.3108 1.25 16.3095 1.25 16.3081C1.25 16.3068 1.25 16.3055 1.25 16.3041C1.25 16.3028 1.25 16.3014 1.25 16.3001C1.25 16.2988 1.25 16.2974 1.25 16.2961C1.25 16.2948 1.25 16.2934 1.25 16.2921C1.25 16.2908 1.25 16.2894 1.25 16.2881C1.25 16.2868 1.25 16.2854 1.25 16.2841C1.25 16.2828 1.25 16.2814 1.25 16.2801C1.25 16.2788 1.25 16.2774 1.25 16.2761C1.25 16.2747 1.25 16.2734 1.25 16.2721C1.25 16.2707 1.25 16.2694 1.25 16.2681C1.25 16.2667 1.25 16.2654 1.25 16.2641C1.25 16.2627 1.25 16.2614 1.25 16.2601C1.25 16.2588 1.25 16.2574 1.25 16.2561C1.25 16.2548 1.25 16.2534 1.25 16.2521C1.25 16.2508 1.25 16.2494 1.25 16.2481C1.25 16.2468 1.25 16.2454 1.25 16.2441C1.25 16.2428 1.25 16.2414 1.25 16.2401C1.25 16.2388 1.25 16.2374 1.25 16.2361C1.25 16.2348 1.25 16.2335 1.25 16.2321C1.25 16.2308 1.25 16.2295 1.25 16.2281C1.25 16.2268 1.25 16.2255 1.25 16.2241C1.25 16.2228 1.25 16.2215 1.25 16.2202C1.25 16.2188 1.25 16.2175 1.25 16.2162C1.25 16.2148 1.25 16.2135 1.25 16.2122C1.25 16.2109 1.25 16.2095 1.25 16.2082C1.25 16.2069 1.25 16.2055 1.25 16.2042C1.25 16.2029 1.25 16.2016 1.25 16.2002C1.25 16.1989 1.25 16.1976 1.25 16.1962C1.25 16.1949 1.25 16.1936 1.25 16.1923C1.25 16.1909 1.25 16.1896 1.25 16.1883C1.25 16.187 1.25 16.1856 1.25 16.1843C1.25 16.183 1.25 16.1817 1.25 16.1803C1.25 16.179 1.25 16.1777 1.25 16.1764C1.25 16.175 1.25 16.1737 1.25 16.1724C1.25 16.1711 1.25 16.1697 1.25 16.1684C1.25 16.1671 1.25 16.1658 1.25 16.1644C1.25 16.1631 1.25 16.1618 1.25 16.1605C1.25 16.1591 1.25 16.1578 1.25 16.1565C1.25 16.1552 1.25 16.1538 1.25 16.1525C1.25 16.1512 1.25 16.1499 1.25 16.1485C1.25 16.1472 1.25 16.1459 1.25 16.1446C1.25 16.1433 1.25 16.1419 1.25 16.1406C1.25 16.1393 1.25 16.138 1.25 16.1366C1.25 16.1353 1.25 16.134 1.25 16.1327C1.25 16.1314 1.25 16.13 1.25 16.1287C1.25 16.1274 1.25 16.1261 1.25 16.1248C1.25 16.1234 1.25 16.1221 1.25 16.1208C1.25 16.1195 1.25 16.1182 1.25 16.1168C1.25 16.1155 1.25 16.1142 1.25 16.1129C1.25 16.1116 1.25 16.1102 1.25 16.1089C1.25 16.1076 1.25 16.1063 1.25 16.105C1.25 16.1036 1.25 16.1023 1.25 16.101C1.25 16.0997 1.25 16.0984 1.25 16.097C1.25 16.0957 1.25 16.0944 1.25 16.0931C1.25 16.0918 1.25 16.0905 1.25 16.0891C1.25 16.0878 1.25 16.0865 1.25 16.0852C1.25 16.0839 1.25 16.0826 1.25 16.0812C1.25 16.0799 1.25 16.0786 1.25 16.0773C1.25 16.076 1.25 16.0747 1.25 16.0733C1.25 16.072 1.25 16.0707 1.25 16.0694C1.25 16.0681 1.25 16.0668 1.25 16.0654C1.25 16.0641 1.25 16.0628 1.25 16.0615C1.25 16.0602 1.25 16.0589 1.25 16.0576C1.25 16.0562 1.25 16.0549 1.25 16.0536C1.25 16.0523 1.25 16.051 1.25 16.0497C1.25 16.0484 1.25 16.047 1.25 16.0457C1.25 16.0444 1.25 16.0431 1.25 16.0418C1.25 16.0405 1.25 16.0392 1.25 16.0378C1.25 16.0365 1.25 16.0352 1.25 16.0339C1.25 16.0326 1.25 16.0313 1.25 16.03C1.25 16.0287 1.25 16.0273 1.25 16.026C1.25 16.0247 1.25 16.0234 1.25 16.0221C1.25 16.0208 1.25 16.0195 1.25 16.0182C1.25 16.0169 1.25 16.0155 1.25 16.0142C1.25 16.0129 1.25 16.0116 1.25 16.0103C1.25 16.009 1.25 16.0077 1.25 16.0064C1.25 16.0051 1.25 16.0038 1.25 16.0024C1.25 16.0011 1.25 15.9998 1.25 15.9985C1.25 15.9972 1.25 15.9959 1.25 15.9946C1.25 15.9933 1.25 15.992 1.25 15.9907C1.25 15.9894 1.25 15.988 1.25 15.9867C1.25 15.9854 1.25 15.9841 1.25 15.9828C1.25 15.9815 1.25 15.9802 1.25 15.9789C1.25 15.9776 1.25 15.9763 1.25 15.975C1.25 15.9737 1.25 15.9724 1.25 15.971C1.25 15.9697 1.25 15.9684 1.25 15.9671C1.25 15.9658 1.25 15.9645 1.25 15.9632C1.25 15.9619 1.25 15.9606 1.25 15.9593C1.25 15.958 1.25 15.9567 1.25 15.9554C1.25 15.9541 1.25 15.9528 1.25 15.9515C1.25 15.9502 1.25 15.9489 1.25 15.9476C1.25 15.9462 1.25 15.9449 1.25 15.9436C1.25 15.9423 1.25 15.941 1.25 15.9397C1.25 15.9384 1.25 15.9371 1.25 15.9358C1.25 15.9345 1.25 15.9332 1.25 15.9319C1.25 15.9306 1.25 15.9293 1.25 15.928C1.25 15.9267 1.25 15.9254 1.25 15.9241C1.25 15.9228 1.25 15.9215 1.25 15.9202C1.25 15.9189 1.25 15.9176 1.25 15.9163C1.25 15.915 1.25 15.9137 1.25 15.9124C1.25 15.9111 1.25 15.9098 1.25 15.9085C1.25 15.9072 1.25 15.9059 1.25 15.9046C1.25 15.9033 1.25 15.902 1.25 15.9007C1.25 15.8994 1.25 15.8981 1.25 15.8968C1.25 15.8955 1.25 15.8942 1.25 15.8929C1.25 15.8916 1.25 15.8903 1.25 15.889C1.25 15.8877 1.25 15.8864 1.25 15.8851C1.25 15.8838 1.25 15.8825 1.25 15.8812C1.25 15.8799 1.25 15.8786 1.25 15.8773C1.25 15.876 1.25 15.8747 1.25 15.8734C1.25 15.8721 1.25 15.8708 1.25 15.8695C1.25 15.8682 1.25 15.8669 1.25 15.8656C1.25 15.8643 1.25 15.863 1.25 15.8617C1.25 15.8604 1.25 15.8592 1.25 15.8579C1.25 15.8566 1.25 15.8553 1.25 15.854C1.25 15.8527 1.25 15.8514 1.25 15.8501C1.25 15.8488 1.25 15.8475 1.25 15.8462C1.25 15.8449 1.25 15.8436 1.25 15.8423C1.25 15.841 1.25 15.8397 1.25 15.8384C1.25 15.8371 1.25 15.8358 1.25 15.8346C1.25 15.8333 1.25 15.832 1.25 15.8307C1.25 15.8294 1.25 15.8281 1.25 15.8268C1.25 15.8255 1.25 15.8242 1.25 15.8229C1.25 15.8216 1.25 15.8203 1.25 15.819C1.25 15.8178 1.25 15.8165 1.25 15.8152C1.25 15.8139 1.25 15.8126 1.25 15.8113C1.25 15.81 1.25 15.8087 1.25 15.8074C1.25 15.8061 1.25 15.8048 1.25 15.8036C1.25 15.8023 1.25 15.801 1.25 15.7997C1.25 15.7984 1.25 15.7971 1.25 15.7958C1.25 15.7945 1.25 15.7932 1.25 15.792C1.25 15.7907 1.25 15.7894 1.25 15.7881C1.25 15.7868 1.25 15.7855 1.25 15.7842C1.25 15.7829 1.25 15.7816 1.25 15.7804C1.25 15.7791 1.25 15.7778 1.25 15.7765C1.25 15.7752 1.25 15.7739 1.25 15.7726C1.25 15.7713 1.25 15.7701 1.25 15.7688C1.25 15.7675 1.25 15.7662 1.25 15.7649C1.25 15.7636 1.25 15.7623 1.25 15.7611C1.25 15.7598 1.25 15.7585 1.25 15.7572C1.25 15.7559 1.25 15.7546 1.25 15.7533C1.25 15.7521 1.25 15.7508 1.25 15.7495C1.25 15.7482 1.25 15.7469 1.25 15.7456C1.25 15.7444 1.25 15.7431 1.25 15.7418C1.25 15.7405 1.25 15.7392 1.25 15.7379C1.25 15.7366 1.25 15.7354 1.25 15.7341C1.25 15.7328 1.25 15.7315 1.25 15.7302C1.25 15.729 1.25 15.7277 1.25 15.7264C1.25 15.7251 1.25 15.7238 1.25 15.7225C1.25 15.7213 1.25 15.72 1.25 15.7187C1.25 15.7174 1.25 15.7161 1.25 15.7149C1.25 15.7136 1.25 15.7123 1.25 15.711C1.25 15.7097 1.25 15.7085 1.25 15.7072C1.25 15.7059 1.25 15.7046 1.25 15.7033C1.25 15.7021 1.25 15.7008 1.25 15.6995C1.25 15.6982 1.25 15.6969 1.25 15.6957C1.25 15.6944 1.25 15.6931 1.25 15.6918C1.25 15.6905 1.25 15.6893 1.25 15.688C1.25 15.6867 1.25 15.6854 1.25 15.6841C1.25 15.6829 1.25 15.6816 1.25 15.6803C1.25 15.679 1.25 15.6778 1.25 15.6765C1.25 15.6752 1.25 15.6739 1.25 15.6727C1.25 15.6714 1.25 15.6701 1.25 15.6688C1.25 15.6676 1.25 15.6663 1.25 15.665C1.25 15.6637 1.25 15.6624 1.25 15.6612C1.25 15.6599 1.25 15.6586 1.25 15.6573C1.25 15.6561 1.25 15.6548 1.25 15.6535C1.25 15.6522 1.25 15.651 1.25 15.6497C1.25 15.6484 1.25 15.6472 1.25 15.6459C1.25 15.6446 1.25 15.6433 1.25 15.6421C1.25 15.6408 1.25 15.6395 1.25 15.6382C1.25 15.637 1.25 15.6357 1.25 15.6344C1.25 15.6331 1.25 15.6319 1.25 15.6306C1.25 15.6293 1.25 15.6281 1.25 15.6268C1.25 15.6255 1.25 15.6242 1.25 15.623C1.25 15.6217 1.25 15.6204 1.25 15.6192C1.25 15.6179 1.25 15.6166 1.25 15.6154C1.25 15.6141 1.25 15.6128 1.25 15.6115C1.25 15.6103 1.25 15.609 1.25 15.6077C1.25 15.6065 1.25 15.6052 1.25 15.6039C1.25 15.6027 1.25 15.6014 1.25 15.6001C1.25 15.5988 1.25 15.5976 1.25 15.5963C1.25 15.595 1.25 15.5938 1.25 15.5925C1.25 15.5912 1.25 15.59 1.25 15.5887C1.25 15.5874 1.25 15.5862 1.25 15.5849C1.25 15.5836 1.25 15.5824 1.25 15.5811C1.25 15.5798 1.25 15.5786 1.25 15.5773C1.25 15.576 1.25 15.5748 1.25 15.5735C1.25 15.5722 1.25 15.571 1.25 15.5697C1.25 15.5684 1.25 15.5672 1.25 15.5659C1.25 15.5646 1.25 15.5634 1.25 15.5621C1.25 15.5609 1.25 15.5596 1.25 15.5583C1.25 15.5571 1.25 15.5558 1.25 15.5545C1.25 15.5533 1.25 15.552 1.25 15.5507C1.25 15.5495 1.25 15.5482 1.25 15.547C1.25 15.5457 1.25 15.5444 1.25 15.5432C1.25 15.5419 1.25 15.5406 1.25 15.5394C1.25 15.5381 1.25 15.5369 1.25 15.5356C1.25 15.5343 1.25 15.5331 1.25 15.5318C1.25 15.5305 1.25 15.5293 1.25 15.528C1.25 15.5268 1.25 15.5255 1.25 15.5242C1.25 15.523 1.25 15.5217 1.25 15.5205C1.25 15.5192 1.25 15.5179 1.25 15.5167C1.25 15.5154 1.25 15.5142 1.25 15.5129C1.25 15.5116 1.25 15.5104 1.25 15.5091C1.25 15.5079 1.25 15.5066 1.25 15.5054C1.25 15.5041 1.25 15.5028 1.25 15.5016C1.25 15.5003 1.25 15.4991 1.25 15.4978C1.25 15.4966 1.25 15.4953 1.25 15.494C1.25 15.4928 1.25 15.4915 1.25 15.4903C1.25 15.489 1.25 15.4878 1.25 15.4865C1.25 15.4852 1.25 15.484 1.25 15.4827C1.25 15.4815 1.25 15.4802 1.25 15.479C1.25 15.4777 1.25 15.4765 1.25 15.4752C1.25 15.4739 1.25 15.4727 1.25 15.4714C1.25 15.4702 1.25 15.4689 1.25 15.4677C1.25 15.4664 1.25 15.4652 1.25 15.4639C1.25 15.4627 1.25 15.4614 1.25 15.4602C1.25 15.4589 1.25 15.4576 1.25 15.4564C1.25 15.4551 1.25 15.4539 1.25 15.4526C1.25 15.4514 1.25 15.4501 1.25 15.4489C1.25 15.4476 1.25 15.4464 1.25 15.4451C1.25 15.4439 1.25 15.4426 1.25 15.4414C1.25 15.4401 1.25 15.4389 1.25 15.4376C1.25 15.4364 1.25 15.4351 1.25 15.4339C1.25 15.4326 1.25 15.4314 1.25 15.4301C1.25 15.4289 1.25 15.4276 1.25 15.4264C1.25 15.4251 1.25 15.4239 1.25 15.4226C1.25 15.4214 1.25 15.4201 1.25 15.4189C1.25 15.4176 1.25 15.4164 1.25 15.4151C1.25 15.4139 1.25 15.4126 1.25 15.4114C1.25 15.4101 1.25 15.4089 1.25 15.4077C1.25 15.4064 1.25 15.4052 1.25 15.4039C1.25 15.4027 1.25 15.4014 1.25 15.4002C1.25 15.3989 1.25 15.3977 1.25 15.3964C1.25 15.3952 1.25 15.3939 1.25 15.3927C1.25 15.3915 1.25 15.3902 1.25 15.389C1.25 15.3877 1.25 15.3865 1.25 15.3852C1.25 15.384 1.25 15.3827 1.25 15.3815C1.25 15.3803 1.25 15.379 1.25 15.3778C1.25 15.3765 1.25 15.3753 1.25 15.374C1.25 15.3728 1.25 15.3716 1.25 15.3703C1.25 15.3691 1.25 15.3678 1.25 15.3666C1.25 15.3653 1.25 15.3641 1.25 15.3629C1.25 15.3616 1.25 15.3604 1.25 15.3591C1.25 15.3579 1.25 15.3567 1.25 15.3554C1.25 15.3542 1.25 15.3529 1.25 15.3517C1.25 15.3504 1.25 15.3492 1.25 15.348C1.25 15.3467 1.25 15.3455 1.25 15.3442C1.25 15.343 1.25 15.3418 1.25 15.3405C1.25 15.3393 1.25 15.3381 1.25 15.3368C1.25 15.3356 1.25 15.3343 1.25 15.3331C1.25 15.3319 1.25 15.3306 1.25 15.3294C1.25 15.3281 1.25 15.3269 1.25 15.3257C1.25 15.3244 1.25 15.3232 1.25 15.322C1.25 15.3207 1.25 15.3195 1.25 15.3183C1.25 15.317 1.25 15.3158 1.25 15.3145C1.25 15.3133 1.25 15.3121 1.25 15.3108C1.25 15.3096 1.25 15.3084 1.25 15.3071C1.25 15.3059 1.25 15.3047 1.25 15.3034C1.25 15.3022 1.25 15.301 1.25 15.2997C1.25 15.2985 1.25 15.2973 1.25 15.296C1.25 15.2948 1.25 15.2936 1.25 15.2923C1.25 15.2911 1.25 15.2899 1.25 15.2886C1.25 15.2874 1.25 15.2862 1.25 15.2849C1.25 15.2837 1.25 15.2825 1.25 15.2812C1.25 15.28 1.25 15.2788 1.25 15.2775C1.25 15.2763 1.25 15.2751 1.25 15.2738C1.25 15.2726 1.25 15.2714 1.25 15.2702C1.25 15.2689 1.25 15.2677 1.25 15.2665C1.25 15.2652 1.25 15.264 1.25 15.2628C1.25 15.2615 1.25 15.2603 1.25 15.2591C1.25 15.2579 1.25 15.2566 1.25 15.2554C1.25 15.2542 1.25 15.2529 1.25 15.2517C1.25 15.2505 1.25 15.2493 1.25 15.248C1.25 15.2468 1.25 15.2456 1.25 15.2443C1.25 15.2431 1.25 15.2419 1.25 15.2407C1.25 15.2394 1.25 15.2382 1.25 15.237C1.25 15.2358 1.25 15.2345 1.25 15.2333C1.25 15.2321 1.25 15.2309 1.25 15.2296C1.25 15.2284 1.25 15.2272 1.25 15.226C1.25 15.2247 1.25 15.2235 1.25 15.2223C1.25 15.2211 1.25 15.2198 1.25 15.2186C1.25 15.2174 1.25 15.2162 1.25 15.2149C1.25 15.2137 1.25 15.2125 1.25 15.2113C1.25 15.21 1.25 15.2088 1.25 15.2076C1.25 15.2064 1.25 15.2051 1.25 15.2039C1.25 15.2027 1.25 15.2015 1.25 15.2003C1.25 15.199 1.25 15.1978 1.25 15.1966C1.25 15.1954 1.25 15.1942 1.25 15.1929C1.25 15.1917 1.25 15.1905 1.25 15.1893C1.25 15.188 1.25 15.1868 1.25 15.1856C1.25 15.1844 1.25 15.1832 1.25 15.182C1.25 15.1807 1.25 15.1795 1.25 15.1783C1.25 15.1771 1.25 15.1759 1.25 15.1746C1.25 15.1734 1.25 15.1722 1.25 15.171C1.25 15.1698 1.25 15.1685 1.25 15.1673C1.25 15.1661 1.25 15.1649 1.25 15.1637C1.25 15.1625 1.25 15.1612 1.25 15.16C1.25 15.1588 1.25 15.1576 1.25 15.1564C1.25 15.1552 1.25 15.1539 1.25 15.1527C1.25 15.1515 1.25 15.1503 1.25 15.1491C1.25 15.1479 1.25 15.1467 1.25 15.1454C1.25 15.1442 1.25 15.143 1.25 15.1418C1.25 15.1406 1.25 15.1394 1.25 15.1382C1.25 15.1369 1.25 15.1357 1.25 15.1345C1.25 15.1333 1.25 15.1321 1.25 15.1309C1.25 15.1297 1.25 15.1284 1.25 15.1272C1.25 15.126 1.25 15.1248 1.25 15.1236C1.25 15.1224 1.25 15.1212 1.25 15.12C1.25 15.1187 1.25 15.1175 1.25 15.1163C1.25 15.1151 1.25 15.1139 1.25 15.1127C1.25 15.1115 1.25 15.1103 1.25 15.1091C1.25 15.1079 1.25 15.1066 1.25 15.1054C1.25 15.1042 1.25 15.103 1.25 15.1018C1.25 15.1006 1.25 15.0994 1.25 15.0982C1.25 15.097 1.25 15.0958 1.25 15.0946C1.25 15.0933 1.25 15.0921 1.25 15.0909C1.25 15.0897 1.25 15.0885 1.25 15.0873C1.25 15.0861 1.25 15.0849 1.25 15.0837C1.25 15.0825 1.25 15.0813 1.25 15.0801C1.25 15.0789 1.25 15.0777 1.25 15.0764C1.25 15.0752 1.25 15.074 1.25 15.0728C1.25 15.0716 1.25 15.0704 1.25 15.0692C1.25 15.068 1.25 15.0668 1.25 15.0656C1.25 15.0644 1.25 15.0632 1.25 15.062C1.25 15.0608 1.25 15.0596 1.25 15.0584C1.25 15.0572 1.25 15.056 1.25 15.0548C1.25 15.0536 1.25 15.0524 1.25 15.0512C1.25 15.05 1.25 15.0488 1.25 15.0476C1.25 15.0464 1.25 15.0452 1.25 15.0439C1.25 15.0427 1.25 15.0415 1.25 15.0403C1.25 15.0391 1.25 15.0379 1.25 15.0367C1.25 15.0355 1.25 15.0343 1.25 15.0331C1.25 15.0319 1.25 15.0307 1.25 15.0295C1.25 15.0283 1.25 15.0271 1.25 15.0259C1.25 15.0247 1.25 15.0235 1.25 15.0223C1.25 15.0211 1.25 15.02 1.25 15.0188C1.25 15.0176 1.25 15.0164 1.25 15.0152C1.25 15.014 1.25 15.0128 1.25 15.0116C1.25 15.0104 1.25 15.0092 1.25 15.008C1.25 15.0068 1.25 15.0056 1.25 15.0044C1.25 15.0032 1.25 15.002 1.25 15.0008C1.25 14.9996 1.25 14.9984 1.25 14.9972C1.25 14.996 1.25 14.9948 1.25 14.9936H-0.25C-0.25 14.9948 -0.25 14.996 -0.25 14.9972C-0.25 14.9984 -0.25 14.9996 -0.25 15.0008C-0.25 15.002 -0.25 15.0032 -0.25 15.0044C-0.25 15.0056 -0.25 15.0068 -0.25 15.008C-0.25 15.0092 -0.25 15.0104 -0.25 15.0116C-0.25 15.0128 -0.25 15.014 -0.25 15.0152C-0.25 15.0164 -0.25 15.0176 -0.25 15.0188C-0.25 15.02 -0.25 15.0211 -0.25 15.0223C-0.25 15.0235 -0.25 15.0247 -0.25 15.0259C-0.25 15.0271 -0.25 15.0283 -0.25 15.0295C-0.25 15.0307 -0.25 15.0319 -0.25 15.0331C-0.25 15.0343 -0.25 15.0355 -0.25 15.0367C-0.25 15.0379 -0.25 15.0391 -0.25 15.0403C-0.25 15.0415 -0.25 15.0427 -0.25 15.0439C-0.25 15.0452 -0.25 15.0464 -0.25 15.0476C-0.25 15.0488 -0.25 15.05 -0.25 15.0512C-0.25 15.0524 -0.25 15.0536 -0.25 15.0548C-0.25 15.056 -0.25 15.0572 -0.25 15.0584C-0.25 15.0596 -0.25 15.0608 -0.25 15.062C-0.25 15.0632 -0.25 15.0644 -0.25 15.0656C-0.25 15.0668 -0.25 15.068 -0.25 15.0692C-0.25 15.0704 -0.25 15.0716 -0.25 15.0728C-0.25 15.074 -0.25 15.0752 -0.25 15.0764C-0.25 15.0777 -0.25 15.0789 -0.25 15.0801C-0.25 15.0813 -0.25 15.0825 -0.25 15.0837C-0.25 15.0849 -0.25 15.0861 -0.25 15.0873C-0.25 15.0885 -0.25 15.0897 -0.25 15.0909C-0.25 15.0921 -0.25 15.0933 -0.25 15.0946C-0.25 15.0958 -0.25 15.097 -0.25 15.0982C-0.25 15.0994 -0.25 15.1006 -0.25 15.1018C-0.25 15.103 -0.25 15.1042 -0.25 15.1054C-0.25 15.1066 -0.25 15.1079 -0.25 15.1091C-0.25 15.1103 -0.25 15.1115 -0.25 15.1127C-0.25 15.1139 -0.25 15.1151 -0.25 15.1163C-0.25 15.1175 -0.25 15.1187 -0.25 15.12C-0.25 15.1212 -0.25 15.1224 -0.25 15.1236C-0.25 15.1248 -0.25 15.126 -0.25 15.1272C-0.25 15.1284 -0.25 15.1297 -0.25 15.1309C-0.25 15.1321 -0.25 15.1333 -0.25 15.1345C-0.25 15.1357 -0.25 15.1369 -0.25 15.1382C-0.25 15.1394 -0.25 15.1406 -0.25 15.1418C-0.25 15.143 -0.25 15.1442 -0.25 15.1454C-0.25 15.1467 -0.25 15.1479 -0.25 15.1491C-0.25 15.1503 -0.25 15.1515 -0.25 15.1527C-0.25 15.1539 -0.25 15.1552 -0.25 15.1564C-0.25 15.1576 -0.25 15.1588 -0.25 15.16C-0.25 15.1612 -0.25 15.1625 -0.25 15.1637C-0.25 15.1649 -0.25 15.1661 -0.25 15.1673C-0.25 15.1685 -0.25 15.1698 -0.25 15.171C-0.25 15.1722 -0.25 15.1734 -0.25 15.1746C-0.25 15.1759 -0.25 15.1771 -0.25 15.1783C-0.25 15.1795 -0.25 15.1807 -0.25 15.182C-0.25 15.1832 -0.25 15.1844 -0.25 15.1856C-0.25 15.1868 -0.25 15.188 -0.25 15.1893C-0.25 15.1905 -0.25 15.1917 -0.25 15.1929C-0.25 15.1942 -0.25 15.1954 -0.25 15.1966C-0.25 15.1978 -0.25 15.199 -0.25 15.2003C-0.25 15.2015 -0.25 15.2027 -0.25 15.2039C-0.25 15.2051 -0.25 15.2064 -0.25 15.2076C-0.25 15.2088 -0.25 15.21 -0.25 15.2113C-0.25 15.2125 -0.25 15.2137 -0.25 15.2149C-0.25 15.2162 -0.25 15.2174 -0.25 15.2186C-0.25 15.2198 -0.25 15.2211 -0.25 15.2223C-0.25 15.2235 -0.25 15.2247 -0.25 15.226C-0.25 15.2272 -0.25 15.2284 -0.25 15.2296C-0.25 15.2309 -0.25 15.2321 -0.25 15.2333C-0.25 15.2345 -0.25 15.2358 -0.25 15.237C-0.25 15.2382 -0.25 15.2394 -0.25 15.2407C-0.25 15.2419 -0.25 15.2431 -0.25 15.2443C-0.25 15.2456 -0.25 15.2468 -0.25 15.248C-0.25 15.2493 -0.25 15.2505 -0.25 15.2517C-0.25 15.2529 -0.25 15.2542 -0.25 15.2554C-0.25 15.2566 -0.25 15.2579 -0.25 15.2591C-0.25 15.2603 -0.25 15.2615 -0.25 15.2628C-0.25 15.264 -0.25 15.2652 -0.25 15.2665C-0.25 15.2677 -0.25 15.2689 -0.25 15.2702C-0.25 15.2714 -0.25 15.2726 -0.25 15.2738C-0.25 15.2751 -0.25 15.2763 -0.25 15.2775C-0.25 15.2788 -0.25 15.28 -0.25 15.2812C-0.25 15.2825 -0.25 15.2837 -0.25 15.2849C-0.25 15.2862 -0.25 15.2874 -0.25 15.2886C-0.25 15.2899 -0.25 15.2911 -0.25 15.2923C-0.25 15.2936 -0.25 15.2948 -0.25 15.296C-0.25 15.2973 -0.25 15.2985 -0.25 15.2997C-0.25 15.301 -0.25 15.3022 -0.25 15.3034C-0.25 15.3047 -0.25 15.3059 -0.25 15.3071C-0.25 15.3084 -0.25 15.3096 -0.25 15.3108C-0.25 15.3121 -0.25 15.3133 -0.25 15.3145C-0.25 15.3158 -0.25 15.317 -0.25 15.3183C-0.25 15.3195 -0.25 15.3207 -0.25 15.322C-0.25 15.3232 -0.25 15.3244 -0.25 15.3257C-0.25 15.3269 -0.25 15.3281 -0.25 15.3294C-0.25 15.3306 -0.25 15.3319 -0.25 15.3331C-0.25 15.3343 -0.25 15.3356 -0.25 15.3368C-0.25 15.3381 -0.25 15.3393 -0.25 15.3405C-0.25 15.3418 -0.25 15.343 -0.25 15.3442C-0.25 15.3455 -0.25 15.3467 -0.25 15.348C-0.25 15.3492 -0.25 15.3504 -0.25 15.3517C-0.25 15.3529 -0.25 15.3542 -0.25 15.3554C-0.25 15.3567 -0.25 15.3579 -0.25 15.3591C-0.25 15.3604 -0.25 15.3616 -0.25 15.3629C-0.25 15.3641 -0.25 15.3653 -0.25 15.3666C-0.25 15.3678 -0.25 15.3691 -0.25 15.3703C-0.25 15.3716 -0.25 15.3728 -0.25 15.374C-0.25 15.3753 -0.25 15.3765 -0.25 15.3778C-0.25 15.379 -0.25 15.3803 -0.25 15.3815C-0.25 15.3827 -0.25 15.384 -0.25 15.3852C-0.25 15.3865 -0.25 15.3877 -0.25 15.389C-0.25 15.3902 -0.25 15.3915 -0.25 15.3927C-0.25 15.3939 -0.25 15.3952 -0.25 15.3964C-0.25 15.3977 -0.25 15.3989 -0.25 15.4002C-0.25 15.4014 -0.25 15.4027 -0.25 15.4039C-0.25 15.4052 -0.25 15.4064 -0.25 15.4077C-0.25 15.4089 -0.25 15.4101 -0.25 15.4114C-0.25 15.4126 -0.25 15.4139 -0.25 15.4151C-0.25 15.4164 -0.25 15.4176 -0.25 15.4189C-0.25 15.4201 -0.25 15.4214 -0.25 15.4226C-0.25 15.4239 -0.25 15.4251 -0.25 15.4264C-0.25 15.4276 -0.25 15.4289 -0.25 15.4301C-0.25 15.4314 -0.25 15.4326 -0.25 15.4339C-0.25 15.4351 -0.25 15.4364 -0.25 15.4376C-0.25 15.4389 -0.25 15.4401 -0.25 15.4414C-0.25 15.4426 -0.25 15.4439 -0.25 15.4451C-0.25 15.4464 -0.25 15.4476 -0.25 15.4489C-0.25 15.4501 -0.25 15.4514 -0.25 15.4526C-0.25 15.4539 -0.25 15.4551 -0.25 15.4564C-0.25 15.4576 -0.25 15.4589 -0.25 15.4602C-0.25 15.4614 -0.25 15.4627 -0.25 15.4639C-0.25 15.4652 -0.25 15.4664 -0.25 15.4677C-0.25 15.4689 -0.25 15.4702 -0.25 15.4714C-0.25 15.4727 -0.25 15.4739 -0.25 15.4752C-0.25 15.4765 -0.25 15.4777 -0.25 15.479C-0.25 15.4802 -0.25 15.4815 -0.25 15.4827C-0.25 15.484 -0.25 15.4852 -0.25 15.4865C-0.25 15.4878 -0.25 15.489 -0.25 15.4903C-0.25 15.4915 -0.25 15.4928 -0.25 15.494C-0.25 15.4953 -0.25 15.4966 -0.25 15.4978C-0.25 15.4991 -0.25 15.5003 -0.25 15.5016C-0.25 15.5028 -0.25 15.5041 -0.25 15.5054C-0.25 15.5066 -0.25 15.5079 -0.25 15.5091C-0.25 15.5104 -0.25 15.5116 -0.25 15.5129C-0.25 15.5142 -0.25 15.5154 -0.25 15.5167C-0.25 15.5179 -0.25 15.5192 -0.25 15.5205C-0.25 15.5217 -0.25 15.523 -0.25 15.5242C-0.25 15.5255 -0.25 15.5268 -0.25 15.528C-0.25 15.5293 -0.25 15.5305 -0.25 15.5318C-0.25 15.5331 -0.25 15.5343 -0.25 15.5356C-0.25 15.5369 -0.25 15.5381 -0.25 15.5394C-0.25 15.5406 -0.25 15.5419 -0.25 15.5432C-0.25 15.5444 -0.25 15.5457 -0.25 15.547C-0.25 15.5482 -0.25 15.5495 -0.25 15.5507C-0.25 15.552 -0.25 15.5533 -0.25 15.5545C-0.25 15.5558 -0.25 15.5571 -0.25 15.5583C-0.25 15.5596 -0.25 15.5609 -0.25 15.5621C-0.25 15.5634 -0.25 15.5646 -0.25 15.5659C-0.25 15.5672 -0.25 15.5684 -0.25 15.5697C-0.25 15.571 -0.25 15.5722 -0.25 15.5735C-0.25 15.5748 -0.25 15.576 -0.25 15.5773C-0.25 15.5786 -0.25 15.5798 -0.25 15.5811C-0.25 15.5824 -0.25 15.5836 -0.25 15.5849C-0.25 15.5862 -0.25 15.5874 -0.25 15.5887C-0.25 15.59 -0.25 15.5912 -0.25 15.5925C-0.25 15.5938 -0.25 15.595 -0.25 15.5963C-0.25 15.5976 -0.25 15.5988 -0.25 15.6001C-0.25 15.6014 -0.25 15.6027 -0.25 15.6039C-0.25 15.6052 -0.25 15.6065 -0.25 15.6077C-0.25 15.609 -0.25 15.6103 -0.25 15.6115C-0.25 15.6128 -0.25 15.6141 -0.25 15.6154C-0.25 15.6166 -0.25 15.6179 -0.25 15.6192C-0.25 15.6204 -0.25 15.6217 -0.25 15.623C-0.25 15.6242 -0.25 15.6255 -0.25 15.6268C-0.25 15.6281 -0.25 15.6293 -0.25 15.6306C-0.25 15.6319 -0.25 15.6331 -0.25 15.6344C-0.25 15.6357 -0.25 15.637 -0.25 15.6382C-0.25 15.6395 -0.25 15.6408 -0.25 15.6421C-0.25 15.6433 -0.25 15.6446 -0.25 15.6459C-0.25 15.6472 -0.25 15.6484 -0.25 15.6497C-0.25 15.651 -0.25 15.6522 -0.25 15.6535C-0.25 15.6548 -0.25 15.6561 -0.25 15.6573C-0.25 15.6586 -0.25 15.6599 -0.25 15.6612C-0.25 15.6624 -0.25 15.6637 -0.25 15.665C-0.25 15.6663 -0.25 15.6676 -0.25 15.6688C-0.25 15.6701 -0.25 15.6714 -0.25 15.6727C-0.25 15.6739 -0.25 15.6752 -0.25 15.6765C-0.25 15.6778 -0.25 15.679 -0.25 15.6803C-0.25 15.6816 -0.25 15.6829 -0.25 15.6841C-0.25 15.6854 -0.25 15.6867 -0.25 15.688C-0.25 15.6893 -0.25 15.6905 -0.25 15.6918C-0.25 15.6931 -0.25 15.6944 -0.25 15.6957C-0.25 15.6969 -0.25 15.6982 -0.25 15.6995C-0.25 15.7008 -0.25 15.7021 -0.25 15.7033C-0.25 15.7046 -0.25 15.7059 -0.25 15.7072C-0.25 15.7085 -0.25 15.7097 -0.25 15.711C-0.25 15.7123 -0.25 15.7136 -0.25 15.7149C-0.25 15.7161 -0.25 15.7174 -0.25 15.7187C-0.25 15.72 -0.25 15.7213 -0.25 15.7225C-0.25 15.7238 -0.25 15.7251 -0.25 15.7264C-0.25 15.7277 -0.25 15.729 -0.25 15.7302C-0.25 15.7315 -0.25 15.7328 -0.25 15.7341C-0.25 15.7354 -0.25 15.7366 -0.25 15.7379C-0.25 15.7392 -0.25 15.7405 -0.25 15.7418C-0.25 15.7431 -0.25 15.7444 -0.25 15.7456C-0.25 15.7469 -0.25 15.7482 -0.25 15.7495C-0.25 15.7508 -0.25 15.7521 -0.25 15.7533C-0.25 15.7546 -0.25 15.7559 -0.25 15.7572C-0.25 15.7585 -0.25 15.7598 -0.25 15.7611C-0.25 15.7623 -0.25 15.7636 -0.25 15.7649C-0.25 15.7662 -0.25 15.7675 -0.25 15.7688C-0.25 15.7701 -0.25 15.7713 -0.25 15.7726C-0.25 15.7739 -0.25 15.7752 -0.25 15.7765C-0.25 15.7778 -0.25 15.7791 -0.25 15.7804C-0.25 15.7816 -0.25 15.7829 -0.25 15.7842C-0.25 15.7855 -0.25 15.7868 -0.25 15.7881C-0.25 15.7894 -0.25 15.7907 -0.25 15.792C-0.25 15.7932 -0.25 15.7945 -0.25 15.7958C-0.25 15.7971 -0.25 15.7984 -0.25 15.7997C-0.25 15.801 -0.25 15.8023 -0.25 15.8036C-0.25 15.8048 -0.25 15.8061 -0.25 15.8074C-0.25 15.8087 -0.25 15.81 -0.25 15.8113C-0.25 15.8126 -0.25 15.8139 -0.25 15.8152C-0.25 15.8165 -0.25 15.8178 -0.25 15.819C-0.25 15.8203 -0.25 15.8216 -0.25 15.8229C-0.25 15.8242 -0.25 15.8255 -0.25 15.8268C-0.25 15.8281 -0.25 15.8294 -0.25 15.8307C-0.25 15.832 -0.25 15.8333 -0.25 15.8346C-0.25 15.8358 -0.25 15.8371 -0.25 15.8384C-0.25 15.8397 -0.25 15.841 -0.25 15.8423C-0.25 15.8436 -0.25 15.8449 -0.25 15.8462C-0.25 15.8475 -0.25 15.8488 -0.25 15.8501C-0.25 15.8514 -0.25 15.8527 -0.25 15.854C-0.25 15.8553 -0.25 15.8566 -0.25 15.8579C-0.25 15.8592 -0.25 15.8604 -0.25 15.8617C-0.25 15.863 -0.25 15.8643 -0.25 15.8656C-0.25 15.8669 -0.25 15.8682 -0.25 15.8695C-0.25 15.8708 -0.25 15.8721 -0.25 15.8734C-0.25 15.8747 -0.25 15.876 -0.25 15.8773C-0.25 15.8786 -0.25 15.8799 -0.25 15.8812C-0.25 15.8825 -0.25 15.8838 -0.25 15.8851C-0.25 15.8864 -0.25 15.8877 -0.25 15.889C-0.25 15.8903 -0.25 15.8916 -0.25 15.8929C-0.25 15.8942 -0.25 15.8955 -0.25 15.8968C-0.25 15.8981 -0.25 15.8994 -0.25 15.9007C-0.25 15.902 -0.25 15.9033 -0.25 15.9046C-0.25 15.9059 -0.25 15.9072 -0.25 15.9085C-0.25 15.9098 -0.25 15.9111 -0.25 15.9124C-0.25 15.9137 -0.25 15.915 -0.25 15.9163C-0.25 15.9176 -0.25 15.9189 -0.25 15.9202C-0.25 15.9215 -0.25 15.9228 -0.25 15.9241C-0.25 15.9254 -0.25 15.9267 -0.25 15.928C-0.25 15.9293 -0.25 15.9306 -0.25 15.9319C-0.25 15.9332 -0.25 15.9345 -0.25 15.9358C-0.25 15.9371 -0.25 15.9384 -0.25 15.9397C-0.25 15.941 -0.25 15.9423 -0.25 15.9436C-0.25 15.9449 -0.25 15.9462 -0.25 15.9476C-0.25 15.9489 -0.25 15.9502 -0.25 15.9515C-0.25 15.9528 -0.25 15.9541 -0.25 15.9554C-0.25 15.9567 -0.25 15.958 -0.25 15.9593C-0.25 15.9606 -0.25 15.9619 -0.25 15.9632C-0.25 15.9645 -0.25 15.9658 -0.25 15.9671C-0.25 15.9684 -0.25 15.9697 -0.25 15.971C-0.25 15.9724 -0.25 15.9737 -0.25 15.975C-0.25 15.9763 -0.25 15.9776 -0.25 15.9789C-0.25 15.9802 -0.25 15.9815 -0.25 15.9828C-0.25 15.9841 -0.25 15.9854 -0.25 15.9867C-0.25 15.988 -0.25 15.9894 -0.25 15.9907C-0.25 15.992 -0.25 15.9933 -0.25 15.9946C-0.25 15.9959 -0.25 15.9972 -0.25 15.9985C-0.25 15.9998 -0.25 16.0011 -0.25 16.0024C-0.25 16.0038 -0.25 16.0051 -0.25 16.0064C-0.25 16.0077 -0.25 16.009 -0.25 16.0103C-0.25 16.0116 -0.25 16.0129 -0.25 16.0142C-0.25 16.0155 -0.25 16.0169 -0.25 16.0182C-0.25 16.0195 -0.25 16.0208 -0.25 16.0221C-0.25 16.0234 -0.25 16.0247 -0.25 16.026C-0.25 16.0273 -0.25 16.0287 -0.25 16.03C-0.25 16.0313 -0.25 16.0326 -0.25 16.0339C-0.25 16.0352 -0.25 16.0365 -0.25 16.0378C-0.25 16.0392 -0.25 16.0405 -0.25 16.0418C-0.25 16.0431 -0.25 16.0444 -0.25 16.0457C-0.25 16.047 -0.25 16.0484 -0.25 16.0497C-0.25 16.051 -0.25 16.0523 -0.25 16.0536C-0.25 16.0549 -0.25 16.0562 -0.25 16.0576C-0.25 16.0589 -0.25 16.0602 -0.25 16.0615C-0.25 16.0628 -0.25 16.0641 -0.25 16.0654C-0.25 16.0668 -0.25 16.0681 -0.25 16.0694C-0.25 16.0707 -0.25 16.072 -0.25 16.0733C-0.25 16.0747 -0.25 16.076 -0.25 16.0773C-0.25 16.0786 -0.25 16.0799 -0.25 16.0812C-0.25 16.0826 -0.25 16.0839 -0.25 16.0852C-0.25 16.0865 -0.25 16.0878 -0.25 16.0891C-0.25 16.0905 -0.25 16.0918 -0.25 16.0931C-0.25 16.0944 -0.25 16.0957 -0.25 16.097C-0.25 16.0984 -0.25 16.0997 -0.25 16.101C-0.25 16.1023 -0.25 16.1036 -0.25 16.105C-0.25 16.1063 -0.25 16.1076 -0.25 16.1089C-0.25 16.1102 -0.25 16.1116 -0.25 16.1129C-0.25 16.1142 -0.25 16.1155 -0.25 16.1168C-0.25 16.1182 -0.25 16.1195 -0.25 16.1208C-0.25 16.1221 -0.25 16.1234 -0.25 16.1248C-0.25 16.1261 -0.25 16.1274 -0.25 16.1287C-0.25 16.13 -0.25 16.1314 -0.25 16.1327C-0.25 16.134 -0.25 16.1353 -0.25 16.1366C-0.25 16.138 -0.25 16.1393 -0.25 16.1406C-0.25 16.1419 -0.25 16.1433 -0.25 16.1446C-0.25 16.1459 -0.25 16.1472 -0.25 16.1485C-0.25 16.1499 -0.25 16.1512 -0.25 16.1525C-0.25 16.1538 -0.25 16.1552 -0.25 16.1565C-0.25 16.1578 -0.25 16.1591 -0.25 16.1605C-0.25 16.1618 -0.25 16.1631 -0.25 16.1644C-0.25 16.1658 -0.25 16.1671 -0.25 16.1684C-0.25 16.1697 -0.25 16.1711 -0.25 16.1724C-0.25 16.1737 -0.25 16.175 -0.25 16.1764C-0.25 16.1777 -0.25 16.179 -0.25 16.1803C-0.25 16.1817 -0.25 16.183 -0.25 16.1843C-0.25 16.1856 -0.25 16.187 -0.25 16.1883C-0.25 16.1896 -0.25 16.1909 -0.25 16.1923C-0.25 16.1936 -0.25 16.1949 -0.25 16.1962C-0.25 16.1976 -0.25 16.1989 -0.25 16.2002C-0.25 16.2016 -0.25 16.2029 -0.25 16.2042C-0.25 16.2055 -0.25 16.2069 -0.25 16.2082C-0.25 16.2095 -0.25 16.2109 -0.25 16.2122C-0.25 16.2135 -0.25 16.2148 -0.25 16.2162C-0.25 16.2175 -0.25 16.2188 -0.25 16.2202C-0.25 16.2215 -0.25 16.2228 -0.25 16.2241C-0.25 16.2255 -0.25 16.2268 -0.25 16.2281C-0.25 16.2295 -0.25 16.2308 -0.25 16.2321C-0.25 16.2335 -0.25 16.2348 -0.25 16.2361C-0.25 16.2374 -0.25 16.2388 -0.25 16.2401C-0.25 16.2414 -0.25 16.2428 -0.25 16.2441C-0.25 16.2454 -0.25 16.2468 -0.25 16.2481C-0.25 16.2494 -0.25 16.2508 -0.25 16.2521C-0.25 16.2534 -0.25 16.2548 -0.25 16.2561C-0.25 16.2574 -0.25 16.2588 -0.25 16.2601C-0.25 16.2614 -0.25 16.2627 -0.25 16.2641C-0.25 16.2654 -0.25 16.2667 -0.25 16.2681C-0.25 16.2694 -0.25 16.2707 -0.25 16.2721C-0.25 16.2734 -0.25 16.2747 -0.25 16.2761C-0.25 16.2774 -0.25 16.2788 -0.25 16.2801C-0.25 16.2814 -0.25 16.2828 -0.25 16.2841C-0.25 16.2854 -0.25 16.2868 -0.25 16.2881C-0.25 16.2894 -0.25 16.2908 -0.25 16.2921C-0.25 16.2934 -0.25 16.2948 -0.25 16.2961C-0.25 16.2974 -0.25 16.2988 -0.25 16.3001C-0.25 16.3014 -0.25 16.3028 -0.25 16.3041C-0.25 16.3055 -0.25 16.3068 -0.25 16.3081C-0.25 16.3095 -0.25 16.3108 -0.25 16.3121C-0.25 16.3135 -0.25 16.3148 -0.25 16.3162C-0.25 16.3175 -0.25 16.3188 -0.25 16.3202C-0.25 16.3215 -0.25 16.3228 -0.25 16.3242C-0.25 16.3255 -0.25 16.3269 -0.25 16.3282C-0.25 16.3295 -0.25 16.3309 -0.25 16.3322C-0.25 16.3335 -0.25 16.3349 -0.25 16.3362C-0.25 16.3376 -0.25 16.3389 -0.25 16.3402C-0.25 16.3416 -0.25 16.3429 -0.25 16.3443C-0.25 16.3456 -0.25 16.3469 -0.25 16.3483C-0.25 16.3496 -0.25 16.351 -0.25 16.3523C-0.25 16.3536 -0.25 16.355 -0.25 16.3563C-0.25 16.3577 -0.25 16.359 -0.25 16.3603C-0.25 16.3617 -0.25 16.363 -0.25 16.3644C-0.25 16.3657 -0.25 16.3671 -0.25 16.3684C-0.25 16.3697 -0.25 16.3711 -0.25 16.3724C-0.25 16.3738 -0.25 16.3751 -0.25 16.3764C-0.25 16.3778 -0.25 16.3791 -0.25 16.3805C-0.25 16.3818 -0.25 16.3832 -0.25 16.3845C-0.25 16.3858 -0.25 16.3872 -0.25 16.3885C-0.25 16.3899 -0.25 16.3912 -0.25 16.3926C-0.25 16.3939 -0.25 16.3953 -0.25 16.3966C-0.25 16.3979 -0.25 16.3993 -0.25 16.4006C-0.25 16.402 -0.25 16.4033 -0.25 16.4047C-0.25 16.406 -0.25 16.4074 -0.25 16.4087C-0.25 16.41 -0.25 16.4114 -0.25 16.4127C-0.25 16.4141 -0.25 16.4154 -0.25 16.4168C-0.25 16.4181 -0.25 16.4195 -0.25 16.4208C-0.25 16.4222 -0.25 16.4235 -0.25 16.4248C-0.25 16.4262 -0.25 16.4275 -0.25 16.4289C-0.25 16.4302 -0.25 16.4316 -0.25 16.4329C-0.25 16.4343 -0.25 16.4356 -0.25 16.437C-0.25 16.4383 -0.25 16.4397 -0.25 16.441C-0.25 16.4424 -0.25 16.4437 -0.25 16.4451C-0.25 16.4464 -0.25 16.4477 -0.25 16.4491C-0.25 16.4504 -0.25 16.4518 -0.25 16.4531C-0.25 16.4545 -0.25 16.4558 -0.25 16.4572C-0.25 16.4585 -0.25 16.4599 -0.25 16.4612C-0.25 16.4626 -0.25 16.4639 -0.25 16.4653C-0.25 16.4666 -0.25 16.468 -0.25 16.4693C-0.25 16.4707 -0.25 16.472 -0.25 16.4734C-0.25 16.4747 -0.25 16.4761 -0.25 16.4774C-0.25 16.4788 -0.25 16.4801 -0.25 16.4815C-0.25 16.4828 -0.25 16.4842 -0.25 16.4855C-0.25 16.4869 -0.25 16.4882 -0.25 16.4896C-0.25 16.4909 -0.25 16.4923 -0.25 16.4936C-0.25 16.495 -0.25 16.4963 -0.25 16.4977C-0.25 16.4991 -0.25 16.5004 -0.25 16.5018C-0.25 16.5031 -0.25 16.5045 -0.25 16.5058C-0.25 16.5072 -0.25 16.5085 -0.25 16.5099C-0.25 16.5112 -0.25 16.5126 -0.25 16.5139C-0.25 16.5153 -0.25 16.5166 -0.25 16.518C-0.25 16.5193 -0.25 16.5207 -0.25 16.5221C-0.25 16.5234 -0.25 16.5248 -0.25 16.5261C-0.25 16.5275 -0.25 16.5288 -0.25 16.5302C-0.25 16.5315 -0.25 16.5329 -0.25 16.5342C-0.25 16.5356 -0.25 16.537 -0.25 16.5383C-0.25 16.5397 -0.25 16.541 -0.25 16.5424C-0.25 16.5437 -0.25 16.5451 -0.25 16.5464C-0.25 16.5478 -0.25 16.5492 -0.25 16.5505C-0.25 16.5519 -0.25 16.5532 -0.25 16.5546C-0.25 16.5559 -0.25 16.5573 -0.25 16.5586C-0.25 16.56 -0.25 16.5614 -0.25 16.5627C-0.25 16.5641 -0.25 16.5654 -0.25 16.5668C-0.25 16.5681 -0.25 16.5695 -0.25 16.5709C-0.25 16.5722 -0.25 16.5736 -0.25 16.5749C-0.25 16.5763 -0.25 16.5777 -0.25 16.579C-0.25 16.5804 -0.25 16.5817 -0.25 16.5831C-0.25 16.5844 -0.25 16.5858 -0.25 16.5872C-0.25 16.5885 -0.25 16.5899 -0.25 16.5912C-0.25 16.5926 -0.25 16.594 -0.25 16.5953C-0.25 16.5967 -0.25 16.598 -0.25 16.5994C-0.25 16.6008 -0.25 16.6021 -0.25 16.6035C-0.25 16.6048 -0.25 16.6062 -0.25 16.6076C-0.25 16.6089 -0.25 16.6103 -0.25 16.6116C-0.25 16.613 -0.25 16.6144 -0.25 16.6157C-0.25 16.6171 -0.25 16.6184 -0.25 16.6198C-0.25 16.6212 -0.25 16.6225 -0.25 16.6239C-0.25 16.6253 -0.25 16.6266 -0.25 16.628C-0.25 16.6293 -0.25 16.6307 -0.25 16.6321C-0.25 16.6334 -0.25 16.6348 -0.25 16.6361C-0.25 16.6375 -0.25 16.6389 -0.25 16.6402C-0.25 16.6416 -0.25 16.643 -0.25 16.6443C-0.25 16.6457 -0.25 16.6471 -0.25 16.6484C-0.25 16.6498 -0.25 16.6511 -0.25 16.6525C-0.25 16.6539 -0.25 16.6552 -0.25 16.6566C-0.25 16.658 -0.25 16.6593 -0.25 16.6607C-0.25 16.6621 -0.25 16.6634 -0.25 16.6648C-0.25 16.6661 -0.25 16.6675 -0.25 16.6689C-0.25 16.6702 -0.25 16.6716 -0.25 16.673C-0.25 16.6743 -0.25 16.6757 -0.25 16.6771C-0.25 16.6784 -0.25 16.6798 -0.25 16.6812C-0.25 16.6825 -0.25 16.6839 -0.25 16.6853C-0.25 16.6866 -0.25 16.688 -0.25 16.6894C-0.25 16.6907 -0.25 16.6921 -0.25 16.6935C-0.25 16.6948 -0.25 16.6962 -0.25 16.6976C-0.25 16.6989 -0.25 16.7003 -0.25 16.7017C-0.25 16.703 -0.25 16.7044 -0.25 16.7058C-0.25 16.7071 -0.25 16.7085 -0.25 16.7099C-0.25 16.7112 -0.25 16.7126 -0.25 16.714C-0.25 16.7153 -0.25 16.7167 -0.25 16.7181C-0.25 16.7194 -0.25 16.7208 -0.25 16.7222C-0.25 16.7236 -0.25 16.7249 -0.25 16.7263C-0.25 16.7277 -0.25 16.729 -0.25 16.7304C-0.25 16.7318 -0.25 16.7331 -0.25 16.7345C-0.25 16.7359 -0.25 16.7372 -0.25 16.7386C-0.25 16.74 -0.25 16.7414 -0.25 16.7427C-0.25 16.7441 -0.25 16.7455 -0.25 16.7468C-0.25 16.7482 -0.25 16.7496 -0.25 16.7509C-0.25 16.7523 -0.25 16.7537 -0.25 16.7551C-0.25 16.7564 -0.25 16.7578 -0.25 16.7592C-0.25 16.7605 -0.25 16.7619 -0.25 16.7633C-0.25 16.7647 -0.25 16.766 -0.25 16.7674C-0.25 16.7688 -0.25 16.7701 -0.25 16.7715C-0.25 16.7729 -0.25 16.7743 -0.25 16.7756C-0.25 16.777 -0.25 16.7784 -0.25 16.7798C-0.25 16.7811 -0.25 16.7825 -0.25 16.7839C-0.25 16.7852 -0.25 16.7866 -0.25 16.788C-0.25 16.7894 -0.25 16.7907 -0.25 16.7921C-0.25 16.7935 -0.25 16.7949 -0.25 16.7962C-0.25 16.7976 -0.25 16.799 -0.25 16.8004C-0.25 16.8017 -0.25 16.8031 -0.25 16.8045C-0.25 16.8059 -0.25 16.8072 -0.25 16.8086C-0.25 16.81 -0.25 16.8114 -0.25 16.8127C-0.25 16.8141 -0.25 16.8155 -0.25 16.8169C-0.25 16.8182 -0.25 16.8196 -0.25 16.821C-0.25 16.8224 -0.25 16.8237 -0.25 16.8251C-0.25 16.8265 -0.25 16.8279 -0.25 16.8292C-0.25 16.8306 -0.25 16.832 -0.25 16.8334C-0.25 16.8347 -0.25 16.8361 -0.25 16.8375C-0.25 16.8389 -0.25 16.8403 -0.25 16.8416C-0.25 16.843 -0.25 16.8444 -0.25 16.8458C-0.25 16.8471 -0.25 16.8485 -0.25 16.8499C-0.25 16.8513 -0.25 16.8526 -0.25 16.854C-0.25 16.8554 -0.25 16.8568 -0.25 16.8582C-0.25 16.8595 -0.25 16.8609 -0.25 16.8623C-0.25 16.8637 -0.25 16.8651 -0.25 16.8664C-0.25 16.8678 -0.25 16.8692 -0.25 16.8706C-0.25 16.8719 -0.25 16.8733 -0.25 16.8747C-0.25 16.8761 -0.25 16.8775 -0.25 16.8788C-0.25 16.8802 -0.25 16.8816 -0.25 16.883C-0.25 16.8844 -0.25 16.8857 -0.25 16.8871C-0.25 16.8885 -0.25 16.8899 -0.25 16.8913C-0.25 16.8926 -0.25 16.894 -0.25 16.8954C-0.25 16.8968 -0.25 16.8982 -0.25 16.8995C-0.25 16.9009 -0.25 16.9023 -0.25 16.9037C-0.25 16.9051 -0.25 16.9065 -0.25 16.9078C-0.25 16.9092 -0.25 16.9106 -0.25 16.912C-0.25 16.9134 -0.25 16.9147 -0.25 16.9161C-0.25 16.9175 -0.25 16.9189 -0.25 16.9203C-0.25 16.9217 -0.25 16.923 -0.25 16.9244C-0.25 16.9258 -0.25 16.9272 -0.25 16.9286C-0.25 16.9299 -0.25 16.9313 -0.25 16.9327C-0.25 16.9341 -0.25 16.9355 -0.25 16.9369C-0.25 16.9382 -0.25 16.9396 -0.25 16.941C-0.25 16.9424 -0.25 16.9438 -0.25 16.9452C-0.25 16.9465 -0.25 16.9479 -0.25 16.9493C-0.25 16.9507 -0.25 16.9521 -0.25 16.9535C-0.25 16.9549 -0.25 16.9562 -0.25 16.9576C-0.25 16.959 -0.25 16.9604 -0.25 16.9618C-0.25 16.9632 -0.25 16.9645 -0.25 16.9659C-0.25 16.9673 -0.25 16.9687 -0.25 16.9701C-0.25 16.9715 -0.25 16.9729 -0.25 16.9742C-0.25 16.9756 -0.25 16.977 -0.25 16.9784C-0.25 16.9798 -0.25 16.9812 -0.25 16.9826C-0.25 16.9839 -0.25 16.9853 -0.25 16.9867C-0.25 16.9881 -0.25 16.9895 -0.25 16.9909H1.25ZM3.5 12.7441L7.5 12.7441L7.5 11.2441L3.5 11.2441L3.5 12.7441ZM9.75 14.9936C9.75 14.9948 9.75 14.996 9.75 14.9972C9.75 14.9984 9.75 14.9996 9.75 15.0008C9.75 15.002 9.75 15.0032 9.75 15.0044C9.75 15.0056 9.75 15.0068 9.75 15.008C9.75 15.0092 9.75 15.0104 9.75 15.0116C9.75 15.0128 9.75 15.014 9.75 15.0152C9.75 15.0164 9.75 15.0176 9.75 15.0188C9.75 15.0199 9.75 15.0211 9.75 15.0223C9.75 15.0235 9.75 15.0247 9.75 15.0259C9.75 15.0271 9.75 15.0283 9.75 15.0295C9.75 15.0307 9.75 15.0319 9.75 15.0331C9.75 15.0343 9.75 15.0355 9.75 15.0367C9.75 15.0379 9.75 15.0391 9.75 15.0403C9.75 15.0415 9.75 15.0427 9.75 15.0439C9.75 15.0451 9.75 15.0463 9.75 15.0476C9.75 15.0488 9.75 15.05 9.75 15.0512C9.75 15.0524 9.75 15.0536 9.75 15.0548C9.75 15.056 9.75 15.0572 9.75 15.0584C9.75 15.0596 9.75 15.0608 9.75 15.062C9.75 15.0632 9.75 15.0644 9.75 15.0656C9.75 15.0668 9.75 15.068 9.75 15.0692C9.75 15.0704 9.75 15.0716 9.75 15.0728C9.75 15.074 9.75 15.0752 9.75 15.0764C9.75 15.0777 9.75 15.0789 9.75 15.0801C9.75 15.0813 9.75 15.0825 9.75 15.0837C9.75 15.0849 9.75 15.0861 9.75 15.0873C9.75 15.0885 9.75 15.0897 9.75 15.0909C9.75 15.0921 9.75 15.0933 9.75 15.0946C9.75 15.0958 9.75 15.097 9.75 15.0982C9.75 15.0994 9.75 15.1006 9.75 15.1018C9.75 15.103 9.75 15.1042 9.75 15.1054C9.75 15.1066 9.75 15.1079 9.75 15.1091C9.75 15.1103 9.75 15.1115 9.75 15.1127C9.75 15.1139 9.75 15.1151 9.75 15.1163C9.75 15.1175 9.75 15.1187 9.75 15.12C9.75 15.1212 9.75 15.1224 9.75 15.1236C9.75 15.1248 9.75 15.126 9.75 15.1272C9.75 15.1284 9.75 15.1297 9.75 15.1309C9.75 15.1321 9.75 15.1333 9.75 15.1345C9.75 15.1357 9.75 15.1369 9.75 15.1381C9.75 15.1394 9.75 15.1406 9.75 15.1418C9.75 15.143 9.75 15.1442 9.75 15.1454C9.75 15.1466 9.75 15.1479 9.75 15.1491C9.75 15.1503 9.75 15.1515 9.75 15.1527C9.75 15.1539 9.75 15.1552 9.75 15.1564C9.75 15.1576 9.75 15.1588 9.75 15.16C9.75 15.1612 9.75 15.1625 9.75 15.1637C9.75 15.1649 9.75 15.1661 9.75 15.1673C9.75 15.1685 9.75 15.1698 9.75 15.171C9.75 15.1722 9.75 15.1734 9.75 15.1746C9.75 15.1759 9.75 15.1771 9.75 15.1783C9.75 15.1795 9.75 15.1807 9.75 15.1819C9.75 15.1832 9.75 15.1844 9.75 15.1856C9.75 15.1868 9.75 15.188 9.75 15.1893C9.75 15.1905 9.75 15.1917 9.75 15.1929C9.75 15.1942 9.75 15.1954 9.75 15.1966C9.75 15.1978 9.75 15.199 9.75 15.2003C9.75 15.2015 9.75 15.2027 9.75 15.2039C9.75 15.2051 9.75 15.2064 9.75 15.2076C9.75 15.2088 9.75 15.21 9.75 15.2113C9.75 15.2125 9.75 15.2137 9.75 15.2149C9.75 15.2162 9.75 15.2174 9.75 15.2186C9.75 15.2198 9.75 15.2211 9.75 15.2223C9.75 15.2235 9.75 15.2247 9.75 15.2259C9.75 15.2272 9.75 15.2284 9.75 15.2296C9.75 15.2309 9.75 15.2321 9.75 15.2333C9.75 15.2345 9.75 15.2358 9.75 15.237C9.75 15.2382 9.75 15.2394 9.75 15.2407C9.75 15.2419 9.75 15.2431 9.75 15.2443C9.75 15.2456 9.75 15.2468 9.75 15.248C9.75 15.2493 9.75 15.2505 9.75 15.2517C9.75 15.2529 9.75 15.2542 9.75 15.2554C9.75 15.2566 9.75 15.2579 9.75 15.2591C9.75 15.2603 9.75 15.2615 9.75 15.2628C9.75 15.264 9.75 15.2652 9.75 15.2665C9.75 15.2677 9.75 15.2689 9.75 15.2701C9.75 15.2714 9.75 15.2726 9.75 15.2738C9.75 15.2751 9.75 15.2763 9.75 15.2775C9.75 15.2788 9.75 15.28 9.75 15.2812C9.75 15.2825 9.75 15.2837 9.75 15.2849C9.75 15.2862 9.75 15.2874 9.75 15.2886C9.75 15.2899 9.75 15.2911 9.75 15.2923C9.75 15.2936 9.75 15.2948 9.75 15.296C9.75 15.2973 9.75 15.2985 9.75 15.2997C9.75 15.301 9.75 15.3022 9.75 15.3034C9.75 15.3047 9.75 15.3059 9.75 15.3071C9.75 15.3084 9.75 15.3096 9.75 15.3108C9.75 15.3121 9.75 15.3133 9.75 15.3145C9.75 15.3158 9.75 15.317 9.75 15.3183C9.75 15.3195 9.75 15.3207 9.75 15.322C9.75 15.3232 9.75 15.3244 9.75 15.3257C9.75 15.3269 9.75 15.3281 9.75 15.3294C9.75 15.3306 9.75 15.3319 9.75 15.3331C9.75 15.3343 9.75 15.3356 9.75 15.3368C9.75 15.3381 9.75 15.3393 9.75 15.3405C9.75 15.3418 9.75 15.343 9.75 15.3442C9.75 15.3455 9.75 15.3467 9.75 15.348C9.75 15.3492 9.75 15.3504 9.75 15.3517C9.75 15.3529 9.75 15.3542 9.75 15.3554C9.75 15.3566 9.75 15.3579 9.75 15.3591C9.75 15.3604 9.75 15.3616 9.75 15.3629C9.75 15.3641 9.75 15.3653 9.75 15.3666C9.75 15.3678 9.75 15.3691 9.75 15.3703C9.75 15.3716 9.75 15.3728 9.75 15.374C9.75 15.3753 9.75 15.3765 9.75 15.3778C9.75 15.379 9.75 15.3803 9.75 15.3815C9.75 15.3827 9.75 15.384 9.75 15.3852C9.75 15.3865 9.75 15.3877 9.75 15.389C9.75 15.3902 9.75 15.3915 9.75 15.3927C9.75 15.3939 9.75 15.3952 9.75 15.3964C9.75 15.3977 9.75 15.3989 9.75 15.4002C9.75 15.4014 9.75 15.4027 9.75 15.4039C9.75 15.4052 9.75 15.4064 9.75 15.4077C9.75 15.4089 9.75 15.4101 9.75 15.4114C9.75 15.4126 9.75 15.4139 9.75 15.4151C9.75 15.4164 9.75 15.4176 9.75 15.4189C9.75 15.4201 9.75 15.4214 9.75 15.4226C9.75 15.4239 9.75 15.4251 9.75 15.4264C9.75 15.4276 9.75 15.4289 9.75 15.4301C9.75 15.4314 9.75 15.4326 9.75 15.4339C9.75 15.4351 9.75 15.4364 9.75 15.4376C9.75 15.4389 9.75 15.4401 9.75 15.4414C9.75 15.4426 9.75 15.4439 9.75 15.4451C9.75 15.4464 9.75 15.4476 9.75 15.4489C9.75 15.4501 9.75 15.4514 9.75 15.4526C9.75 15.4539 9.75 15.4551 9.75 15.4564C9.75 15.4576 9.75 15.4589 9.75 15.4602C9.75 15.4614 9.75 15.4627 9.75 15.4639C9.75 15.4652 9.75 15.4664 9.75 15.4677C9.75 15.4689 9.75 15.4702 9.75 15.4714C9.75 15.4727 9.75 15.4739 9.75 15.4752C9.75 15.4765 9.75 15.4777 9.75 15.479C9.75 15.4802 9.75 15.4815 9.75 15.4827C9.75 15.484 9.75 15.4852 9.75 15.4865C9.75 15.4878 9.75 15.489 9.75 15.4903C9.75 15.4915 9.75 15.4928 9.75 15.494C9.75 15.4953 9.75 15.4965 9.75 15.4978C9.75 15.4991 9.75 15.5003 9.75 15.5016C9.75 15.5028 9.75 15.5041 9.75 15.5054C9.75 15.5066 9.75 15.5079 9.75 15.5091C9.75 15.5104 9.75 15.5116 9.75 15.5129C9.75 15.5142 9.75 15.5154 9.75 15.5167C9.75 15.5179 9.75 15.5192 9.75 15.5205C9.75 15.5217 9.75 15.523 9.75 15.5242C9.75 15.5255 9.75 15.5268 9.75 15.528C9.75 15.5293 9.75 15.5305 9.75 15.5318C9.75 15.5331 9.75 15.5343 9.75 15.5356C9.75 15.5369 9.75 15.5381 9.75 15.5394C9.75 15.5406 9.75 15.5419 9.75 15.5432C9.75 15.5444 9.75 15.5457 9.75 15.547C9.75 15.5482 9.75 15.5495 9.75 15.5507C9.75 15.552 9.75 15.5533 9.75 15.5545C9.75 15.5558 9.75 15.5571 9.75 15.5583C9.75 15.5596 9.75 15.5609 9.75 15.5621C9.75 15.5634 9.75 15.5646 9.75 15.5659C9.75 15.5672 9.75 15.5684 9.75 15.5697C9.75 15.571 9.75 15.5722 9.75 15.5735C9.75 15.5748 9.75 15.576 9.75 15.5773C9.75 15.5786 9.75 15.5798 9.75 15.5811C9.75 15.5824 9.75 15.5836 9.75 15.5849C9.75 15.5862 9.75 15.5874 9.75 15.5887C9.75 15.59 9.75 15.5912 9.75 15.5925C9.75 15.5938 9.75 15.595 9.75 15.5963C9.75 15.5976 9.75 15.5988 9.75 15.6001C9.75 15.6014 9.75 15.6027 9.75 15.6039C9.75 15.6052 9.75 15.6065 9.75 15.6077C9.75 15.609 9.75 15.6103 9.75 15.6115C9.75 15.6128 9.75 15.6141 9.75 15.6153C9.75 15.6166 9.75 15.6179 9.75 15.6192C9.75 15.6204 9.75 15.6217 9.75 15.623C9.75 15.6242 9.75 15.6255 9.75 15.6268C9.75 15.6281 9.75 15.6293 9.75 15.6306C9.75 15.6319 9.75 15.6331 9.75 15.6344C9.75 15.6357 9.75 15.637 9.75 15.6382C9.75 15.6395 9.75 15.6408 9.75 15.6421C9.75 15.6433 9.75 15.6446 9.75 15.6459C9.75 15.6471 9.75 15.6484 9.75 15.6497C9.75 15.651 9.75 15.6522 9.75 15.6535C9.75 15.6548 9.75 15.6561 9.75 15.6573C9.75 15.6586 9.75 15.6599 9.75 15.6612C9.75 15.6624 9.75 15.6637 9.75 15.665C9.75 15.6663 9.75 15.6675 9.75 15.6688C9.75 15.6701 9.75 15.6714 9.75 15.6727C9.75 15.6739 9.75 15.6752 9.75 15.6765C9.75 15.6778 9.75 15.679 9.75 15.6803C9.75 15.6816 9.75 15.6829 9.75 15.6841C9.75 15.6854 9.75 15.6867 9.75 15.688C9.75 15.6893 9.75 15.6905 9.75 15.6918C9.75 15.6931 9.75 15.6944 9.75 15.6957C9.75 15.6969 9.75 15.6982 9.75 15.6995C9.75 15.7008 9.75 15.702 9.75 15.7033C9.75 15.7046 9.75 15.7059 9.75 15.7072C9.75 15.7084 9.75 15.7097 9.75 15.711C9.75 15.7123 9.75 15.7136 9.75 15.7149C9.75 15.7161 9.75 15.7174 9.75 15.7187C9.75 15.72 9.75 15.7213 9.75 15.7225C9.75 15.7238 9.75 15.7251 9.75 15.7264C9.75 15.7277 9.75 15.7289 9.75 15.7302C9.75 15.7315 9.75 15.7328 9.75 15.7341C9.75 15.7354 9.75 15.7366 9.75 15.7379C9.75 15.7392 9.75 15.7405 9.75 15.7418C9.75 15.7431 9.75 15.7443 9.75 15.7456C9.75 15.7469 9.75 15.7482 9.75 15.7495C9.75 15.7508 9.75 15.7521 9.75 15.7533C9.75 15.7546 9.75 15.7559 9.75 15.7572C9.75 15.7585 9.75 15.7598 9.75 15.7611C9.75 15.7623 9.75 15.7636 9.75 15.7649C9.75 15.7662 9.75 15.7675 9.75 15.7688C9.75 15.7701 9.75 15.7713 9.75 15.7726C9.75 15.7739 9.75 15.7752 9.75 15.7765C9.75 15.7778 9.75 15.7791 9.75 15.7804C9.75 15.7816 9.75 15.7829 9.75 15.7842C9.75 15.7855 9.75 15.7868 9.75 15.7881C9.75 15.7894 9.75 15.7907 9.75 15.7919C9.75 15.7932 9.75 15.7945 9.75 15.7958C9.75 15.7971 9.75 15.7984 9.75 15.7997C9.75 15.801 9.75 15.8023 9.75 15.8036C9.75 15.8048 9.75 15.8061 9.75 15.8074C9.75 15.8087 9.75 15.81 9.75 15.8113C9.75 15.8126 9.75 15.8139 9.75 15.8152C9.75 15.8165 9.75 15.8178 9.75 15.819C9.75 15.8203 9.75 15.8216 9.75 15.8229C9.75 15.8242 9.75 15.8255 9.75 15.8268C9.75 15.8281 9.75 15.8294 9.75 15.8307C9.75 15.832 9.75 15.8333 9.75 15.8346C9.75 15.8358 9.75 15.8371 9.75 15.8384C9.75 15.8397 9.75 15.841 9.75 15.8423C9.75 15.8436 9.75 15.8449 9.75 15.8462C9.75 15.8475 9.75 15.8488 9.75 15.8501C9.75 15.8514 9.75 15.8527 9.75 15.854C9.75 15.8553 9.75 15.8566 9.75 15.8579C9.75 15.8591 9.75 15.8604 9.75 15.8617C9.75 15.863 9.75 15.8643 9.75 15.8656C9.75 15.8669 9.75 15.8682 9.75 15.8695C9.75 15.8708 9.75 15.8721 9.75 15.8734C9.75 15.8747 9.75 15.876 9.75 15.8773C9.75 15.8786 9.75 15.8799 9.75 15.8812C9.75 15.8825 9.75 15.8838 9.75 15.8851C9.75 15.8864 9.75 15.8877 9.75 15.889C9.75 15.8903 9.75 15.8916 9.75 15.8929C9.75 15.8942 9.75 15.8955 9.75 15.8968C9.75 15.8981 9.75 15.8994 9.75 15.9007C9.75 15.902 9.75 15.9033 9.75 15.9046C9.75 15.9059 9.75 15.9072 9.75 15.9085C9.75 15.9098 9.75 15.9111 9.75 15.9124C9.75 15.9137 9.75 15.915 9.75 15.9163C9.75 15.9176 9.75 15.9189 9.75 15.9202C9.75 15.9215 9.75 15.9228 9.75 15.9241C9.75 15.9254 9.75 15.9267 9.75 15.928C9.75 15.9293 9.75 15.9306 9.75 15.9319C9.75 15.9332 9.75 15.9345 9.75 15.9358C9.75 15.9371 9.75 15.9384 9.75 15.9397C9.75 15.941 9.75 15.9423 9.75 15.9436C9.75 15.9449 9.75 15.9462 9.75 15.9475C9.75 15.9489 9.75 15.9502 9.75 15.9515C9.75 15.9528 9.75 15.9541 9.75 15.9554C9.75 15.9567 9.75 15.958 9.75 15.9593C9.75 15.9606 9.75 15.9619 9.75 15.9632C9.75 15.9645 9.75 15.9658 9.75 15.9671C9.75 15.9684 9.75 15.9697 9.75 15.971C9.75 15.9724 9.75 15.9737 9.75 15.975C9.75 15.9763 9.75 15.9776 9.75 15.9789C9.75 15.9802 9.75 15.9815 9.75 15.9828C9.75 15.9841 9.75 15.9854 9.75 15.9867C9.75 15.988 9.75 15.9893 9.75 15.9907C9.75 15.992 9.75 15.9933 9.75 15.9946C9.75 15.9959 9.75 15.9972 9.75 15.9985C9.75 15.9998 9.75 16.0011 9.75 16.0024C9.75 16.0037 9.75 16.0051 9.75 16.0064C9.75 16.0077 9.75 16.009 9.75 16.0103C9.75 16.0116 9.75 16.0129 9.75 16.0142C9.75 16.0155 9.75 16.0169 9.75 16.0182C9.75 16.0195 9.75 16.0208 9.75 16.0221C9.75 16.0234 9.75 16.0247 9.75 16.026C9.75 16.0273 9.75 16.0287 9.75 16.03C9.75 16.0313 9.75 16.0326 9.75 16.0339C9.75 16.0352 9.75 16.0365 9.75 16.0378C9.75 16.0392 9.75 16.0405 9.75 16.0418C9.75 16.0431 9.75 16.0444 9.75 16.0457C9.75 16.047 9.75 16.0483 9.75 16.0497C9.75 16.051 9.75 16.0523 9.75 16.0536C9.75 16.0549 9.75 16.0562 9.75 16.0575C9.75 16.0589 9.75 16.0602 9.75 16.0615C9.75 16.0628 9.75 16.0641 9.75 16.0654C9.75 16.0668 9.75 16.0681 9.75 16.0694C9.75 16.0707 9.75 16.072 9.75 16.0733C9.75 16.0746 9.75 16.076 9.75 16.0773C9.75 16.0786 9.75 16.0799 9.75 16.0812C9.75 16.0825 9.75 16.0839 9.75 16.0852C9.75 16.0865 9.75 16.0878 9.75 16.0891C9.75 16.0905 9.75 16.0918 9.75 16.0931C9.75 16.0944 9.75 16.0957 9.75 16.097C9.75 16.0984 9.75 16.0997 9.75 16.101C9.75 16.1023 9.75 16.1036 9.75 16.105C9.75 16.1063 9.75 16.1076 9.75 16.1089C9.75 16.1102 9.75 16.1115 9.75 16.1129C9.75 16.1142 9.75 16.1155 9.75 16.1168C9.75 16.1181 9.75 16.1195 9.75 16.1208C9.75 16.1221 9.75 16.1234 9.75 16.1248C9.75 16.1261 9.75 16.1274 9.75 16.1287C9.75 16.13 9.75 16.1314 9.75 16.1327C9.75 16.134 9.75 16.1353 9.75 16.1366C9.75 16.138 9.75 16.1393 9.75 16.1406C9.75 16.1419 9.75 16.1433 9.75 16.1446C9.75 16.1459 9.75 16.1472 9.75 16.1485C9.75 16.1499 9.75 16.1512 9.75 16.1525C9.75 16.1538 9.75 16.1552 9.75 16.1565C9.75 16.1578 9.75 16.1591 9.75 16.1605C9.75 16.1618 9.75 16.1631 9.75 16.1644C9.75 16.1658 9.75 16.1671 9.75 16.1684C9.75 16.1697 9.75 16.1711 9.75 16.1724C9.75 16.1737 9.75 16.175 9.75 16.1764C9.75 16.1777 9.75 16.179 9.75 16.1803C9.75 16.1817 9.75 16.183 9.75 16.1843C9.75 16.1856 9.75 16.187 9.75 16.1883C9.75 16.1896 9.75 16.1909 9.75 16.1923C9.75 16.1936 9.75 16.1949 9.75 16.1962C9.75 16.1976 9.75 16.1989 9.75 16.2002C9.75 16.2016 9.75 16.2029 9.75 16.2042C9.75 16.2055 9.75 16.2069 9.75 16.2082C9.75 16.2095 9.75 16.2108 9.75 16.2122C9.75 16.2135 9.75 16.2148 9.75 16.2162C9.75 16.2175 9.75 16.2188 9.75 16.2202C9.75 16.2215 9.75 16.2228 9.75 16.2241C9.75 16.2255 9.75 16.2268 9.75 16.2281C9.75 16.2295 9.75 16.2308 9.75 16.2321C9.75 16.2334 9.75 16.2348 9.75 16.2361C9.75 16.2374 9.75 16.2388 9.75 16.2401C9.75 16.2414 9.75 16.2428 9.75 16.2441C9.75 16.2454 9.75 16.2468 9.75 16.2481C9.75 16.2494 9.75 16.2508 9.75 16.2521C9.75 16.2534 9.75 16.2547 9.75 16.2561C9.75 16.2574 9.75 16.2587 9.75 16.2601C9.75 16.2614 9.75 16.2627 9.75 16.2641C9.75 16.2654 9.75 16.2667 9.75 16.2681C9.75 16.2694 9.75 16.2707 9.75 16.2721C9.75 16.2734 9.75 16.2747 9.75 16.2761C9.75 16.2774 9.75 16.2787 9.75 16.2801C9.75 16.2814 9.75 16.2828 9.75 16.2841C9.75 16.2854 9.75 16.2868 9.75 16.2881C9.75 16.2894 9.75 16.2908 9.75 16.2921C9.75 16.2934 9.75 16.2948 9.75 16.2961C9.75 16.2974 9.75 16.2988 9.75 16.3001C9.75 16.3014 9.75 16.3028 9.75 16.3041C9.75 16.3055 9.75 16.3068 9.75 16.3081C9.75 16.3095 9.75 16.3108 9.75 16.3121C9.75 16.3135 9.75 16.3148 9.75 16.3162C9.75 16.3175 9.75 16.3188 9.75 16.3202C9.75 16.3215 9.75 16.3228 9.75 16.3242C9.75 16.3255 9.75 16.3269 9.75 16.3282C9.75 16.3295 9.75 16.3309 9.75 16.3322C9.75 16.3335 9.75 16.3349 9.75 16.3362C9.75 16.3376 9.75 16.3389 9.75 16.3402C9.75 16.3416 9.75 16.3429 9.75 16.3443C9.75 16.3456 9.75 16.3469 9.75 16.3483C9.75 16.3496 9.75 16.351 9.75 16.3523C9.75 16.3536 9.75 16.355 9.75 16.3563C9.75 16.3577 9.75 16.359 9.75 16.3603C9.75 16.3617 9.75 16.363 9.75 16.3644C9.75 16.3657 9.75 16.3671 9.75 16.3684C9.75 16.3697 9.75 16.3711 9.75 16.3724C9.75 16.3738 9.75 16.3751 9.75 16.3764C9.75 16.3778 9.75 16.3791 9.75 16.3805C9.75 16.3818 9.75 16.3832 9.75 16.3845C9.75 16.3858 9.75 16.3872 9.75 16.3885C9.75 16.3899 9.75 16.3912 9.75 16.3926C9.75 16.3939 9.75 16.3952 9.75 16.3966C9.75 16.3979 9.75 16.3993 9.75 16.4006C9.75 16.402 9.75 16.4033 9.75 16.4047C9.75 16.406 9.75 16.4073 9.75 16.4087C9.75 16.41 9.75 16.4114 9.75 16.4127C9.75 16.4141 9.75 16.4154 9.75 16.4168C9.75 16.4181 9.75 16.4195 9.75 16.4208C9.75 16.4221 9.75 16.4235 9.75 16.4248C9.75 16.4262 9.75 16.4275 9.75 16.4289C9.75 16.4302 9.75 16.4316 9.75 16.4329C9.75 16.4343 9.75 16.4356 9.75 16.437C9.75 16.4383 9.75 16.4397 9.75 16.441C9.75 16.4424 9.75 16.4437 9.75 16.445C9.75 16.4464 9.75 16.4477 9.75 16.4491C9.75 16.4504 9.75 16.4518 9.75 16.4531C9.75 16.4545 9.75 16.4558 9.75 16.4572C9.75 16.4585 9.75 16.4599 9.75 16.4612C9.75 16.4626 9.75 16.4639 9.75 16.4653C9.75 16.4666 9.75 16.468 9.75 16.4693C9.75 16.4707 9.75 16.472 9.75 16.4734C9.75 16.4747 9.75 16.4761 9.75 16.4774C9.75 16.4788 9.75 16.4801 9.75 16.4815C9.75 16.4828 9.75 16.4842 9.75 16.4855C9.75 16.4869 9.75 16.4882 9.75 16.4896C9.75 16.4909 9.75 16.4923 9.75 16.4936C9.75 16.495 9.75 16.4963 9.75 16.4977C9.75 16.499 9.75 16.5004 9.75 16.5018C9.75 16.5031 9.75 16.5045 9.75 16.5058C9.75 16.5072 9.75 16.5085 9.75 16.5099C9.75 16.5112 9.75 16.5126 9.75 16.5139C9.75 16.5153 9.75 16.5166 9.75 16.518C9.75 16.5193 9.75 16.5207 9.75 16.522C9.75 16.5234 9.75 16.5248 9.75 16.5261C9.75 16.5275 9.75 16.5288 9.75 16.5302C9.75 16.5315 9.75 16.5329 9.75 16.5342C9.75 16.5356 9.75 16.5369 9.75 16.5383C9.75 16.5397 9.75 16.541 9.75 16.5424C9.75 16.5437 9.75 16.5451 9.75 16.5464C9.75 16.5478 9.75 16.5491 9.75 16.5505C9.75 16.5519 9.75 16.5532 9.75 16.5546C9.75 16.5559 9.75 16.5573 9.75 16.5586C9.75 16.56 9.75 16.5614 9.75 16.5627C9.75 16.5641 9.75 16.5654 9.75 16.5668C9.75 16.5681 9.75 16.5695 9.75 16.5709C9.75 16.5722 9.75 16.5736 9.75 16.5749C9.75 16.5763 9.75 16.5776 9.75 16.579C9.75 16.5804 9.75 16.5817 9.75 16.5831C9.75 16.5844 9.75 16.5858 9.75 16.5872C9.75 16.5885 9.75 16.5899 9.75 16.5912C9.75 16.5926 9.75 16.594 9.75 16.5953C9.75 16.5967 9.75 16.598 9.75 16.5994C9.75 16.6008 9.75 16.6021 9.75 16.6035C9.75 16.6048 9.75 16.6062 9.75 16.6076C9.75 16.6089 9.75 16.6103 9.75 16.6116C9.75 16.613 9.75 16.6144 9.75 16.6157C9.75 16.6171 9.75 16.6184 9.75 16.6198C9.75 16.6212 9.75 16.6225 9.75 16.6239C9.75 16.6252 9.75 16.6266 9.75 16.628C9.75 16.6293 9.75 16.6307 9.75 16.6321C9.75 16.6334 9.75 16.6348 9.75 16.6361C9.75 16.6375 9.75 16.6389 9.75 16.6402C9.75 16.6416 9.75 16.643 9.75 16.6443C9.75 16.6457 9.75 16.647 9.75 16.6484C9.75 16.6498 9.75 16.6511 9.75 16.6525C9.75 16.6539 9.75 16.6552 9.75 16.6566C9.75 16.658 9.75 16.6593 9.75 16.6607C9.75 16.662 9.75 16.6634 9.75 16.6648C9.75 16.6661 9.75 16.6675 9.75 16.6689C9.75 16.6702 9.75 16.6716 9.75 16.673C9.75 16.6743 9.75 16.6757 9.75 16.6771C9.75 16.6784 9.75 16.6798 9.75 16.6812C9.75 16.6825 9.75 16.6839 9.75 16.6853C9.75 16.6866 9.75 16.688 9.75 16.6894C9.75 16.6907 9.75 16.6921 9.75 16.6935C9.75 16.6948 9.75 16.6962 9.75 16.6976C9.75 16.6989 9.75 16.7003 9.75 16.7017C9.75 16.703 9.75 16.7044 9.75 16.7058C9.75 16.7071 9.75 16.7085 9.75 16.7099C9.75 16.7112 9.75 16.7126 9.75 16.714C9.75 16.7153 9.75 16.7167 9.75 16.7181C9.75 16.7194 9.75 16.7208 9.75 16.7222C9.75 16.7235 9.75 16.7249 9.75 16.7263C9.75 16.7277 9.75 16.729 9.75 16.7304C9.75 16.7318 9.75 16.7331 9.75 16.7345C9.75 16.7359 9.75 16.7372 9.75 16.7386C9.75 16.74 9.75 16.7414 9.75 16.7427C9.75 16.7441 9.75 16.7455 9.75 16.7468C9.75 16.7482 9.75 16.7496 9.75 16.7509C9.75 16.7523 9.75 16.7537 9.75 16.7551C9.75 16.7564 9.75 16.7578 9.75 16.7592C9.75 16.7605 9.75 16.7619 9.75 16.7633C9.75 16.7647 9.75 16.766 9.75 16.7674C9.75 16.7688 9.75 16.7701 9.75 16.7715C9.75 16.7729 9.75 16.7743 9.75 16.7756C9.75 16.777 9.75 16.7784 9.75 16.7798C9.75 16.7811 9.75 16.7825 9.75 16.7839C9.75 16.7852 9.75 16.7866 9.75 16.788C9.75 16.7894 9.75 16.7907 9.75 16.7921C9.75 16.7935 9.75 16.7949 9.75 16.7962C9.75 16.7976 9.75 16.799 9.75 16.8004C9.75 16.8017 9.75 16.8031 9.75 16.8045C9.75 16.8059 9.75 16.8072 9.75 16.8086C9.75 16.81 9.75 16.8114 9.75 16.8127C9.75 16.8141 9.75 16.8155 9.75 16.8169C9.75 16.8182 9.75 16.8196 9.75 16.821C9.75 16.8224 9.75 16.8237 9.75 16.8251C9.75 16.8265 9.75 16.8279 9.75 16.8292C9.75 16.8306 9.75 16.832 9.75 16.8334C9.75 16.8347 9.75 16.8361 9.75 16.8375C9.75 16.8389 9.75 16.8402 9.75 16.8416C9.75 16.843 9.75 16.8444 9.75 16.8458C9.75 16.8471 9.75 16.8485 9.75 16.8499C9.75 16.8513 9.75 16.8526 9.75 16.854C9.75 16.8554 9.75 16.8568 9.75 16.8582C9.75 16.8595 9.75 16.8609 9.75 16.8623C9.75 16.8637 9.75 16.865 9.75 16.8664C9.75 16.8678 9.75 16.8692 9.75 16.8706C9.75 16.8719 9.75 16.8733 9.75 16.8747C9.75 16.8761 9.75 16.8775 9.75 16.8788C9.75 16.8802 9.75 16.8816 9.75 16.883C9.75 16.8844 9.75 16.8857 9.75 16.8871C9.75 16.8885 9.75 16.8899 9.75 16.8913C9.75 16.8926 9.75 16.894 9.75 16.8954C9.75 16.8968 9.75 16.8982 9.75 16.8995C9.75 16.9009 9.75 16.9023 9.75 16.9037C9.75 16.9051 9.75 16.9064 9.75 16.9078C9.75 16.9092 9.75 16.9106 9.75 16.912C9.75 16.9134 9.75 16.9147 9.75 16.9161C9.75 16.9175 9.75 16.9189 9.75 16.9203C9.75 16.9216 9.75 16.923 9.75 16.9244C9.75 16.9258 9.75 16.9272 9.75 16.9286C9.75 16.9299 9.75 16.9313 9.75 16.9327C9.75 16.9341 9.75 16.9355 9.75 16.9369C9.75 16.9382 9.75 16.9396 9.75 16.941C9.75 16.9424 9.75 16.9438 9.75 16.9452C9.75 16.9465 9.75 16.9479 9.75 16.9493C9.75 16.9507 9.75 16.9521 9.75 16.9535C9.75 16.9548 9.75 16.9562 9.75 16.9576C9.75 16.959 9.75 16.9604 9.75 16.9618C9.75 16.9632 9.75 16.9645 9.75 16.9659C9.75 16.9673 9.75 16.9687 9.75 16.9701C9.75 16.9715 9.75 16.9729 9.75 16.9742C9.75 16.9756 9.75 16.977 9.75 16.9784C9.75 16.9798 9.75 16.9812 9.75 16.9826C9.75 16.9839 9.75 16.9853 9.75 16.9867C9.75 16.9881 9.75 16.9895 9.75 16.9909H11.25C11.25 16.9895 11.25 16.9881 11.25 16.9867C11.25 16.9853 11.25 16.9839 11.25 16.9826C11.25 16.9812 11.25 16.9798 11.25 16.9784C11.25 16.977 11.25 16.9756 11.25 16.9742C11.25 16.9729 11.25 16.9715 11.25 16.9701C11.25 16.9687 11.25 16.9673 11.25 16.9659C11.25 16.9645 11.25 16.9632 11.25 16.9618C11.25 16.9604 11.25 16.959 11.25 16.9576C11.25 16.9562 11.25 16.9548 11.25 16.9535C11.25 16.9521 11.25 16.9507 11.25 16.9493C11.25 16.9479 11.25 16.9465 11.25 16.9452C11.25 16.9438 11.25 16.9424 11.25 16.941C11.25 16.9396 11.25 16.9382 11.25 16.9369C11.25 16.9355 11.25 16.9341 11.25 16.9327C11.25 16.9313 11.25 16.9299 11.25 16.9286C11.25 16.9272 11.25 16.9258 11.25 16.9244C11.25 16.923 11.25 16.9216 11.25 16.9203C11.25 16.9189 11.25 16.9175 11.25 16.9161C11.25 16.9147 11.25 16.9134 11.25 16.912C11.25 16.9106 11.25 16.9092 11.25 16.9078C11.25 16.9064 11.25 16.9051 11.25 16.9037C11.25 16.9023 11.25 16.9009 11.25 16.8995C11.25 16.8982 11.25 16.8968 11.25 16.8954C11.25 16.894 11.25 16.8926 11.25 16.8913C11.25 16.8899 11.25 16.8885 11.25 16.8871C11.25 16.8857 11.25 16.8844 11.25 16.883C11.25 16.8816 11.25 16.8802 11.25 16.8788C11.25 16.8775 11.25 16.8761 11.25 16.8747C11.25 16.8733 11.25 16.8719 11.25 16.8706C11.25 16.8692 11.25 16.8678 11.25 16.8664C11.25 16.865 11.25 16.8637 11.25 16.8623C11.25 16.8609 11.25 16.8595 11.25 16.8582C11.25 16.8568 11.25 16.8554 11.25 16.854C11.25 16.8526 11.25 16.8513 11.25 16.8499C11.25 16.8485 11.25 16.8471 11.25 16.8458C11.25 16.8444 11.25 16.843 11.25 16.8416C11.25 16.8402 11.25 16.8389 11.25 16.8375C11.25 16.8361 11.25 16.8347 11.25 16.8334C11.25 16.832 11.25 16.8306 11.25 16.8292C11.25 16.8279 11.25 16.8265 11.25 16.8251C11.25 16.8237 11.25 16.8224 11.25 16.821C11.25 16.8196 11.25 16.8182 11.25 16.8169C11.25 16.8155 11.25 16.8141 11.25 16.8127C11.25 16.8114 11.25 16.81 11.25 16.8086C11.25 16.8072 11.25 16.8059 11.25 16.8045C11.25 16.8031 11.25 16.8017 11.25 16.8004C11.25 16.799 11.25 16.7976 11.25 16.7962C11.25 16.7949 11.25 16.7935 11.25 16.7921C11.25 16.7907 11.25 16.7894 11.25 16.788C11.25 16.7866 11.25 16.7852 11.25 16.7839C11.25 16.7825 11.25 16.7811 11.25 16.7798C11.25 16.7784 11.25 16.777 11.25 16.7756C11.25 16.7743 11.25 16.7729 11.25 16.7715C11.25 16.7701 11.25 16.7688 11.25 16.7674C11.25 16.766 11.25 16.7647 11.25 16.7633C11.25 16.7619 11.25 16.7605 11.25 16.7592C11.25 16.7578 11.25 16.7564 11.25 16.7551C11.25 16.7537 11.25 16.7523 11.25 16.7509C11.25 16.7496 11.25 16.7482 11.25 16.7468C11.25 16.7455 11.25 16.7441 11.25 16.7427C11.25 16.7414 11.25 16.74 11.25 16.7386C11.25 16.7372 11.25 16.7359 11.25 16.7345C11.25 16.7331 11.25 16.7318 11.25 16.7304C11.25 16.729 11.25 16.7277 11.25 16.7263C11.25 16.7249 11.25 16.7235 11.25 16.7222C11.25 16.7208 11.25 16.7194 11.25 16.7181C11.25 16.7167 11.25 16.7153 11.25 16.714C11.25 16.7126 11.25 16.7112 11.25 16.7099C11.25 16.7085 11.25 16.7071 11.25 16.7058C11.25 16.7044 11.25 16.703 11.25 16.7017C11.25 16.7003 11.25 16.6989 11.25 16.6976C11.25 16.6962 11.25 16.6948 11.25 16.6935C11.25 16.6921 11.25 16.6907 11.25 16.6894C11.25 16.688 11.25 16.6866 11.25 16.6853C11.25 16.6839 11.25 16.6825 11.25 16.6812C11.25 16.6798 11.25 16.6784 11.25 16.6771C11.25 16.6757 11.25 16.6743 11.25 16.673C11.25 16.6716 11.25 16.6702 11.25 16.6689C11.25 16.6675 11.25 16.6661 11.25 16.6648C11.25 16.6634 11.25 16.662 11.25 16.6607C11.25 16.6593 11.25 16.658 11.25 16.6566C11.25 16.6552 11.25 16.6539 11.25 16.6525C11.25 16.6511 11.25 16.6498 11.25 16.6484C11.25 16.647 11.25 16.6457 11.25 16.6443C11.25 16.643 11.25 16.6416 11.25 16.6402C11.25 16.6389 11.25 16.6375 11.25 16.6361C11.25 16.6348 11.25 16.6334 11.25 16.6321C11.25 16.6307 11.25 16.6293 11.25 16.628C11.25 16.6266 11.25 16.6252 11.25 16.6239C11.25 16.6225 11.25 16.6212 11.25 16.6198C11.25 16.6184 11.25 16.6171 11.25 16.6157C11.25 16.6144 11.25 16.613 11.25 16.6116C11.25 16.6103 11.25 16.6089 11.25 16.6076C11.25 16.6062 11.25 16.6048 11.25 16.6035C11.25 16.6021 11.25 16.6008 11.25 16.5994C11.25 16.598 11.25 16.5967 11.25 16.5953C11.25 16.594 11.25 16.5926 11.25 16.5912C11.25 16.5899 11.25 16.5885 11.25 16.5872C11.25 16.5858 11.25 16.5844 11.25 16.5831C11.25 16.5817 11.25 16.5804 11.25 16.579C11.25 16.5776 11.25 16.5763 11.25 16.5749C11.25 16.5736 11.25 16.5722 11.25 16.5709C11.25 16.5695 11.25 16.5681 11.25 16.5668C11.25 16.5654 11.25 16.5641 11.25 16.5627C11.25 16.5614 11.25 16.56 11.25 16.5586C11.25 16.5573 11.25 16.5559 11.25 16.5546C11.25 16.5532 11.25 16.5519 11.25 16.5505C11.25 16.5491 11.25 16.5478 11.25 16.5464C11.25 16.5451 11.25 16.5437 11.25 16.5424C11.25 16.541 11.25 16.5397 11.25 16.5383C11.25 16.5369 11.25 16.5356 11.25 16.5342C11.25 16.5329 11.25 16.5315 11.25 16.5302C11.25 16.5288 11.25 16.5275 11.25 16.5261C11.25 16.5248 11.25 16.5234 11.25 16.522C11.25 16.5207 11.25 16.5193 11.25 16.518C11.25 16.5166 11.25 16.5153 11.25 16.5139C11.25 16.5126 11.25 16.5112 11.25 16.5099C11.25 16.5085 11.25 16.5072 11.25 16.5058C11.25 16.5045 11.25 16.5031 11.25 16.5018C11.25 16.5004 11.25 16.499 11.25 16.4977C11.25 16.4963 11.25 16.495 11.25 16.4936C11.25 16.4923 11.25 16.4909 11.25 16.4896C11.25 16.4882 11.25 16.4869 11.25 16.4855C11.25 16.4842 11.25 16.4828 11.25 16.4815C11.25 16.4801 11.25 16.4788 11.25 16.4774C11.25 16.4761 11.25 16.4747 11.25 16.4734C11.25 16.472 11.25 16.4707 11.25 16.4693C11.25 16.468 11.25 16.4666 11.25 16.4653C11.25 16.4639 11.25 16.4626 11.25 16.4612C11.25 16.4599 11.25 16.4585 11.25 16.4572C11.25 16.4558 11.25 16.4545 11.25 16.4531C11.25 16.4518 11.25 16.4504 11.25 16.4491C11.25 16.4477 11.25 16.4464 11.25 16.445C11.25 16.4437 11.25 16.4424 11.25 16.441C11.25 16.4397 11.25 16.4383 11.25 16.437C11.25 16.4356 11.25 16.4343 11.25 16.4329C11.25 16.4316 11.25 16.4302 11.25 16.4289C11.25 16.4275 11.25 16.4262 11.25 16.4248C11.25 16.4235 11.25 16.4221 11.25 16.4208C11.25 16.4195 11.25 16.4181 11.25 16.4168C11.25 16.4154 11.25 16.4141 11.25 16.4127C11.25 16.4114 11.25 16.41 11.25 16.4087C11.25 16.4073 11.25 16.406 11.25 16.4047C11.25 16.4033 11.25 16.402 11.25 16.4006C11.25 16.3993 11.25 16.3979 11.25 16.3966C11.25 16.3952 11.25 16.3939 11.25 16.3926C11.25 16.3912 11.25 16.3899 11.25 16.3885C11.25 16.3872 11.25 16.3858 11.25 16.3845C11.25 16.3832 11.25 16.3818 11.25 16.3805C11.25 16.3791 11.25 16.3778 11.25 16.3764C11.25 16.3751 11.25 16.3738 11.25 16.3724C11.25 16.3711 11.25 16.3697 11.25 16.3684C11.25 16.3671 11.25 16.3657 11.25 16.3644C11.25 16.363 11.25 16.3617 11.25 16.3603C11.25 16.359 11.25 16.3577 11.25 16.3563C11.25 16.355 11.25 16.3536 11.25 16.3523C11.25 16.351 11.25 16.3496 11.25 16.3483C11.25 16.3469 11.25 16.3456 11.25 16.3443C11.25 16.3429 11.25 16.3416 11.25 16.3402C11.25 16.3389 11.25 16.3376 11.25 16.3362C11.25 16.3349 11.25 16.3335 11.25 16.3322C11.25 16.3309 11.25 16.3295 11.25 16.3282C11.25 16.3269 11.25 16.3255 11.25 16.3242C11.25 16.3228 11.25 16.3215 11.25 16.3202C11.25 16.3188 11.25 16.3175 11.25 16.3162C11.25 16.3148 11.25 16.3135 11.25 16.3121C11.25 16.3108 11.25 16.3095 11.25 16.3081C11.25 16.3068 11.25 16.3055 11.25 16.3041C11.25 16.3028 11.25 16.3014 11.25 16.3001C11.25 16.2988 11.25 16.2974 11.25 16.2961C11.25 16.2948 11.25 16.2934 11.25 16.2921C11.25 16.2908 11.25 16.2894 11.25 16.2881C11.25 16.2868 11.25 16.2854 11.25 16.2841C11.25 16.2828 11.25 16.2814 11.25 16.2801C11.25 16.2787 11.25 16.2774 11.25 16.2761C11.25 16.2747 11.25 16.2734 11.25 16.2721C11.25 16.2707 11.25 16.2694 11.25 16.2681C11.25 16.2667 11.25 16.2654 11.25 16.2641C11.25 16.2627 11.25 16.2614 11.25 16.2601C11.25 16.2587 11.25 16.2574 11.25 16.2561C11.25 16.2547 11.25 16.2534 11.25 16.2521C11.25 16.2508 11.25 16.2494 11.25 16.2481C11.25 16.2468 11.25 16.2454 11.25 16.2441C11.25 16.2428 11.25 16.2414 11.25 16.2401C11.25 16.2388 11.25 16.2374 11.25 16.2361C11.25 16.2348 11.25 16.2334 11.25 16.2321C11.25 16.2308 11.25 16.2295 11.25 16.2281C11.25 16.2268 11.25 16.2255 11.25 16.2241C11.25 16.2228 11.25 16.2215 11.25 16.2202C11.25 16.2188 11.25 16.2175 11.25 16.2162C11.25 16.2148 11.25 16.2135 11.25 16.2122C11.25 16.2108 11.25 16.2095 11.25 16.2082C11.25 16.2069 11.25 16.2055 11.25 16.2042C11.25 16.2029 11.25 16.2016 11.25 16.2002C11.25 16.1989 11.25 16.1976 11.25 16.1962C11.25 16.1949 11.25 16.1936 11.25 16.1923C11.25 16.1909 11.25 16.1896 11.25 16.1883C11.25 16.187 11.25 16.1856 11.25 16.1843C11.25 16.183 11.25 16.1817 11.25 16.1803C11.25 16.179 11.25 16.1777 11.25 16.1764C11.25 16.175 11.25 16.1737 11.25 16.1724C11.25 16.1711 11.25 16.1697 11.25 16.1684C11.25 16.1671 11.25 16.1658 11.25 16.1644C11.25 16.1631 11.25 16.1618 11.25 16.1605C11.25 16.1591 11.25 16.1578 11.25 16.1565C11.25 16.1552 11.25 16.1538 11.25 16.1525C11.25 16.1512 11.25 16.1499 11.25 16.1485C11.25 16.1472 11.25 16.1459 11.25 16.1446C11.25 16.1433 11.25 16.1419 11.25 16.1406C11.25 16.1393 11.25 16.138 11.25 16.1366C11.25 16.1353 11.25 16.134 11.25 16.1327C11.25 16.1314 11.25 16.13 11.25 16.1287C11.25 16.1274 11.25 16.1261 11.25 16.1248C11.25 16.1234 11.25 16.1221 11.25 16.1208C11.25 16.1195 11.25 16.1181 11.25 16.1168C11.25 16.1155 11.25 16.1142 11.25 16.1129C11.25 16.1115 11.25 16.1102 11.25 16.1089C11.25 16.1076 11.25 16.1063 11.25 16.105C11.25 16.1036 11.25 16.1023 11.25 16.101C11.25 16.0997 11.25 16.0984 11.25 16.097C11.25 16.0957 11.25 16.0944 11.25 16.0931C11.25 16.0918 11.25 16.0905 11.25 16.0891C11.25 16.0878 11.25 16.0865 11.25 16.0852C11.25 16.0839 11.25 16.0825 11.25 16.0812C11.25 16.0799 11.25 16.0786 11.25 16.0773C11.25 16.076 11.25 16.0746 11.25 16.0733C11.25 16.072 11.25 16.0707 11.25 16.0694C11.25 16.0681 11.25 16.0668 11.25 16.0654C11.25 16.0641 11.25 16.0628 11.25 16.0615C11.25 16.0602 11.25 16.0589 11.25 16.0575C11.25 16.0562 11.25 16.0549 11.25 16.0536C11.25 16.0523 11.25 16.051 11.25 16.0497C11.25 16.0483 11.25 16.047 11.25 16.0457C11.25 16.0444 11.25 16.0431 11.25 16.0418C11.25 16.0405 11.25 16.0392 11.25 16.0378C11.25 16.0365 11.25 16.0352 11.25 16.0339C11.25 16.0326 11.25 16.0313 11.25 16.03C11.25 16.0287 11.25 16.0273 11.25 16.026C11.25 16.0247 11.25 16.0234 11.25 16.0221C11.25 16.0208 11.25 16.0195 11.25 16.0182C11.25 16.0169 11.25 16.0155 11.25 16.0142C11.25 16.0129 11.25 16.0116 11.25 16.0103C11.25 16.009 11.25 16.0077 11.25 16.0064C11.25 16.0051 11.25 16.0037 11.25 16.0024C11.25 16.0011 11.25 15.9998 11.25 15.9985C11.25 15.9972 11.25 15.9959 11.25 15.9946C11.25 15.9933 11.25 15.992 11.25 15.9907C11.25 15.9893 11.25 15.988 11.25 15.9867C11.25 15.9854 11.25 15.9841 11.25 15.9828C11.25 15.9815 11.25 15.9802 11.25 15.9789C11.25 15.9776 11.25 15.9763 11.25 15.975C11.25 15.9737 11.25 15.9724 11.25 15.971C11.25 15.9697 11.25 15.9684 11.25 15.9671C11.25 15.9658 11.25 15.9645 11.25 15.9632C11.25 15.9619 11.25 15.9606 11.25 15.9593C11.25 15.958 11.25 15.9567 11.25 15.9554C11.25 15.9541 11.25 15.9528 11.25 15.9515C11.25 15.9502 11.25 15.9489 11.25 15.9475C11.25 15.9462 11.25 15.9449 11.25 15.9436C11.25 15.9423 11.25 15.941 11.25 15.9397C11.25 15.9384 11.25 15.9371 11.25 15.9358C11.25 15.9345 11.25 15.9332 11.25 15.9319C11.25 15.9306 11.25 15.9293 11.25 15.928C11.25 15.9267 11.25 15.9254 11.25 15.9241C11.25 15.9228 11.25 15.9215 11.25 15.9202C11.25 15.9189 11.25 15.9176 11.25 15.9163C11.25 15.915 11.25 15.9137 11.25 15.9124C11.25 15.9111 11.25 15.9098 11.25 15.9085C11.25 15.9072 11.25 15.9059 11.25 15.9046C11.25 15.9033 11.25 15.902 11.25 15.9007C11.25 15.8994 11.25 15.8981 11.25 15.8968C11.25 15.8955 11.25 15.8942 11.25 15.8929C11.25 15.8916 11.25 15.8903 11.25 15.889C11.25 15.8877 11.25 15.8864 11.25 15.8851C11.25 15.8838 11.25 15.8825 11.25 15.8812C11.25 15.8799 11.25 15.8786 11.25 15.8773C11.25 15.876 11.25 15.8747 11.25 15.8734C11.25 15.8721 11.25 15.8708 11.25 15.8695C11.25 15.8682 11.25 15.8669 11.25 15.8656C11.25 15.8643 11.25 15.863 11.25 15.8617C11.25 15.8604 11.25 15.8591 11.25 15.8579C11.25 15.8566 11.25 15.8553 11.25 15.854C11.25 15.8527 11.25 15.8514 11.25 15.8501C11.25 15.8488 11.25 15.8475 11.25 15.8462C11.25 15.8449 11.25 15.8436 11.25 15.8423C11.25 15.841 11.25 15.8397 11.25 15.8384C11.25 15.8371 11.25 15.8358 11.25 15.8346C11.25 15.8333 11.25 15.832 11.25 15.8307C11.25 15.8294 11.25 15.8281 11.25 15.8268C11.25 15.8255 11.25 15.8242 11.25 15.8229C11.25 15.8216 11.25 15.8203 11.25 15.819C11.25 15.8178 11.25 15.8165 11.25 15.8152C11.25 15.8139 11.25 15.8126 11.25 15.8113C11.25 15.81 11.25 15.8087 11.25 15.8074C11.25 15.8061 11.25 15.8048 11.25 15.8036C11.25 15.8023 11.25 15.801 11.25 15.7997C11.25 15.7984 11.25 15.7971 11.25 15.7958C11.25 15.7945 11.25 15.7932 11.25 15.7919C11.25 15.7907 11.25 15.7894 11.25 15.7881C11.25 15.7868 11.25 15.7855 11.25 15.7842C11.25 15.7829 11.25 15.7816 11.25 15.7804C11.25 15.7791 11.25 15.7778 11.25 15.7765C11.25 15.7752 11.25 15.7739 11.25 15.7726C11.25 15.7713 11.25 15.7701 11.25 15.7688C11.25 15.7675 11.25 15.7662 11.25 15.7649C11.25 15.7636 11.25 15.7623 11.25 15.7611C11.25 15.7598 11.25 15.7585 11.25 15.7572C11.25 15.7559 11.25 15.7546 11.25 15.7533C11.25 15.7521 11.25 15.7508 11.25 15.7495C11.25 15.7482 11.25 15.7469 11.25 15.7456C11.25 15.7443 11.25 15.7431 11.25 15.7418C11.25 15.7405 11.25 15.7392 11.25 15.7379C11.25 15.7366 11.25 15.7354 11.25 15.7341C11.25 15.7328 11.25 15.7315 11.25 15.7302C11.25 15.7289 11.25 15.7277 11.25 15.7264C11.25 15.7251 11.25 15.7238 11.25 15.7225C11.25 15.7213 11.25 15.72 11.25 15.7187C11.25 15.7174 11.25 15.7161 11.25 15.7149C11.25 15.7136 11.25 15.7123 11.25 15.711C11.25 15.7097 11.25 15.7084 11.25 15.7072C11.25 15.7059 11.25 15.7046 11.25 15.7033C11.25 15.702 11.25 15.7008 11.25 15.6995C11.25 15.6982 11.25 15.6969 11.25 15.6957C11.25 15.6944 11.25 15.6931 11.25 15.6918C11.25 15.6905 11.25 15.6893 11.25 15.688C11.25 15.6867 11.25 15.6854 11.25 15.6841C11.25 15.6829 11.25 15.6816 11.25 15.6803C11.25 15.679 11.25 15.6778 11.25 15.6765C11.25 15.6752 11.25 15.6739 11.25 15.6727C11.25 15.6714 11.25 15.6701 11.25 15.6688C11.25 15.6675 11.25 15.6663 11.25 15.665C11.25 15.6637 11.25 15.6624 11.25 15.6612C11.25 15.6599 11.25 15.6586 11.25 15.6573C11.25 15.6561 11.25 15.6548 11.25 15.6535C11.25 15.6522 11.25 15.651 11.25 15.6497C11.25 15.6484 11.25 15.6471 11.25 15.6459C11.25 15.6446 11.25 15.6433 11.25 15.6421C11.25 15.6408 11.25 15.6395 11.25 15.6382C11.25 15.637 11.25 15.6357 11.25 15.6344C11.25 15.6331 11.25 15.6319 11.25 15.6306C11.25 15.6293 11.25 15.6281 11.25 15.6268C11.25 15.6255 11.25 15.6242 11.25 15.623C11.25 15.6217 11.25 15.6204 11.25 15.6192C11.25 15.6179 11.25 15.6166 11.25 15.6153C11.25 15.6141 11.25 15.6128 11.25 15.6115C11.25 15.6103 11.25 15.609 11.25 15.6077C11.25 15.6065 11.25 15.6052 11.25 15.6039C11.25 15.6027 11.25 15.6014 11.25 15.6001C11.25 15.5988 11.25 15.5976 11.25 15.5963C11.25 15.595 11.25 15.5938 11.25 15.5925C11.25 15.5912 11.25 15.59 11.25 15.5887C11.25 15.5874 11.25 15.5862 11.25 15.5849C11.25 15.5836 11.25 15.5824 11.25 15.5811C11.25 15.5798 11.25 15.5786 11.25 15.5773C11.25 15.576 11.25 15.5748 11.25 15.5735C11.25 15.5722 11.25 15.571 11.25 15.5697C11.25 15.5684 11.25 15.5672 11.25 15.5659C11.25 15.5646 11.25 15.5634 11.25 15.5621C11.25 15.5609 11.25 15.5596 11.25 15.5583C11.25 15.5571 11.25 15.5558 11.25 15.5545C11.25 15.5533 11.25 15.552 11.25 15.5507C11.25 15.5495 11.25 15.5482 11.25 15.547C11.25 15.5457 11.25 15.5444 11.25 15.5432C11.25 15.5419 11.25 15.5406 11.25 15.5394C11.25 15.5381 11.25 15.5369 11.25 15.5356C11.25 15.5343 11.25 15.5331 11.25 15.5318C11.25 15.5305 11.25 15.5293 11.25 15.528C11.25 15.5268 11.25 15.5255 11.25 15.5242C11.25 15.523 11.25 15.5217 11.25 15.5205C11.25 15.5192 11.25 15.5179 11.25 15.5167C11.25 15.5154 11.25 15.5142 11.25 15.5129C11.25 15.5116 11.25 15.5104 11.25 15.5091C11.25 15.5079 11.25 15.5066 11.25 15.5054C11.25 15.5041 11.25 15.5028 11.25 15.5016C11.25 15.5003 11.25 15.4991 11.25 15.4978C11.25 15.4965 11.25 15.4953 11.25 15.494C11.25 15.4928 11.25 15.4915 11.25 15.4903C11.25 15.489 11.25 15.4878 11.25 15.4865C11.25 15.4852 11.25 15.484 11.25 15.4827C11.25 15.4815 11.25 15.4802 11.25 15.479C11.25 15.4777 11.25 15.4765 11.25 15.4752C11.25 15.4739 11.25 15.4727 11.25 15.4714C11.25 15.4702 11.25 15.4689 11.25 15.4677C11.25 15.4664 11.25 15.4652 11.25 15.4639C11.25 15.4627 11.25 15.4614 11.25 15.4602C11.25 15.4589 11.25 15.4576 11.25 15.4564C11.25 15.4551 11.25 15.4539 11.25 15.4526C11.25 15.4514 11.25 15.4501 11.25 15.4489C11.25 15.4476 11.25 15.4464 11.25 15.4451C11.25 15.4439 11.25 15.4426 11.25 15.4414C11.25 15.4401 11.25 15.4389 11.25 15.4376C11.25 15.4364 11.25 15.4351 11.25 15.4339C11.25 15.4326 11.25 15.4314 11.25 15.4301C11.25 15.4289 11.25 15.4276 11.25 15.4264C11.25 15.4251 11.25 15.4239 11.25 15.4226C11.25 15.4214 11.25 15.4201 11.25 15.4189C11.25 15.4176 11.25 15.4164 11.25 15.4151C11.25 15.4139 11.25 15.4126 11.25 15.4114C11.25 15.4101 11.25 15.4089 11.25 15.4077C11.25 15.4064 11.25 15.4052 11.25 15.4039C11.25 15.4027 11.25 15.4014 11.25 15.4002C11.25 15.3989 11.25 15.3977 11.25 15.3964C11.25 15.3952 11.25 15.3939 11.25 15.3927C11.25 15.3915 11.25 15.3902 11.25 15.389C11.25 15.3877 11.25 15.3865 11.25 15.3852C11.25 15.384 11.25 15.3827 11.25 15.3815C11.25 15.3803 11.25 15.379 11.25 15.3778C11.25 15.3765 11.25 15.3753 11.25 15.374C11.25 15.3728 11.25 15.3716 11.25 15.3703C11.25 15.3691 11.25 15.3678 11.25 15.3666C11.25 15.3653 11.25 15.3641 11.25 15.3629C11.25 15.3616 11.25 15.3604 11.25 15.3591C11.25 15.3579 11.25 15.3566 11.25 15.3554C11.25 15.3542 11.25 15.3529 11.25 15.3517C11.25 15.3504 11.25 15.3492 11.25 15.348C11.25 15.3467 11.25 15.3455 11.25 15.3442C11.25 15.343 11.25 15.3418 11.25 15.3405C11.25 15.3393 11.25 15.3381 11.25 15.3368C11.25 15.3356 11.25 15.3343 11.25 15.3331C11.25 15.3319 11.25 15.3306 11.25 15.3294C11.25 15.3281 11.25 15.3269 11.25 15.3257C11.25 15.3244 11.25 15.3232 11.25 15.322C11.25 15.3207 11.25 15.3195 11.25 15.3183C11.25 15.317 11.25 15.3158 11.25 15.3145C11.25 15.3133 11.25 15.3121 11.25 15.3108C11.25 15.3096 11.25 15.3084 11.25 15.3071C11.25 15.3059 11.25 15.3047 11.25 15.3034C11.25 15.3022 11.25 15.301 11.25 15.2997C11.25 15.2985 11.25 15.2973 11.25 15.296C11.25 15.2948 11.25 15.2936 11.25 15.2923C11.25 15.2911 11.25 15.2899 11.25 15.2886C11.25 15.2874 11.25 15.2862 11.25 15.2849C11.25 15.2837 11.25 15.2825 11.25 15.2812C11.25 15.28 11.25 15.2788 11.25 15.2775C11.25 15.2763 11.25 15.2751 11.25 15.2738C11.25 15.2726 11.25 15.2714 11.25 15.2701C11.25 15.2689 11.25 15.2677 11.25 15.2665C11.25 15.2652 11.25 15.264 11.25 15.2628C11.25 15.2615 11.25 15.2603 11.25 15.2591C11.25 15.2579 11.25 15.2566 11.25 15.2554C11.25 15.2542 11.25 15.2529 11.25 15.2517C11.25 15.2505 11.25 15.2493 11.25 15.248C11.25 15.2468 11.25 15.2456 11.25 15.2443C11.25 15.2431 11.25 15.2419 11.25 15.2407C11.25 15.2394 11.25 15.2382 11.25 15.237C11.25 15.2358 11.25 15.2345 11.25 15.2333C11.25 15.2321 11.25 15.2309 11.25 15.2296C11.25 15.2284 11.25 15.2272 11.25 15.2259C11.25 15.2247 11.25 15.2235 11.25 15.2223C11.25 15.2211 11.25 15.2198 11.25 15.2186C11.25 15.2174 11.25 15.2162 11.25 15.2149C11.25 15.2137 11.25 15.2125 11.25 15.2113C11.25 15.21 11.25 15.2088 11.25 15.2076C11.25 15.2064 11.25 15.2051 11.25 15.2039C11.25 15.2027 11.25 15.2015 11.25 15.2003C11.25 15.199 11.25 15.1978 11.25 15.1966C11.25 15.1954 11.25 15.1942 11.25 15.1929C11.25 15.1917 11.25 15.1905 11.25 15.1893C11.25 15.188 11.25 15.1868 11.25 15.1856C11.25 15.1844 11.25 15.1832 11.25 15.1819C11.25 15.1807 11.25 15.1795 11.25 15.1783C11.25 15.1771 11.25 15.1759 11.25 15.1746C11.25 15.1734 11.25 15.1722 11.25 15.171C11.25 15.1698 11.25 15.1685 11.25 15.1673C11.25 15.1661 11.25 15.1649 11.25 15.1637C11.25 15.1625 11.25 15.1612 11.25 15.16C11.25 15.1588 11.25 15.1576 11.25 15.1564C11.25 15.1552 11.25 15.1539 11.25 15.1527C11.25 15.1515 11.25 15.1503 11.25 15.1491C11.25 15.1479 11.25 15.1466 11.25 15.1454C11.25 15.1442 11.25 15.143 11.25 15.1418C11.25 15.1406 11.25 15.1394 11.25 15.1381C11.25 15.1369 11.25 15.1357 11.25 15.1345C11.25 15.1333 11.25 15.1321 11.25 15.1309C11.25 15.1297 11.25 15.1284 11.25 15.1272C11.25 15.126 11.25 15.1248 11.25 15.1236C11.25 15.1224 11.25 15.1212 11.25 15.12C11.25 15.1187 11.25 15.1175 11.25 15.1163C11.25 15.1151 11.25 15.1139 11.25 15.1127C11.25 15.1115 11.25 15.1103 11.25 15.1091C11.25 15.1079 11.25 15.1066 11.25 15.1054C11.25 15.1042 11.25 15.103 11.25 15.1018C11.25 15.1006 11.25 15.0994 11.25 15.0982C11.25 15.097 11.25 15.0958 11.25 15.0946C11.25 15.0933 11.25 15.0921 11.25 15.0909C11.25 15.0897 11.25 15.0885 11.25 15.0873C11.25 15.0861 11.25 15.0849 11.25 15.0837C11.25 15.0825 11.25 15.0813 11.25 15.0801C11.25 15.0789 11.25 15.0777 11.25 15.0764C11.25 15.0752 11.25 15.074 11.25 15.0728C11.25 15.0716 11.25 15.0704 11.25 15.0692C11.25 15.068 11.25 15.0668 11.25 15.0656C11.25 15.0644 11.25 15.0632 11.25 15.062C11.25 15.0608 11.25 15.0596 11.25 15.0584C11.25 15.0572 11.25 15.056 11.25 15.0548C11.25 15.0536 11.25 15.0524 11.25 15.0512C11.25 15.05 11.25 15.0488 11.25 15.0476C11.25 15.0463 11.25 15.0451 11.25 15.0439C11.25 15.0427 11.25 15.0415 11.25 15.0403C11.25 15.0391 11.25 15.0379 11.25 15.0367C11.25 15.0355 11.25 15.0343 11.25 15.0331C11.25 15.0319 11.25 15.0307 11.25 15.0295C11.25 15.0283 11.25 15.0271 11.25 15.0259C11.25 15.0247 11.25 15.0235 11.25 15.0223C11.25 15.0211 11.25 15.0199 11.25 15.0188C11.25 15.0176 11.25 15.0164 11.25 15.0152C11.25 15.014 11.25 15.0128 11.25 15.0116C11.25 15.0104 11.25 15.0092 11.25 15.008C11.25 15.0068 11.25 15.0056 11.25 15.0044C11.25 15.0032 11.25 15.002 11.25 15.0008C11.25 14.9996 11.25 14.9984 11.25 14.9972C11.25 14.996 11.25 14.9948 11.25 14.9936H9.75ZM7.5 12.7441C8.74281 12.7441 9.75 13.7512 9.75 14.9936H11.25C11.25 12.9224 9.5709 11.2441 7.5 11.2441L7.5 12.7441ZM1.25 14.9936C1.25 13.7512 2.25719 12.7441 3.5 12.7441L3.5 11.2441C1.4291 11.2441 -0.25 12.9224 -0.25 14.9936H1.25ZM11.75 7.5V12.5H13.25V7.5H11.75ZM10 10.75H15V9.25H10V10.75Z" fill="#DDFF55"/>
</g>
<defs>
<clipPath id="clip0">
<rect width="20" height="20" fill="white"/>
</clipPath>
</defs>
</svg>
