<svg width="18" height="18" viewBox="0 0 18 18" fill="none" xmlns="http://www.w3.org/2000/svg">
<path d="M16.4668 4.73333L17.1739 5.44043C17.5644 5.04991 17.5644 4.41674 17.1739 4.02622L16.4668 4.73333ZM1.53345 13.2667L0.826341 12.5596C0.435817 12.9501 0.435817 13.5832 0.82634 13.9738L1.53345 13.2667ZM12.5597 2.24043L15.7597 5.44043L17.1739 4.02622L13.9739 0.826218L12.5597 2.24043ZM15.7597 4.02622L12.5597 7.22622L13.9739 8.64043L17.1739 5.44043L15.7597 4.02622ZM5.44055 15.7596L2.24055 12.5596L0.82634 13.9738L4.02634 17.1738L5.44055 15.7596ZM2.24055 13.9738L5.44055 10.7738L4.02634 9.35955L0.826341 12.5596L2.24055 13.9738ZM1.53345 14.2667H13.2668V12.2667H1.53345V14.2667ZM17.4668 10.0667V8.46666H15.4668V10.0667H17.4668ZM13.2668 14.2667C15.5864 14.2667 17.4668 12.3863 17.4668 10.0667H15.4668C15.4668 11.2817 14.4818 12.2667 13.2668 12.2667V14.2667ZM16.4668 3.73333H4.73345V5.73333H16.4668V3.73333ZM0.533447 7.93332V9.53332H2.53345V7.93332H0.533447ZM4.73345 3.73333C2.41385 3.73333 0.533447 5.61373 0.533447 7.93332H2.53345C2.53345 6.7183 3.51842 5.73333 4.73345 5.73333V3.73333Z" fill="#374151"/>
</svg>
