<svg width="18" height="16" viewBox="0 0 18 16" fill="none" xmlns="http://www.w3.org/2000/svg">
<path d="M16.4667 3.73333L16.997 4.26366C17.2899 3.97076 17.2899 3.49589 16.997 3.20299L16.4667 3.73333ZM1.53333 12.2667L1.003 11.7363C0.710102 12.0292 0.710102 12.5041 1.003 12.797L1.53333 12.2667ZM12.7363 1.06366L15.9363 4.26366L16.997 3.20299L13.797 0.00299511L12.7363 1.06366ZM15.9363 3.20299L12.7363 6.40299L13.797 7.46365L16.997 4.26366L15.9363 3.20299ZM5.26365 14.9363L2.06366 11.7363L1.003 12.797L4.20299 15.997L5.26365 14.9363ZM2.06366 12.797L5.26365 9.59699L4.20299 8.53633L1.003 11.7363L2.06366 12.797ZM1.53333 13.0167H13.2667V11.5167H1.53333V13.0167ZM17.2167 9.06666V7.46666H15.7167V9.06666H17.2167ZM13.2667 13.0167C15.4482 13.0167 17.2167 11.2482 17.2167 9.06666H15.7167C15.7167 10.4198 14.6198 11.5167 13.2667 11.5167V13.0167ZM16.4667 2.98333H4.73333V4.48333H16.4667V2.98333ZM0.783325 6.93332V8.53332H2.28333V6.93332H0.783325ZM4.73333 2.98333C2.5518 2.98333 0.783325 4.7518 0.783325 6.93332H2.28333C2.28333 5.58023 3.38023 4.48333 4.73333 4.48333V2.98333Z" fill="#374151"/>
</svg>
