<svg width="17" height="17" viewBox="0 0 17 17" fill="none" xmlns="http://www.w3.org/2000/svg">
<path d="M6.1 9.55L5.65 8.95L4.45 9.85L4.9 10.45L6.1 9.55ZM12.1 10.45L12.55 9.85L11.35 8.95L10.9 9.55L12.1 10.45ZM8.5 14.75C5.04822 14.75 2.25 11.9518 2.25 8.5H0.75C0.75 12.7802 4.21979 16.25 8.5 16.25V14.75ZM14.75 8.5C14.75 11.9518 11.9518 14.75 8.5 14.75V16.25C12.7802 16.25 16.25 12.7802 16.25 8.5H14.75ZM8.5 2.25C11.9518 2.25 14.75 5.04822 14.75 8.5H16.25C16.25 4.21979 12.7802 0.75 8.5 0.75V2.25ZM8.5 0.75C4.21979 0.75 0.75 4.21979 0.75 8.5H2.25C2.25 5.04822 5.04822 2.25 8.5 2.25V0.75ZM5 7.25H6V5.75H5V7.25ZM11 7.25H12V5.75H11V7.25ZM10.9 9.55C9.7 11.15 7.3 11.15 6.1 9.55L4.9 10.45C6.7 12.85 10.3 12.85 12.1 10.45L10.9 9.55Z" fill="#273240"/>
</svg>
