<svg width="16" height="16" viewBox="0 0 16 16" fill="none" xmlns="http://www.w3.org/2000/svg">
<path d="M5.40449 1.46667H3.33322C2.30229 1.46667 1.46655 2.30241 1.46655 3.33334V5.20001C1.46655 10.3547 5.64523 14.5333 10.7999 14.5333H12.6666C13.6975 14.5333 14.5332 13.6976 14.5332 12.6667V11.3768C14.5332 11.0233 14.3335 10.7001 14.0173 10.542L11.7624 9.41461C11.2544 9.1606 10.6392 9.41543 10.4596 9.95426L10.1817 10.788C10.0016 11.3281 9.44765 11.6496 8.88943 11.5379C6.65522 11.0911 4.90882 9.34467 4.46198 7.11046C4.35033 6.55224 4.67183 5.99825 5.21189 5.81823L6.24661 5.47332C6.70928 5.3191 6.97521 4.83466 6.85693 4.36152L6.30996 2.17364C6.20609 1.75815 5.83277 1.46667 5.40449 1.46667Z" />
</svg>
