<svg width="17" height="16" viewBox="0 0 17 16" fill="none" xmlns="http://www.w3.org/2000/svg">
<path fill-rule="evenodd" clip-rule="evenodd" d="M7.98992 0.0368162L11.2178 1.14082L10.9109 2.03633L8.13889 1.08861L7.5066 3.63481H8.99982L8.70854 6.62955C5.54729 6.92649 3.64973 8.09061 3.64973 9.81359C3.64686 10.047 3.69214 10.2785 3.78274 10.4936L3.71624 10.5867L3.70925 10.5967L3.7026 10.6067C3.61756 10.7507 3.54387 10.9003 3.48186 11.0543H1.866L3.35192 11.4453C3.27104 11.7509 3.23382 12.0679 3.24271 12.3871C3.24014 13.0205 3.49168 13.6285 3.94103 14.075C3.77312 14.4011 3.67419 14.7584 3.6504 15.1245C3.66043 15.4618 3.78083 15.7259 3.9915 15.9326L1.96278 15.9272L0.686523 3.63481H6.53249L7.34713 0.357044C7.37676 0.23342 7.45566 0.127289 7.5655 0.0632931C7.67534 -0.00070288 7.80657 -0.0169968 7.92873 0.0181944V0.0165318L7.98792 0.0368162H7.98992ZM9.81184 13.1452L4.18195 11.6637C4.06183 11.9203 4.00283 12.2031 4.01186 12.4895C4.01186 12.9317 4.23698 13.2606 4.71017 13.6147H16.0206C16.431 13.3458 16.6694 12.8806 16.6481 12.3904C16.6811 12.0993 16.6167 11.8092 16.4703 11.5628L9.81184 13.1452ZM4.69152 14.2941C4.51509 14.5482 4.39658 14.8379 4.34436 15.1427C4.37009 15.9064 6.60042 15.9023 9.51088 15.8969H9.51136H9.51184H9.51234C9.76094 15.8964 10.0145 15.8959 10.2721 15.8959L10.5608 15.896C13.7071 15.8967 16.3155 15.8972 16.3155 15.1427C16.2729 14.8439 16.1738 14.5559 16.0235 14.2941H4.69152ZM16.3155 9.86644C16.3155 10.0567 15.983 10.2854 15.6504 10.2854H5.00942C4.72334 10.2933 4.46075 10.1279 4.34436 9.86644C4.34436 8.24834 7.06813 7.29431 10.3539 7.29431C13.6396 7.29431 16.3155 8.23704 16.3155 9.86644ZM16.1459 10.9505H4.14487L9.84014 12.4512L16.1459 10.9505Z" fill="#9EA0AA"/>
</svg>
