<svg width="16" height="16" viewBox="0 0 16 16" fill="none" xmlns="http://www.w3.org/2000/svg">
<path d="M12.3069 0.616332C12.3071 0.494463 12.2711 0.375273 12.2035 0.273873C12.1359 0.172473 12.0397 0.093429 11.9271 0.0467622C11.8145 9.53857e-05 11.6906 -0.0120928 11.5711 0.0117428C11.4516 0.0355784 11.3419 0.0943643 11.2558 0.180648L8.79431 2.64214C8.7372 2.69939 8.69194 2.76734 8.66111 2.8421C8.63028 2.91685 8.61448 2.99696 8.61462 3.07782V6.51529L7.70264 7.42604C7.5202 7.37763 7.32909 7.37174 7.14401 7.40883C6.95894 7.44592 6.78485 7.525 6.63515 7.63998C6.48546 7.75495 6.36416 7.90276 6.28059 8.072C6.19702 8.24125 6.15341 8.42742 6.15313 8.61617C6.15322 8.79133 6.19068 8.96444 6.26302 9.12396C6.33537 9.28347 6.44093 9.4257 6.57264 9.54115C6.70436 9.6566 6.8592 9.74261 7.02682 9.79342C7.19444 9.84424 7.37098 9.85869 7.54463 9.83581C7.71828 9.81294 7.88505 9.75326 8.03379 9.66077C8.18253 9.56828 8.30981 9.4451 8.40714 9.29948C8.50446 9.15386 8.56958 8.98914 8.59815 8.81633C8.62671 8.64352 8.61806 8.46661 8.57278 8.29741L9.48476 7.38543H12.9222C13.0031 7.38557 13.0832 7.36978 13.158 7.33895C13.2327 7.30811 13.3007 7.26285 13.3579 7.20574L15.8194 4.74425C15.9057 4.65819 15.9645 4.54844 15.9883 4.42892C16.0121 4.30941 16 4.1855 15.9533 4.07292C15.9066 3.96034 15.8276 3.86415 15.7262 3.79655C15.6248 3.72895 15.5056 3.69298 15.3837 3.69319H12.3069V0.616332ZM14.6994 7.6045C14.9112 9.13699 14.6363 10.6973 13.9136 12.0651C13.1909 13.433 12.0568 14.5393 10.6715 15.2279C9.28614 15.9166 7.71952 16.1527 6.19275 15.9031C4.66598 15.6534 3.25618 14.9305 2.16236 13.8365C1.06854 12.7424 0.345941 11.3325 0.0965714 9.80569C-0.152798 8.27887 0.0836555 6.71229 0.772553 5.32709C1.46145 3.94189 2.568 2.80803 3.93599 2.08557C5.30399 1.36312 6.86434 1.08855 8.39678 1.30063L7.92541 1.772C7.75378 1.94341 7.61762 2.14696 7.5247 2.37102C7.43178 2.59508 7.38393 2.83526 7.38388 3.07782C6.2885 3.07782 5.21771 3.40264 4.30694 4.0112C3.39616 4.61976 2.68629 5.48474 2.26711 6.49674C1.84793 7.50874 1.73825 8.62232 1.95195 9.69665C2.16564 10.771 2.69312 11.7578 3.46767 12.5324C4.24223 13.3069 5.22907 13.8344 6.3034 14.0481C7.37774 14.2618 8.49131 14.1521 9.50332 13.7329C10.5153 13.3138 11.3803 12.6039 11.9889 11.6931C12.5974 10.7823 12.9222 9.71156 12.9222 8.61617C13.4117 8.61574 13.8809 8.42096 14.2268 8.07465L14.6994 7.6045V7.6045ZM7.38388 4.30857C6.53192 4.30857 5.69908 4.5612 4.9907 5.03453C4.28232 5.50786 3.7302 6.18061 3.40417 6.96772C3.07814 7.75484 2.99283 8.62095 3.15904 9.45655C3.32525 10.2921 3.73551 11.0597 4.33794 11.6621C4.94037 12.2645 5.70791 12.6748 6.54351 12.841C7.3791 13.0072 8.24522 12.9219 9.03233 12.5959C9.81944 12.2699 10.4922 11.7177 10.9655 11.0094C11.4389 10.301 11.6915 9.46814 11.6915 8.61617H9.99429L9.84045 8.77002C9.81086 9.24284 9.64546 9.69707 9.3641 10.0782C9.08273 10.4594 8.69736 10.7512 8.25423 10.9187C7.8111 11.0863 7.32903 11.1224 6.86589 11.0227C6.40275 10.923 5.97821 10.6918 5.64323 10.3568C5.30824 10.0218 5.07704 9.5973 4.97737 9.13416C4.8777 8.67102 4.91379 8.18896 5.08132 7.74583C5.24886 7.3027 5.5407 6.91732 5.92184 6.63596C6.30298 6.35459 6.75722 6.18919 7.23004 6.15961L7.38388 6.00576V4.30857Z" fill="#6565FB"/>
</svg>
