<svg width="16" height="16" viewBox="0 0 16 16" fill="none" xmlns="http://www.w3.org/2000/svg">
<path d="M10.6667 4.69379C10.6667 6.10764 9.47276 7.25379 8 7.25379C6.52724 7.25379 5.33333 6.10764 5.33333 4.69379C5.33333 3.27994 6.52724 2.13379 8 2.13379C9.47276 2.13379 10.6667 3.27994 10.6667 4.69379Z" fill="currentColor"/>
<path d="M15.1111 6.40046C15.1111 7.34302 14.3152 8.10712 13.3333 8.10712C12.3515 8.10712 11.5556 7.34302 11.5556 6.40046C11.5556 5.45789 12.3515 4.69379 13.3333 4.69379C14.3152 4.69379 15.1111 5.45789 15.1111 6.40046Z" fill="currentColor"/>
<path d="M11.5556 12.3738C11.5556 10.4887 9.96368 8.96046 8 8.96046C6.03632 8.96046 4.44444 10.4887 4.44444 12.3738V14.9338H11.5556V12.3738Z" fill="currentColor"/>
<path d="M4.44444 6.40046C4.44444 7.34302 3.64851 8.10712 2.66667 8.10712C1.68483 8.10712 0.888889 7.34302 0.888889 6.40046C0.888889 5.45789 1.68483 4.69379 2.66667 4.69379C3.64851 4.69379 4.44444 5.45789 4.44444 6.40046Z" fill="currentColor"/>
<path d="M13.3333 14.9338V12.3738C13.3333 11.4743 13.0917 10.6289 12.6673 9.89428C12.8802 9.84173 13.1034 9.81379 13.3333 9.81379C14.8061 9.81379 16 10.9599 16 12.3738V14.9338H13.3333Z" fill="currentColor"/>
<path d="M3.33268 9.89428C2.90831 10.6289 2.66667 11.4743 2.66667 12.3738V14.9338H0V12.3738C0 10.9599 1.19391 9.81379 2.66667 9.81379C2.89663 9.81379 3.11979 9.84173 3.33268 9.89428Z" fill="currentColor"/>
</svg>
