<svg width="24" height="24" viewBox="0 0 24 24" fill="none" xmlns="http://www.w3.org/2000/svg">
<g clip-path="url(#clip0_3763_9542)">
<path d="M14.5 8.9C14.5 10.2255 13.3807 11.3 12 11.3C10.6193 11.3 9.5 10.2255 9.5 8.9C9.5 7.57452 10.6193 6.5 12 6.5C13.3807 6.5 14.5 7.57452 14.5 8.9Z" fill="#0891B2"/>
<path d="M18.6667 10.5C18.6667 11.3837 17.9205 12.1 17 12.1C16.0795 12.1 15.3333 11.3837 15.3333 10.5C15.3333 9.61634 16.0795 8.9 17 8.9C17.9205 8.9 18.6667 9.61634 18.6667 10.5Z" fill="#0891B2"/>
<path d="M15.3333 16.1C15.3333 14.3327 13.8409 12.9 12 12.9C10.1591 12.9 8.66667 14.3327 8.66667 16.1V18.5H15.3333V16.1Z" fill="#0891B2"/>
<path d="M8.66667 10.5C8.66667 11.3837 7.92047 12.1 7 12.1C6.07953 12.1 5.33333 11.3837 5.33333 10.5C5.33333 9.61634 6.07953 8.9 7 8.9C7.92047 8.9 8.66667 9.61634 8.66667 10.5Z" fill="#0891B2"/>
<path d="M17 18.5V16.1C17 15.2567 16.7735 14.4642 16.3756 13.7755C16.5752 13.7262 16.7844 13.7 17 13.7C18.3807 13.7 19.5 14.7745 19.5 16.1V18.5H17Z" fill="#0891B2"/>
<path d="M7.62439 13.7755C7.22654 14.4642 7 15.2567 7 16.1V18.5H4.5V16.1C4.5 14.7745 5.61929 13.7 7 13.7C7.21559 13.7 7.42481 13.7262 7.62439 13.7755Z" fill="#0891B2"/>
</g>
<defs>
<clipPath id="clip0_3763_9542">
<rect width="15" height="15" fill="white" transform="translate(4.5 4.5)"/>
</clipPath>
</defs>
</svg>
