<svg width="17" height="16" viewBox="0 0 17 16" fill="none" xmlns="http://www.w3.org/2000/svg">
<path fill-rule="evenodd" clip-rule="evenodd" d="M3.93977 0H10.9398V3.98967H16.6064V14.9897H15.6065V5H10.9398V6H9.93979V1H4.9398L4.93124 7H1.60645V14.9897H0.606445V5.98967H3.94666L3.93977 0ZM2.60645 7.98967H3.60645V8.98967H2.60645V7.98967ZM8.93979 4H7.93979V5H8.93979V4ZM5.93979 4H6.93979V5H5.93979V4ZM14.6064 5.98967H13.6064V6.98967H14.6064V5.98967ZM13.6064 7.98967H14.6064V8.98967H13.6064V7.98967ZM6.93979 2L5.93979 1.98967V3H6.93979V2ZM7.93979 2H8.93979V3H7.93979V2ZM13.6065 10.6667H12.6064V9.66668C12.5473 7.98619 11.1629 6.65717 9.48145 6.66668H7.73145C6.04994 6.65717 4.66555 7.98619 4.60645 9.66668V10.6667H3.60646C3.23827 10.6667 2.93979 10.9651 2.93979 11.3333V14C2.93979 14.3682 3.23826 14.6667 3.60645 14.6667V16H5.60645V14.6667H11.6064V16H13.6064V14.6667H13.6065C13.9746 14.6667 14.2731 14.3682 14.2731 14V11.3333C14.2731 10.9651 13.9746 10.6667 13.6065 10.6667ZM11.6064 10.6667C11.6064 9.14166 11.6064 7.66666 8.60645 7.66666C5.60645 7.66666 5.60645 9.14332 5.60645 10.6667H11.6064ZM4.75244 11.4063C5.16666 11.4063 5.50244 11.7421 5.50244 12.1563C5.50244 12.5706 5.16666 12.9063 4.75244 12.9063C4.33823 12.9063 4.00244 12.5706 4.00244 12.1563C4.00244 11.7421 4.33823 11.4063 4.75244 11.4063ZM13.1901 12.1563C13.1901 11.7421 12.8543 11.4063 12.4401 11.4063H12.4398C12.0257 11.4065 11.6901 11.7423 11.6901 12.1563C11.6901 12.5706 12.0259 12.9063 12.4401 12.9063C12.8543 12.9063 13.1901 12.5706 13.1901 12.1563ZM13.6064 13.3333V13.9897H3.60645V13.3333H6.10645V13.323C6.10645 13.1389 6.25568 12.9897 6.43978 12.9897H10.7731C10.9572 12.9897 11.1064 13.1389 11.1064 13.323V13.3333H13.6064Z" fill="#9EA0AA"/>
</svg>
