<svg width="16" height="17" viewBox="0 0 16 17" fill="none" xmlns="http://www.w3.org/2000/svg">
<path d="M10.75 15.4909V16.2409H12.25V15.4909H10.75ZM0.75 15.4909V16.2409H2.25V15.4909H0.75ZM8.5 10.4941L8.5 11.2441L8.5 10.4941ZM4.5 10.4941L4.5 9.74414H4.5L4.5 10.4941ZM8.75 4.49804C8.75 5.73929 7.74325 6.74609 6.5 6.74609V8.24609C8.57075 8.24609 10.25 6.56864 10.25 4.49804H8.75ZM6.5 6.74609C5.25675 6.74609 4.25 5.73929 4.25 4.49804H2.75C2.75 6.56864 4.42925 8.24609 6.5 8.24609V6.74609ZM4.25 4.49804C4.25 3.2568 5.25675 2.25 6.5 2.25V0.75C4.42925 0.75 2.75 2.42745 2.75 4.49804H4.25ZM6.5 2.25C7.74325 2.25 8.75 3.2568 8.75 4.49804H10.25C10.25 2.42745 8.57075 0.75 6.5 0.75V2.25ZM2.25 15.4909C2.25 15.4895 2.25 15.4881 2.25 15.4867C2.25 15.4853 2.25 15.4839 2.25 15.4826C2.25 15.4812 2.25 15.4798 2.25 15.4784C2.25 15.477 2.25 15.4756 2.25 15.4742C2.25 15.4729 2.25 15.4715 2.25 15.4701C2.25 15.4687 2.25 15.4673 2.25 15.4659C2.25 15.4645 2.25 15.4632 2.25 15.4618C2.25 15.4604 2.25 15.459 2.25 15.4576C2.25 15.4562 2.25 15.4549 2.25 15.4535C2.25 15.4521 2.25 15.4507 2.25 15.4493C2.25 15.4479 2.25 15.4465 2.25 15.4452C2.25 15.4438 2.25 15.4424 2.25 15.441C2.25 15.4396 2.25 15.4382 2.25 15.4369C2.25 15.4355 2.25 15.4341 2.25 15.4327C2.25 15.4313 2.25 15.4299 2.25 15.4286C2.25 15.4272 2.25 15.4258 2.25 15.4244C2.25 15.423 2.25 15.4217 2.25 15.4203C2.25 15.4189 2.25 15.4175 2.25 15.4161C2.25 15.4147 2.25 15.4134 2.25 15.412C2.25 15.4106 2.25 15.4092 2.25 15.4078C2.25 15.4065 2.25 15.4051 2.25 15.4037C2.25 15.4023 2.25 15.4009 2.25 15.3995C2.25 15.3982 2.25 15.3968 2.25 15.3954C2.25 15.394 2.25 15.3926 2.25 15.3913C2.25 15.3899 2.25 15.3885 2.25 15.3871C2.25 15.3857 2.25 15.3844 2.25 15.383C2.25 15.3816 2.25 15.3802 2.25 15.3788C2.25 15.3775 2.25 15.3761 2.25 15.3747C2.25 15.3733 2.25 15.3719 2.25 15.3706C2.25 15.3692 2.25 15.3678 2.25 15.3664C2.25 15.3651 2.25 15.3637 2.25 15.3623C2.25 15.3609 2.25 15.3595 2.25 15.3582C2.25 15.3568 2.25 15.3554 2.25 15.354C2.25 15.3526 2.25 15.3513 2.25 15.3499C2.25 15.3485 2.25 15.3471 2.25 15.3458C2.25 15.3444 2.25 15.343 2.25 15.3416C2.25 15.3403 2.25 15.3389 2.25 15.3375C2.25 15.3361 2.25 15.3347 2.25 15.3334C2.25 15.332 2.25 15.3306 2.25 15.3292C2.25 15.3279 2.25 15.3265 2.25 15.3251C2.25 15.3237 2.25 15.3224 2.25 15.321C2.25 15.3196 2.25 15.3182 2.25 15.3169C2.25 15.3155 2.25 15.3141 2.25 15.3127C2.25 15.3114 2.25 15.31 2.25 15.3086C2.25 15.3072 2.25 15.3059 2.25 15.3045C2.25 15.3031 2.25 15.3017 2.25 15.3004C2.25 15.299 2.25 15.2976 2.25 15.2962C2.25 15.2949 2.25 15.2935 2.25 15.2921C2.25 15.2907 2.25 15.2894 2.25 15.288C2.25 15.2866 2.25 15.2852 2.25 15.2839C2.25 15.2825 2.25 15.2811 2.25 15.2798C2.25 15.2784 2.25 15.277 2.25 15.2756C2.25 15.2743 2.25 15.2729 2.25 15.2715C2.25 15.2702 2.25 15.2688 2.25 15.2674C2.25 15.266 2.25 15.2647 2.25 15.2633C2.25 15.2619 2.25 15.2605 2.25 15.2592C2.25 15.2578 2.25 15.2564 2.25 15.2551C2.25 15.2537 2.25 15.2523 2.25 15.2509C2.25 15.2496 2.25 15.2482 2.25 15.2468C2.25 15.2455 2.25 15.2441 2.25 15.2427C2.25 15.2414 2.25 15.24 2.25 15.2386C2.25 15.2372 2.25 15.2359 2.25 15.2345C2.25 15.2331 2.25 15.2318 2.25 15.2304C2.25 15.229 2.25 15.2277 2.25 15.2263C2.25 15.2249 2.25 15.2236 2.25 15.2222C2.25 15.2208 2.25 15.2194 2.25 15.2181C2.25 15.2167 2.25 15.2153 2.25 15.214C2.25 15.2126 2.25 15.2112 2.25 15.2099C2.25 15.2085 2.25 15.2071 2.25 15.2058C2.25 15.2044 2.25 15.203 2.25 15.2017C2.25 15.2003 2.25 15.1989 2.25 15.1976C2.25 15.1962 2.25 15.1948 2.25 15.1935C2.25 15.1921 2.25 15.1907 2.25 15.1894C2.25 15.188 2.25 15.1866 2.25 15.1853C2.25 15.1839 2.25 15.1825 2.25 15.1812C2.25 15.1798 2.25 15.1784 2.25 15.1771C2.25 15.1757 2.25 15.1743 2.25 15.173C2.25 15.1716 2.25 15.1702 2.25 15.1689C2.25 15.1675 2.25 15.1661 2.25 15.1648C2.25 15.1634 2.25 15.1621 2.25 15.1607C2.25 15.1593 2.25 15.158 2.25 15.1566C2.25 15.1552 2.25 15.1539 2.25 15.1525C2.25 15.1511 2.25 15.1498 2.25 15.1484C2.25 15.1471 2.25 15.1457 2.25 15.1443C2.25 15.143 2.25 15.1416 2.25 15.1402C2.25 15.1389 2.25 15.1375 2.25 15.1361C2.25 15.1348 2.25 15.1334 2.25 15.1321C2.25 15.1307 2.25 15.1293 2.25 15.128C2.25 15.1266 2.25 15.1253 2.25 15.1239C2.25 15.1225 2.25 15.1212 2.25 15.1198C2.25 15.1184 2.25 15.1171 2.25 15.1157C2.25 15.1144 2.25 15.113 2.25 15.1116C2.25 15.1103 2.25 15.1089 2.25 15.1076C2.25 15.1062 2.25 15.1048 2.25 15.1035C2.25 15.1021 2.25 15.1008 2.25 15.0994C2.25 15.098 2.25 15.0967 2.25 15.0953C2.25 15.094 2.25 15.0926 2.25 15.0912C2.25 15.0899 2.25 15.0885 2.25 15.0872C2.25 15.0858 2.25 15.0844 2.25 15.0831C2.25 15.0817 2.25 15.0804 2.25 15.079C2.25 15.0777 2.25 15.0763 2.25 15.0749C2.25 15.0736 2.25 15.0722 2.25 15.0709C2.25 15.0695 2.25 15.0681 2.25 15.0668C2.25 15.0654 2.25 15.0641 2.25 15.0627C2.25 15.0614 2.25 15.06 2.25 15.0586C2.25 15.0573 2.25 15.0559 2.25 15.0546C2.25 15.0532 2.25 15.0519 2.25 15.0505C2.25 15.0492 2.25 15.0478 2.25 15.0464C2.25 15.0451 2.25 15.0437 2.25 15.0424C2.25 15.041 2.25 15.0397 2.25 15.0383C2.25 15.037 2.25 15.0356 2.25 15.0342C2.25 15.0329 2.25 15.0315 2.25 15.0302C2.25 15.0288 2.25 15.0275 2.25 15.0261C2.25 15.0248 2.25 15.0234 2.25 15.0221C2.25 15.0207 2.25 15.0193 2.25 15.018C2.25 15.0166 2.25 15.0153 2.25 15.0139C2.25 15.0126 2.25 15.0112 2.25 15.0099C2.25 15.0085 2.25 15.0072 2.25 15.0058C2.25 15.0045 2.25 15.0031 2.25 15.0018C2.25 15.0004 2.25 14.9991 2.25 14.9977C2.25 14.9963 2.25 14.995 2.25 14.9936C2.25 14.9923 2.25 14.9909 2.25 14.9896C2.25 14.9882 2.25 14.9869 2.25 14.9855C2.25 14.9842 2.25 14.9828 2.25 14.9815C2.25 14.9801 2.25 14.9788 2.25 14.9774C2.25 14.9761 2.25 14.9747 2.25 14.9734C2.25 14.972 2.25 14.9707 2.25 14.9693C2.25 14.968 2.25 14.9666 2.25 14.9653C2.25 14.9639 2.25 14.9626 2.25 14.9612C2.25 14.9599 2.25 14.9585 2.25 14.9572C2.25 14.9558 2.25 14.9545 2.25 14.9531C2.25 14.9518 2.25 14.9504 2.25 14.9491C2.25 14.9477 2.25 14.9464 2.25 14.9451C2.25 14.9437 2.25 14.9424 2.25 14.941C2.25 14.9397 2.25 14.9383 2.25 14.937C2.25 14.9356 2.25 14.9343 2.25 14.9329C2.25 14.9316 2.25 14.9302 2.25 14.9289C2.25 14.9275 2.25 14.9262 2.25 14.9248C2.25 14.9235 2.25 14.9222 2.25 14.9208C2.25 14.9195 2.25 14.9181 2.25 14.9168C2.25 14.9154 2.25 14.9141 2.25 14.9127C2.25 14.9114 2.25 14.91 2.25 14.9087C2.25 14.9074 2.25 14.906 2.25 14.9047C2.25 14.9033 2.25 14.902 2.25 14.9006C2.25 14.8993 2.25 14.8979 2.25 14.8966C2.25 14.8953 2.25 14.8939 2.25 14.8926C2.25 14.8912 2.25 14.8899 2.25 14.8885C2.25 14.8872 2.25 14.8858 2.25 14.8845C2.25 14.8832 2.25 14.8818 2.25 14.8805C2.25 14.8791 2.25 14.8778 2.25 14.8764C2.25 14.8751 2.25 14.8738 2.25 14.8724C2.25 14.8711 2.25 14.8697 2.25 14.8684C2.25 14.8671 2.25 14.8657 2.25 14.8644C2.25 14.863 2.25 14.8617 2.25 14.8603C2.25 14.859 2.25 14.8577 2.25 14.8563C2.25 14.855 2.25 14.8536 2.25 14.8523C2.25 14.851 2.25 14.8496 2.25 14.8483C2.25 14.8469 2.25 14.8456 2.25 14.8443C2.25 14.8429 2.25 14.8416 2.25 14.8402C2.25 14.8389 2.25 14.8376 2.25 14.8362C2.25 14.8349 2.25 14.8335 2.25 14.8322C2.25 14.8309 2.25 14.8295 2.25 14.8282C2.25 14.8269 2.25 14.8255 2.25 14.8242C2.25 14.8228 2.25 14.8215 2.25 14.8202C2.25 14.8188 2.25 14.8175 2.25 14.8162C2.25 14.8148 2.25 14.8135 2.25 14.8121C2.25 14.8108 2.25 14.8095 2.25 14.8081C2.25 14.8068 2.25 14.8055 2.25 14.8041C2.25 14.8028 2.25 14.8014 2.25 14.8001C2.25 14.7988 2.25 14.7974 2.25 14.7961C2.25 14.7948 2.25 14.7934 2.25 14.7921C2.25 14.7908 2.25 14.7894 2.25 14.7881C2.25 14.7868 2.25 14.7854 2.25 14.7841C2.25 14.7828 2.25 14.7814 2.25 14.7801C2.25 14.7788 2.25 14.7774 2.25 14.7761C2.25 14.7747 2.25 14.7734 2.25 14.7721C2.25 14.7707 2.25 14.7694 2.25 14.7681C2.25 14.7667 2.25 14.7654 2.25 14.7641C2.25 14.7627 2.25 14.7614 2.25 14.7601C2.25 14.7588 2.25 14.7574 2.25 14.7561C2.25 14.7548 2.25 14.7534 2.25 14.7521C2.25 14.7508 2.25 14.7494 2.25 14.7481C2.25 14.7468 2.25 14.7454 2.25 14.7441C2.25 14.7428 2.25 14.7414 2.25 14.7401C2.25 14.7388 2.25 14.7374 2.25 14.7361C2.25 14.7348 2.25 14.7335 2.25 14.7321C2.25 14.7308 2.25 14.7295 2.25 14.7281C2.25 14.7268 2.25 14.7255 2.25 14.7241C2.25 14.7228 2.25 14.7215 2.25 14.7202C2.25 14.7188 2.25 14.7175 2.25 14.7162C2.25 14.7148 2.25 14.7135 2.25 14.7122C2.25 14.7109 2.25 14.7095 2.25 14.7082C2.25 14.7069 2.25 14.7055 2.25 14.7042C2.25 14.7029 2.25 14.7016 2.25 14.7002C2.25 14.6989 2.25 14.6976 2.25 14.6962C2.25 14.6949 2.25 14.6936 2.25 14.6923C2.25 14.6909 2.25 14.6896 2.25 14.6883C2.25 14.687 2.25 14.6856 2.25 14.6843C2.25 14.683 2.25 14.6817 2.25 14.6803C2.25 14.679 2.25 14.6777 2.25 14.6764C2.25 14.675 2.25 14.6737 2.25 14.6724C2.25 14.6711 2.25 14.6697 2.25 14.6684C2.25 14.6671 2.25 14.6658 2.25 14.6644C2.25 14.6631 2.25 14.6618 2.25 14.6605C2.25 14.6591 2.25 14.6578 2.25 14.6565C2.25 14.6552 2.25 14.6538 2.25 14.6525C2.25 14.6512 2.25 14.6499 2.25 14.6485C2.25 14.6472 2.25 14.6459 2.25 14.6446C2.25 14.6433 2.25 14.6419 2.25 14.6406C2.25 14.6393 2.25 14.638 2.25 14.6366C2.25 14.6353 2.25 14.634 2.25 14.6327C2.25 14.6314 2.25 14.63 2.25 14.6287C2.25 14.6274 2.25 14.6261 2.25 14.6248C2.25 14.6234 2.25 14.6221 2.25 14.6208C2.25 14.6195 2.25 14.6182 2.25 14.6168C2.25 14.6155 2.25 14.6142 2.25 14.6129C2.25 14.6116 2.25 14.6102 2.25 14.6089C2.25 14.6076 2.25 14.6063 2.25 14.605C2.25 14.6036 2.25 14.6023 2.25 14.601C2.25 14.5997 2.25 14.5984 2.25 14.597C2.25 14.5957 2.25 14.5944 2.25 14.5931C2.25 14.5918 2.25 14.5905 2.25 14.5891C2.25 14.5878 2.25 14.5865 2.25 14.5852C2.25 14.5839 2.25 14.5826 2.25 14.5812C2.25 14.5799 2.25 14.5786 2.25 14.5773C2.25 14.576 2.25 14.5747 2.25 14.5733C2.25 14.572 2.25 14.5707 2.25 14.5694C2.25 14.5681 2.25 14.5668 2.25 14.5654C2.25 14.5641 2.25 14.5628 2.25 14.5615C2.25 14.5602 2.25 14.5589 2.25 14.5576C2.25 14.5562 2.25 14.5549 2.25 14.5536C2.25 14.5523 2.25 14.551 2.25 14.5497C2.25 14.5484 2.25 14.547 2.25 14.5457C2.25 14.5444 2.25 14.5431 2.25 14.5418C2.25 14.5405 2.25 14.5392 2.25 14.5378C2.25 14.5365 2.25 14.5352 2.25 14.5339C2.25 14.5326 2.25 14.5313 2.25 14.53C2.25 14.5287 2.25 14.5273 2.25 14.526C2.25 14.5247 2.25 14.5234 2.25 14.5221C2.25 14.5208 2.25 14.5195 2.25 14.5182C2.25 14.5169 2.25 14.5155 2.25 14.5142C2.25 14.5129 2.25 14.5116 2.25 14.5103C2.25 14.509 2.25 14.5077 2.25 14.5064C2.25 14.5051 2.25 14.5038 2.25 14.5024C2.25 14.5011 2.25 14.4998 2.25 14.4985C2.25 14.4972 2.25 14.4959 2.25 14.4946C2.25 14.4933 2.25 14.492 2.25 14.4907C2.25 14.4894 2.25 14.488 2.25 14.4867C2.25 14.4854 2.25 14.4841 2.25 14.4828C2.25 14.4815 2.25 14.4802 2.25 14.4789C2.25 14.4776 2.25 14.4763 2.25 14.475C2.25 14.4737 2.25 14.4724 2.25 14.471C2.25 14.4697 2.25 14.4684 2.25 14.4671C2.25 14.4658 2.25 14.4645 2.25 14.4632C2.25 14.4619 2.25 14.4606 2.25 14.4593C2.25 14.458 2.25 14.4567 2.25 14.4554C2.25 14.4541 2.25 14.4528 2.25 14.4515C2.25 14.4502 2.25 14.4489 2.25 14.4476C2.25 14.4462 2.25 14.4449 2.25 14.4436C2.25 14.4423 2.25 14.441 2.25 14.4397C2.25 14.4384 2.25 14.4371 2.25 14.4358C2.25 14.4345 2.25 14.4332 2.25 14.4319C2.25 14.4306 2.25 14.4293 2.25 14.428C2.25 14.4267 2.25 14.4254 2.25 14.4241C2.25 14.4228 2.25 14.4215 2.25 14.4202C2.25 14.4189 2.25 14.4176 2.25 14.4163C2.25 14.415 2.25 14.4137 2.25 14.4124C2.25 14.4111 2.25 14.4098 2.25 14.4085C2.25 14.4072 2.25 14.4059 2.25 14.4046C2.25 14.4033 2.25 14.402 2.25 14.4007C2.25 14.3994 2.25 14.3981 2.25 14.3968C2.25 14.3955 2.25 14.3942 2.25 14.3929C2.25 14.3916 2.25 14.3903 2.25 14.389C2.25 14.3877 2.25 14.3864 2.25 14.3851C2.25 14.3838 2.25 14.3825 2.25 14.3812C2.25 14.3799 2.25 14.3786 2.25 14.3773C2.25 14.376 2.25 14.3747 2.25 14.3734C2.25 14.3721 2.25 14.3708 2.25 14.3695C2.25 14.3682 2.25 14.3669 2.25 14.3656C2.25 14.3643 2.25 14.363 2.25 14.3617C2.25 14.3604 2.25 14.3592 2.25 14.3579C2.25 14.3566 2.25 14.3553 2.25 14.354C2.25 14.3527 2.25 14.3514 2.25 14.3501C2.25 14.3488 2.25 14.3475 2.25 14.3462C2.25 14.3449 2.25 14.3436 2.25 14.3423C2.25 14.341 2.25 14.3397 2.25 14.3384C2.25 14.3371 2.25 14.3358 2.25 14.3346C2.25 14.3333 2.25 14.332 2.25 14.3307C2.25 14.3294 2.25 14.3281 2.25 14.3268C2.25 14.3255 2.25 14.3242 2.25 14.3229C2.25 14.3216 2.25 14.3203 2.25 14.319C2.25 14.3178 2.25 14.3165 2.25 14.3152C2.25 14.3139 2.25 14.3126 2.25 14.3113C2.25 14.31 2.25 14.3087 2.25 14.3074C2.25 14.3061 2.25 14.3048 2.25 14.3036C2.25 14.3023 2.25 14.301 2.25 14.2997C2.25 14.2984 2.25 14.2971 2.25 14.2958C2.25 14.2945 2.25 14.2932 2.25 14.292C2.25 14.2907 2.25 14.2894 2.25 14.2881C2.25 14.2868 2.25 14.2855 2.25 14.2842C2.25 14.2829 2.25 14.2816 2.25 14.2804C2.25 14.2791 2.25 14.2778 2.25 14.2765C2.25 14.2752 2.25 14.2739 2.25 14.2726C2.25 14.2713 2.25 14.2701 2.25 14.2688C2.25 14.2675 2.25 14.2662 2.25 14.2649C2.25 14.2636 2.25 14.2623 2.25 14.2611C2.25 14.2598 2.25 14.2585 2.25 14.2572C2.25 14.2559 2.25 14.2546 2.25 14.2533C2.25 14.2521 2.25 14.2508 2.25 14.2495C2.25 14.2482 2.25 14.2469 2.25 14.2456C2.25 14.2444 2.25 14.2431 2.25 14.2418C2.25 14.2405 2.25 14.2392 2.25 14.2379C2.25 14.2366 2.25 14.2354 2.25 14.2341C2.25 14.2328 2.25 14.2315 2.25 14.2302C2.25 14.229 2.25 14.2277 2.25 14.2264C2.25 14.2251 2.25 14.2238 2.25 14.2225C2.25 14.2213 2.25 14.22 2.25 14.2187C2.25 14.2174 2.25 14.2161 2.25 14.2149C2.25 14.2136 2.25 14.2123 2.25 14.211C2.25 14.2097 2.25 14.2085 2.25 14.2072C2.25 14.2059 2.25 14.2046 2.25 14.2033C2.25 14.2021 2.25 14.2008 2.25 14.1995C2.25 14.1982 2.25 14.1969 2.25 14.1957C2.25 14.1944 2.25 14.1931 2.25 14.1918C2.25 14.1905 2.25 14.1893 2.25 14.188C2.25 14.1867 2.25 14.1854 2.25 14.1841C2.25 14.1829 2.25 14.1816 2.25 14.1803C2.25 14.179 2.25 14.1778 2.25 14.1765C2.25 14.1752 2.25 14.1739 2.25 14.1727C2.25 14.1714 2.25 14.1701 2.25 14.1688C2.25 14.1676 2.25 14.1663 2.25 14.165C2.25 14.1637 2.25 14.1624 2.25 14.1612C2.25 14.1599 2.25 14.1586 2.25 14.1573C2.25 14.1561 2.25 14.1548 2.25 14.1535C2.25 14.1522 2.25 14.151 2.25 14.1497C2.25 14.1484 2.25 14.1472 2.25 14.1459C2.25 14.1446 2.25 14.1433 2.25 14.1421C2.25 14.1408 2.25 14.1395 2.25 14.1382C2.25 14.137 2.25 14.1357 2.25 14.1344C2.25 14.1331 2.25 14.1319 2.25 14.1306C2.25 14.1293 2.25 14.1281 2.25 14.1268C2.25 14.1255 2.25 14.1242 2.25 14.123C2.25 14.1217 2.25 14.1204 2.25 14.1192C2.25 14.1179 2.25 14.1166 2.25 14.1154C2.25 14.1141 2.25 14.1128 2.25 14.1115C2.25 14.1103 2.25 14.109 2.25 14.1077C2.25 14.1065 2.25 14.1052 2.25 14.1039C2.25 14.1027 2.25 14.1014 2.25 14.1001C2.25 14.0988 2.25 14.0976 2.25 14.0963C2.25 14.095 2.25 14.0938 2.25 14.0925C2.25 14.0912 2.25 14.09 2.25 14.0887C2.25 14.0874 2.25 14.0862 2.25 14.0849C2.25 14.0836 2.25 14.0824 2.25 14.0811C2.25 14.0798 2.25 14.0786 2.25 14.0773C2.25 14.076 2.25 14.0748 2.25 14.0735C2.25 14.0722 2.25 14.071 2.25 14.0697C2.25 14.0684 2.25 14.0672 2.25 14.0659C2.25 14.0646 2.25 14.0634 2.25 14.0621C2.25 14.0609 2.25 14.0596 2.25 14.0583C2.25 14.0571 2.25 14.0558 2.25 14.0545C2.25 14.0533 2.25 14.052 2.25 14.0507C2.25 14.0495 2.25 14.0482 2.25 14.047C2.25 14.0457 2.25 14.0444 2.25 14.0432C2.25 14.0419 2.25 14.0406 2.25 14.0394C2.25 14.0381 2.25 14.0369 2.25 14.0356C2.25 14.0343 2.25 14.0331 2.25 14.0318C2.25 14.0305 2.25 14.0293 2.25 14.028C2.25 14.0268 2.25 14.0255 2.25 14.0242C2.25 14.023 2.25 14.0217 2.25 14.0205C2.25 14.0192 2.25 14.0179 2.25 14.0167C2.25 14.0154 2.25 14.0142 2.25 14.0129C2.25 14.0116 2.25 14.0104 2.25 14.0091C2.25 14.0079 2.25 14.0066 2.25 14.0054C2.25 14.0041 2.25 14.0028 2.25 14.0016C2.25 14.0003 2.25 13.9991 2.25 13.9978C2.25 13.9966 2.25 13.9953 2.25 13.994C2.25 13.9928 2.25 13.9915 2.25 13.9903C2.25 13.989 2.25 13.9878 2.25 13.9865C2.25 13.9852 2.25 13.984 2.25 13.9827C2.25 13.9815 2.25 13.9802 2.25 13.979C2.25 13.9777 2.25 13.9765 2.25 13.9752C2.25 13.9739 2.25 13.9727 2.25 13.9714C2.25 13.9702 2.25 13.9689 2.25 13.9677C2.25 13.9664 2.25 13.9652 2.25 13.9639C2.25 13.9627 2.25 13.9614 2.25 13.9602C2.25 13.9589 2.25 13.9576 2.25 13.9564C2.25 13.9551 2.25 13.9539 2.25 13.9526C2.25 13.9514 2.25 13.9501 2.25 13.9489C2.25 13.9476 2.25 13.9464 2.25 13.9451C2.25 13.9439 2.25 13.9426 2.25 13.9414C2.25 13.9401 2.25 13.9389 2.25 13.9376C2.25 13.9364 2.25 13.9351 2.25 13.9339C2.25 13.9326 2.25 13.9314 2.25 13.9301C2.25 13.9289 2.25 13.9276 2.25 13.9264C2.25 13.9251 2.25 13.9239 2.25 13.9226C2.25 13.9214 2.25 13.9201 2.25 13.9189C2.25 13.9176 2.25 13.9164 2.25 13.9151C2.25 13.9139 2.25 13.9126 2.25 13.9114C2.25 13.9101 2.25 13.9089 2.25 13.9077C2.25 13.9064 2.25 13.9052 2.25 13.9039C2.25 13.9027 2.25 13.9014 2.25 13.9002C2.25 13.8989 2.25 13.8977 2.25 13.8964C2.25 13.8952 2.25 13.8939 2.25 13.8927C2.25 13.8915 2.25 13.8902 2.25 13.889C2.25 13.8877 2.25 13.8865 2.25 13.8852C2.25 13.884 2.25 13.8827 2.25 13.8815C2.25 13.8803 2.25 13.879 2.25 13.8778C2.25 13.8765 2.25 13.8753 2.25 13.874C2.25 13.8728 2.25 13.8716 2.25 13.8703C2.25 13.8691 2.25 13.8678 2.25 13.8666C2.25 13.8653 2.25 13.8641 2.25 13.8629C2.25 13.8616 2.25 13.8604 2.25 13.8591C2.25 13.8579 2.25 13.8567 2.25 13.8554C2.25 13.8542 2.25 13.8529 2.25 13.8517C2.25 13.8504 2.25 13.8492 2.25 13.848C2.25 13.8467 2.25 13.8455 2.25 13.8442C2.25 13.843 2.25 13.8418 2.25 13.8405C2.25 13.8393 2.25 13.8381 2.25 13.8368C2.25 13.8356 2.25 13.8343 2.25 13.8331C2.25 13.8319 2.25 13.8306 2.25 13.8294C2.25 13.8281 2.25 13.8269 2.25 13.8257C2.25 13.8244 2.25 13.8232 2.25 13.822C2.25 13.8207 2.25 13.8195 2.25 13.8183C2.25 13.817 2.25 13.8158 2.25 13.8145C2.25 13.8133 2.25 13.8121 2.25 13.8108C2.25 13.8096 2.25 13.8084 2.25 13.8071C2.25 13.8059 2.25 13.8047 2.25 13.8034C2.25 13.8022 2.25 13.801 2.25 13.7997C2.25 13.7985 2.25 13.7973 2.25 13.796C2.25 13.7948 2.25 13.7936 2.25 13.7923C2.25 13.7911 2.25 13.7899 2.25 13.7886C2.25 13.7874 2.25 13.7862 2.25 13.7849C2.25 13.7837 2.25 13.7825 2.25 13.7812C2.25 13.78 2.25 13.7788 2.25 13.7775C2.25 13.7763 2.25 13.7751 2.25 13.7738C2.25 13.7726 2.25 13.7714 2.25 13.7702C2.25 13.7689 2.25 13.7677 2.25 13.7665C2.25 13.7652 2.25 13.764 2.25 13.7628C2.25 13.7615 2.25 13.7603 2.25 13.7591C2.25 13.7579 2.25 13.7566 2.25 13.7554C2.25 13.7542 2.25 13.7529 2.25 13.7517C2.25 13.7505 2.25 13.7493 2.25 13.748C2.25 13.7468 2.25 13.7456 2.25 13.7443C2.25 13.7431 2.25 13.7419 2.25 13.7407C2.25 13.7394 2.25 13.7382 2.25 13.737C2.25 13.7358 2.25 13.7345 2.25 13.7333C2.25 13.7321 2.25 13.7309 2.25 13.7296C2.25 13.7284 2.25 13.7272 2.25 13.726C2.25 13.7247 2.25 13.7235 2.25 13.7223C2.25 13.7211 2.25 13.7198 2.25 13.7186C2.25 13.7174 2.25 13.7162 2.25 13.7149C2.25 13.7137 2.25 13.7125 2.25 13.7113C2.25 13.71 2.25 13.7088 2.25 13.7076C2.25 13.7064 2.25 13.7051 2.25 13.7039C2.25 13.7027 2.25 13.7015 2.25 13.7003C2.25 13.699 2.25 13.6978 2.25 13.6966C2.25 13.6954 2.25 13.6942 2.25 13.6929C2.25 13.6917 2.25 13.6905 2.25 13.6893C2.25 13.6881 2.25 13.6868 2.25 13.6856C2.25 13.6844 2.25 13.6832 2.25 13.682C2.25 13.6807 2.25 13.6795 2.25 13.6783C2.25 13.6771 2.25 13.6759 2.25 13.6746C2.25 13.6734 2.25 13.6722 2.25 13.671C2.25 13.6698 2.25 13.6685 2.25 13.6673C2.25 13.6661 2.25 13.6649 2.25 13.6637C2.25 13.6625 2.25 13.6612 2.25 13.66C2.25 13.6588 2.25 13.6576 2.25 13.6564C2.25 13.6552 2.25 13.6539 2.25 13.6527C2.25 13.6515 2.25 13.6503 2.25 13.6491C2.25 13.6479 2.25 13.6467 2.25 13.6454C2.25 13.6442 2.25 13.643 2.25 13.6418C2.25 13.6406 2.25 13.6394 2.25 13.6382C2.25 13.6369 2.25 13.6357 2.25 13.6345C2.25 13.6333 2.25 13.6321 2.25 13.6309C2.25 13.6297 2.25 13.6284 2.25 13.6272C2.25 13.626 2.25 13.6248 2.25 13.6236C2.25 13.6224 2.25 13.6212 2.25 13.62C2.25 13.6187 2.25 13.6175 2.25 13.6163C2.25 13.6151 2.25 13.6139 2.25 13.6127C2.25 13.6115 2.25 13.6103 2.25 13.6091C2.25 13.6079 2.25 13.6066 2.25 13.6054C2.25 13.6042 2.25 13.603 2.25 13.6018C2.25 13.6006 2.25 13.5994 2.25 13.5982C2.25 13.597 2.25 13.5958 2.25 13.5946C2.25 13.5933 2.25 13.5921 2.25 13.5909C2.25 13.5897 2.25 13.5885 2.25 13.5873C2.25 13.5861 2.25 13.5849 2.25 13.5837C2.25 13.5825 2.25 13.5813 2.25 13.5801C2.25 13.5789 2.25 13.5777 2.25 13.5764C2.25 13.5752 2.25 13.574 2.25 13.5728C2.25 13.5716 2.25 13.5704 2.25 13.5692C2.25 13.568 2.25 13.5668 2.25 13.5656C2.25 13.5644 2.25 13.5632 2.25 13.562C2.25 13.5608 2.25 13.5596 2.25 13.5584C2.25 13.5572 2.25 13.556 2.25 13.5548C2.25 13.5536 2.25 13.5524 2.25 13.5512C2.25 13.55 2.25 13.5488 2.25 13.5476C2.25 13.5464 2.25 13.5451 2.25 13.5439C2.25 13.5427 2.25 13.5415 2.25 13.5403C2.25 13.5391 2.25 13.5379 2.25 13.5367C2.25 13.5355 2.25 13.5343 2.25 13.5331C2.25 13.5319 2.25 13.5307 2.25 13.5295C2.25 13.5283 2.25 13.5271 2.25 13.5259C2.25 13.5247 2.25 13.5235 2.25 13.5223C2.25 13.5211 2.25 13.5199 2.25 13.5188C2.25 13.5176 2.25 13.5164 2.25 13.5152C2.25 13.514 2.25 13.5128 2.25 13.5116C2.25 13.5104 2.25 13.5092 2.25 13.508C2.25 13.5068 2.25 13.5056 2.25 13.5044C2.25 13.5032 2.25 13.502 2.25 13.5008C2.25 13.4996 2.25 13.4984 2.25 13.4972C2.25 13.496 2.25 13.4948 2.25 13.4936H0.75C0.75 13.4948 0.75 13.496 0.75 13.4972C0.75 13.4984 0.75 13.4996 0.75 13.5008C0.75 13.502 0.75 13.5032 0.75 13.5044C0.75 13.5056 0.75 13.5068 0.75 13.508C0.75 13.5092 0.75 13.5104 0.75 13.5116C0.75 13.5128 0.75 13.514 0.75 13.5152C0.75 13.5164 0.75 13.5176 0.75 13.5188C0.75 13.5199 0.75 13.5211 0.75 13.5223C0.75 13.5235 0.75 13.5247 0.75 13.5259C0.75 13.5271 0.75 13.5283 0.75 13.5295C0.75 13.5307 0.75 13.5319 0.75 13.5331C0.75 13.5343 0.75 13.5355 0.75 13.5367C0.75 13.5379 0.75 13.5391 0.75 13.5403C0.75 13.5415 0.75 13.5427 0.75 13.5439C0.75 13.5451 0.75 13.5464 0.75 13.5476C0.75 13.5488 0.75 13.55 0.75 13.5512C0.75 13.5524 0.75 13.5536 0.75 13.5548C0.75 13.556 0.75 13.5572 0.75 13.5584C0.75 13.5596 0.75 13.5608 0.75 13.562C0.75 13.5632 0.75 13.5644 0.75 13.5656C0.75 13.5668 0.75 13.568 0.75 13.5692C0.75 13.5704 0.75 13.5716 0.75 13.5728C0.75 13.574 0.75 13.5752 0.75 13.5764C0.75 13.5777 0.75 13.5789 0.75 13.5801C0.75 13.5813 0.75 13.5825 0.75 13.5837C0.75 13.5849 0.75 13.5861 0.75 13.5873C0.75 13.5885 0.75 13.5897 0.75 13.5909C0.75 13.5921 0.75 13.5933 0.75 13.5946C0.75 13.5958 0.75 13.597 0.75 13.5982C0.75 13.5994 0.75 13.6006 0.75 13.6018C0.75 13.603 0.75 13.6042 0.75 13.6054C0.75 13.6066 0.75 13.6079 0.75 13.6091C0.75 13.6103 0.75 13.6115 0.75 13.6127C0.75 13.6139 0.75 13.6151 0.75 13.6163C0.75 13.6175 0.75 13.6187 0.75 13.62C0.75 13.6212 0.75 13.6224 0.75 13.6236C0.75 13.6248 0.75 13.626 0.75 13.6272C0.75 13.6284 0.75 13.6297 0.75 13.6309C0.75 13.6321 0.75 13.6333 0.75 13.6345C0.75 13.6357 0.75 13.6369 0.75 13.6382C0.75 13.6394 0.75 13.6406 0.75 13.6418C0.75 13.643 0.75 13.6442 0.75 13.6454C0.75 13.6467 0.75 13.6479 0.75 13.6491C0.75 13.6503 0.75 13.6515 0.75 13.6527C0.75 13.6539 0.75 13.6552 0.75 13.6564C0.75 13.6576 0.75 13.6588 0.75 13.66C0.75 13.6612 0.75 13.6625 0.75 13.6637C0.75 13.6649 0.75 13.6661 0.75 13.6673C0.75 13.6685 0.75 13.6698 0.75 13.671C0.75 13.6722 0.75 13.6734 0.75 13.6746C0.75 13.6759 0.75 13.6771 0.75 13.6783C0.75 13.6795 0.75 13.6807 0.75 13.682C0.75 13.6832 0.75 13.6844 0.75 13.6856C0.75 13.6868 0.75 13.6881 0.75 13.6893C0.75 13.6905 0.75 13.6917 0.75 13.6929C0.75 13.6942 0.75 13.6954 0.75 13.6966C0.75 13.6978 0.75 13.699 0.75 13.7003C0.75 13.7015 0.75 13.7027 0.75 13.7039C0.75 13.7051 0.75 13.7064 0.75 13.7076C0.75 13.7088 0.75 13.71 0.75 13.7113C0.75 13.7125 0.75 13.7137 0.75 13.7149C0.75 13.7162 0.75 13.7174 0.75 13.7186C0.75 13.7198 0.75 13.7211 0.75 13.7223C0.75 13.7235 0.75 13.7247 0.75 13.726C0.75 13.7272 0.75 13.7284 0.75 13.7296C0.75 13.7309 0.75 13.7321 0.75 13.7333C0.75 13.7345 0.75 13.7358 0.75 13.737C0.75 13.7382 0.75 13.7394 0.75 13.7407C0.75 13.7419 0.75 13.7431 0.75 13.7443C0.75 13.7456 0.75 13.7468 0.75 13.748C0.75 13.7493 0.75 13.7505 0.75 13.7517C0.75 13.7529 0.75 13.7542 0.75 13.7554C0.75 13.7566 0.75 13.7579 0.75 13.7591C0.75 13.7603 0.75 13.7615 0.75 13.7628C0.75 13.764 0.75 13.7652 0.75 13.7665C0.75 13.7677 0.75 13.7689 0.75 13.7702C0.75 13.7714 0.75 13.7726 0.75 13.7738C0.75 13.7751 0.75 13.7763 0.75 13.7775C0.75 13.7788 0.75 13.78 0.75 13.7812C0.75 13.7825 0.75 13.7837 0.75 13.7849C0.75 13.7862 0.75 13.7874 0.75 13.7886C0.75 13.7899 0.75 13.7911 0.75 13.7923C0.75 13.7936 0.75 13.7948 0.75 13.796C0.75 13.7973 0.75 13.7985 0.75 13.7997C0.75 13.801 0.75 13.8022 0.75 13.8034C0.75 13.8047 0.75 13.8059 0.75 13.8071C0.75 13.8084 0.75 13.8096 0.75 13.8108C0.75 13.8121 0.75 13.8133 0.75 13.8145C0.75 13.8158 0.75 13.817 0.75 13.8183C0.75 13.8195 0.75 13.8207 0.75 13.822C0.75 13.8232 0.75 13.8244 0.75 13.8257C0.75 13.8269 0.75 13.8281 0.75 13.8294C0.75 13.8306 0.75 13.8319 0.75 13.8331C0.75 13.8343 0.75 13.8356 0.75 13.8368C0.75 13.8381 0.75 13.8393 0.75 13.8405C0.75 13.8418 0.75 13.843 0.75 13.8442C0.75 13.8455 0.75 13.8467 0.75 13.848C0.75 13.8492 0.75 13.8504 0.75 13.8517C0.75 13.8529 0.75 13.8542 0.75 13.8554C0.75 13.8567 0.75 13.8579 0.75 13.8591C0.75 13.8604 0.75 13.8616 0.75 13.8629C0.75 13.8641 0.75 13.8653 0.75 13.8666C0.75 13.8678 0.75 13.8691 0.75 13.8703C0.75 13.8716 0.75 13.8728 0.75 13.874C0.75 13.8753 0.75 13.8765 0.75 13.8778C0.75 13.879 0.75 13.8803 0.75 13.8815C0.75 13.8827 0.75 13.884 0.75 13.8852C0.75 13.8865 0.75 13.8877 0.75 13.889C0.75 13.8902 0.75 13.8915 0.75 13.8927C0.75 13.8939 0.75 13.8952 0.75 13.8964C0.75 13.8977 0.75 13.8989 0.75 13.9002C0.75 13.9014 0.75 13.9027 0.75 13.9039C0.75 13.9052 0.75 13.9064 0.75 13.9077C0.75 13.9089 0.75 13.9101 0.75 13.9114C0.75 13.9126 0.75 13.9139 0.75 13.9151C0.75 13.9164 0.75 13.9176 0.75 13.9189C0.75 13.9201 0.75 13.9214 0.75 13.9226C0.75 13.9239 0.75 13.9251 0.75 13.9264C0.75 13.9276 0.75 13.9289 0.75 13.9301C0.75 13.9314 0.75 13.9326 0.75 13.9339C0.75 13.9351 0.75 13.9364 0.75 13.9376C0.75 13.9389 0.75 13.9401 0.75 13.9414C0.75 13.9426 0.75 13.9439 0.75 13.9451C0.75 13.9464 0.75 13.9476 0.75 13.9489C0.75 13.9501 0.75 13.9514 0.75 13.9526C0.75 13.9539 0.75 13.9551 0.75 13.9564C0.75 13.9576 0.75 13.9589 0.75 13.9602C0.75 13.9614 0.75 13.9627 0.75 13.9639C0.75 13.9652 0.75 13.9664 0.75 13.9677C0.75 13.9689 0.75 13.9702 0.75 13.9714C0.75 13.9727 0.75 13.9739 0.75 13.9752C0.75 13.9765 0.75 13.9777 0.75 13.979C0.75 13.9802 0.75 13.9815 0.75 13.9827C0.75 13.984 0.75 13.9852 0.75 13.9865C0.75 13.9878 0.75 13.989 0.75 13.9903C0.75 13.9915 0.75 13.9928 0.75 13.994C0.75 13.9953 0.75 13.9966 0.75 13.9978C0.75 13.9991 0.75 14.0003 0.75 14.0016C0.75 14.0028 0.75 14.0041 0.75 14.0054C0.75 14.0066 0.75 14.0079 0.75 14.0091C0.75 14.0104 0.75 14.0116 0.75 14.0129C0.75 14.0142 0.75 14.0154 0.75 14.0167C0.75 14.0179 0.75 14.0192 0.75 14.0205C0.75 14.0217 0.75 14.023 0.75 14.0242C0.75 14.0255 0.75 14.0268 0.75 14.028C0.75 14.0293 0.75 14.0305 0.75 14.0318C0.75 14.0331 0.75 14.0343 0.75 14.0356C0.75 14.0369 0.75 14.0381 0.75 14.0394C0.75 14.0406 0.75 14.0419 0.75 14.0432C0.75 14.0444 0.75 14.0457 0.75 14.047C0.75 14.0482 0.75 14.0495 0.75 14.0507C0.75 14.052 0.75 14.0533 0.75 14.0545C0.75 14.0558 0.75 14.0571 0.75 14.0583C0.75 14.0596 0.75 14.0609 0.75 14.0621C0.75 14.0634 0.75 14.0646 0.75 14.0659C0.75 14.0672 0.75 14.0684 0.75 14.0697C0.75 14.071 0.75 14.0722 0.75 14.0735C0.75 14.0748 0.75 14.076 0.75 14.0773C0.75 14.0786 0.75 14.0798 0.75 14.0811C0.75 14.0824 0.75 14.0836 0.75 14.0849C0.75 14.0862 0.75 14.0874 0.75 14.0887C0.75 14.09 0.75 14.0912 0.75 14.0925C0.75 14.0938 0.75 14.095 0.75 14.0963C0.75 14.0976 0.75 14.0988 0.75 14.1001C0.75 14.1014 0.75 14.1027 0.75 14.1039C0.75 14.1052 0.75 14.1065 0.75 14.1077C0.75 14.109 0.75 14.1103 0.75 14.1115C0.75 14.1128 0.75 14.1141 0.75 14.1154C0.75 14.1166 0.75 14.1179 0.75 14.1192C0.75 14.1204 0.75 14.1217 0.75 14.123C0.75 14.1242 0.75 14.1255 0.75 14.1268C0.75 14.1281 0.75 14.1293 0.75 14.1306C0.75 14.1319 0.75 14.1331 0.75 14.1344C0.75 14.1357 0.75 14.137 0.75 14.1382C0.75 14.1395 0.75 14.1408 0.75 14.1421C0.75 14.1433 0.75 14.1446 0.75 14.1459C0.75 14.1472 0.75 14.1484 0.75 14.1497C0.75 14.151 0.75 14.1522 0.75 14.1535C0.75 14.1548 0.75 14.1561 0.75 14.1573C0.75 14.1586 0.75 14.1599 0.75 14.1612C0.75 14.1624 0.75 14.1637 0.75 14.165C0.75 14.1663 0.75 14.1676 0.75 14.1688C0.75 14.1701 0.75 14.1714 0.75 14.1727C0.75 14.1739 0.75 14.1752 0.75 14.1765C0.75 14.1778 0.75 14.179 0.75 14.1803C0.75 14.1816 0.75 14.1829 0.75 14.1841C0.75 14.1854 0.75 14.1867 0.75 14.188C0.75 14.1893 0.75 14.1905 0.75 14.1918C0.75 14.1931 0.75 14.1944 0.75 14.1957C0.75 14.1969 0.75 14.1982 0.75 14.1995C0.75 14.2008 0.75 14.2021 0.75 14.2033C0.75 14.2046 0.75 14.2059 0.75 14.2072C0.75 14.2085 0.75 14.2097 0.75 14.211C0.75 14.2123 0.75 14.2136 0.75 14.2149C0.75 14.2161 0.75 14.2174 0.75 14.2187C0.75 14.22 0.75 14.2213 0.75 14.2225C0.75 14.2238 0.75 14.2251 0.75 14.2264C0.75 14.2277 0.75 14.229 0.75 14.2302C0.75 14.2315 0.75 14.2328 0.75 14.2341C0.75 14.2354 0.75 14.2366 0.75 14.2379C0.75 14.2392 0.75 14.2405 0.75 14.2418C0.75 14.2431 0.75 14.2444 0.75 14.2456C0.75 14.2469 0.75 14.2482 0.75 14.2495C0.75 14.2508 0.75 14.2521 0.75 14.2533C0.75 14.2546 0.75 14.2559 0.75 14.2572C0.75 14.2585 0.75 14.2598 0.75 14.2611C0.75 14.2623 0.75 14.2636 0.75 14.2649C0.75 14.2662 0.75 14.2675 0.75 14.2688C0.75 14.2701 0.75 14.2713 0.75 14.2726C0.75 14.2739 0.75 14.2752 0.75 14.2765C0.75 14.2778 0.75 14.2791 0.75 14.2804C0.75 14.2816 0.75 14.2829 0.75 14.2842C0.75 14.2855 0.75 14.2868 0.75 14.2881C0.75 14.2894 0.75 14.2907 0.75 14.292C0.75 14.2932 0.75 14.2945 0.75 14.2958C0.75 14.2971 0.75 14.2984 0.75 14.2997C0.75 14.301 0.75 14.3023 0.75 14.3036C0.75 14.3048 0.75 14.3061 0.75 14.3074C0.75 14.3087 0.75 14.31 0.75 14.3113C0.75 14.3126 0.75 14.3139 0.75 14.3152C0.75 14.3165 0.75 14.3178 0.75 14.319C0.75 14.3203 0.75 14.3216 0.75 14.3229C0.75 14.3242 0.75 14.3255 0.75 14.3268C0.75 14.3281 0.75 14.3294 0.75 14.3307C0.75 14.332 0.75 14.3333 0.75 14.3346C0.75 14.3358 0.75 14.3371 0.75 14.3384C0.75 14.3397 0.75 14.341 0.75 14.3423C0.75 14.3436 0.75 14.3449 0.75 14.3462C0.75 14.3475 0.75 14.3488 0.75 14.3501C0.75 14.3514 0.75 14.3527 0.75 14.354C0.75 14.3553 0.75 14.3566 0.75 14.3579C0.75 14.3592 0.75 14.3604 0.75 14.3617C0.75 14.363 0.75 14.3643 0.75 14.3656C0.75 14.3669 0.75 14.3682 0.75 14.3695C0.75 14.3708 0.75 14.3721 0.75 14.3734C0.75 14.3747 0.75 14.376 0.75 14.3773C0.75 14.3786 0.75 14.3799 0.75 14.3812C0.75 14.3825 0.75 14.3838 0.75 14.3851C0.75 14.3864 0.75 14.3877 0.75 14.389C0.75 14.3903 0.75 14.3916 0.75 14.3929C0.75 14.3942 0.75 14.3955 0.75 14.3968C0.75 14.3981 0.75 14.3994 0.75 14.4007C0.75 14.402 0.75 14.4033 0.75 14.4046C0.75 14.4059 0.75 14.4072 0.75 14.4085C0.75 14.4098 0.75 14.4111 0.75 14.4124C0.75 14.4137 0.75 14.415 0.75 14.4163C0.75 14.4176 0.75 14.4189 0.75 14.4202C0.75 14.4215 0.75 14.4228 0.75 14.4241C0.75 14.4254 0.75 14.4267 0.75 14.428C0.75 14.4293 0.75 14.4306 0.75 14.4319C0.75 14.4332 0.75 14.4345 0.75 14.4358C0.75 14.4371 0.75 14.4384 0.75 14.4397C0.75 14.441 0.75 14.4423 0.75 14.4436C0.75 14.4449 0.75 14.4462 0.75 14.4476C0.75 14.4489 0.75 14.4502 0.75 14.4515C0.75 14.4528 0.75 14.4541 0.75 14.4554C0.75 14.4567 0.75 14.458 0.75 14.4593C0.75 14.4606 0.75 14.4619 0.75 14.4632C0.75 14.4645 0.75 14.4658 0.75 14.4671C0.75 14.4684 0.75 14.4697 0.75 14.471C0.75 14.4724 0.75 14.4737 0.75 14.475C0.75 14.4763 0.75 14.4776 0.75 14.4789C0.75 14.4802 0.75 14.4815 0.75 14.4828C0.75 14.4841 0.75 14.4854 0.75 14.4867C0.75 14.488 0.75 14.4894 0.75 14.4907C0.75 14.492 0.75 14.4933 0.75 14.4946C0.75 14.4959 0.75 14.4972 0.75 14.4985C0.75 14.4998 0.75 14.5011 0.75 14.5024C0.75 14.5038 0.75 14.5051 0.75 14.5064C0.75 14.5077 0.75 14.509 0.75 14.5103C0.75 14.5116 0.75 14.5129 0.75 14.5142C0.75 14.5155 0.75 14.5169 0.75 14.5182C0.75 14.5195 0.75 14.5208 0.75 14.5221C0.75 14.5234 0.75 14.5247 0.75 14.526C0.75 14.5273 0.75 14.5287 0.75 14.53C0.75 14.5313 0.75 14.5326 0.75 14.5339C0.75 14.5352 0.75 14.5365 0.75 14.5378C0.75 14.5392 0.75 14.5405 0.75 14.5418C0.75 14.5431 0.75 14.5444 0.75 14.5457C0.75 14.547 0.75 14.5484 0.75 14.5497C0.75 14.551 0.75 14.5523 0.75 14.5536C0.75 14.5549 0.75 14.5562 0.75 14.5576C0.75 14.5589 0.75 14.5602 0.75 14.5615C0.75 14.5628 0.75 14.5641 0.75 14.5654C0.75 14.5668 0.75 14.5681 0.75 14.5694C0.75 14.5707 0.75 14.572 0.75 14.5733C0.75 14.5747 0.75 14.576 0.75 14.5773C0.75 14.5786 0.75 14.5799 0.75 14.5812C0.75 14.5826 0.75 14.5839 0.75 14.5852C0.75 14.5865 0.75 14.5878 0.75 14.5891C0.75 14.5905 0.75 14.5918 0.75 14.5931C0.75 14.5944 0.75 14.5957 0.75 14.597C0.75 14.5984 0.75 14.5997 0.75 14.601C0.75 14.6023 0.75 14.6036 0.75 14.605C0.75 14.6063 0.75 14.6076 0.75 14.6089C0.75 14.6102 0.75 14.6116 0.75 14.6129C0.75 14.6142 0.75 14.6155 0.75 14.6168C0.75 14.6182 0.75 14.6195 0.75 14.6208C0.75 14.6221 0.75 14.6234 0.75 14.6248C0.75 14.6261 0.75 14.6274 0.75 14.6287C0.75 14.63 0.75 14.6314 0.75 14.6327C0.75 14.634 0.75 14.6353 0.75 14.6366C0.75 14.638 0.75 14.6393 0.75 14.6406C0.75 14.6419 0.75 14.6433 0.75 14.6446C0.75 14.6459 0.75 14.6472 0.75 14.6485C0.75 14.6499 0.75 14.6512 0.75 14.6525C0.75 14.6538 0.75 14.6552 0.75 14.6565C0.75 14.6578 0.75 14.6591 0.75 14.6605C0.75 14.6618 0.75 14.6631 0.75 14.6644C0.75 14.6658 0.75 14.6671 0.75 14.6684C0.75 14.6697 0.75 14.6711 0.75 14.6724C0.75 14.6737 0.75 14.675 0.75 14.6764C0.75 14.6777 0.75 14.679 0.75 14.6803C0.75 14.6817 0.75 14.683 0.75 14.6843C0.75 14.6856 0.75 14.687 0.75 14.6883C0.75 14.6896 0.75 14.6909 0.75 14.6923C0.75 14.6936 0.75 14.6949 0.75 14.6962C0.75 14.6976 0.75 14.6989 0.75 14.7002C0.75 14.7016 0.75 14.7029 0.75 14.7042C0.75 14.7055 0.75 14.7069 0.75 14.7082C0.75 14.7095 0.75 14.7109 0.75 14.7122C0.75 14.7135 0.75 14.7148 0.75 14.7162C0.75 14.7175 0.75 14.7188 0.75 14.7202C0.75 14.7215 0.75 14.7228 0.75 14.7241C0.75 14.7255 0.75 14.7268 0.75 14.7281C0.75 14.7295 0.75 14.7308 0.75 14.7321C0.75 14.7335 0.75 14.7348 0.75 14.7361C0.75 14.7374 0.75 14.7388 0.75 14.7401C0.75 14.7414 0.75 14.7428 0.75 14.7441C0.75 14.7454 0.75 14.7468 0.75 14.7481C0.75 14.7494 0.75 14.7508 0.75 14.7521C0.75 14.7534 0.75 14.7548 0.75 14.7561C0.75 14.7574 0.75 14.7588 0.75 14.7601C0.75 14.7614 0.75 14.7627 0.75 14.7641C0.75 14.7654 0.75 14.7667 0.75 14.7681C0.75 14.7694 0.75 14.7707 0.75 14.7721C0.75 14.7734 0.75 14.7747 0.75 14.7761C0.75 14.7774 0.75 14.7788 0.75 14.7801C0.75 14.7814 0.75 14.7828 0.75 14.7841C0.75 14.7854 0.75 14.7868 0.75 14.7881C0.75 14.7894 0.75 14.7908 0.75 14.7921C0.75 14.7934 0.75 14.7948 0.75 14.7961C0.75 14.7974 0.75 14.7988 0.75 14.8001C0.75 14.8014 0.75 14.8028 0.75 14.8041C0.75 14.8055 0.75 14.8068 0.75 14.8081C0.75 14.8095 0.75 14.8108 0.75 14.8121C0.75 14.8135 0.75 14.8148 0.75 14.8162C0.75 14.8175 0.75 14.8188 0.75 14.8202C0.75 14.8215 0.75 14.8228 0.75 14.8242C0.75 14.8255 0.75 14.8269 0.75 14.8282C0.75 14.8295 0.75 14.8309 0.75 14.8322C0.75 14.8335 0.75 14.8349 0.75 14.8362C0.75 14.8376 0.75 14.8389 0.75 14.8402C0.75 14.8416 0.75 14.8429 0.75 14.8443C0.75 14.8456 0.75 14.8469 0.75 14.8483C0.75 14.8496 0.75 14.851 0.75 14.8523C0.75 14.8536 0.75 14.855 0.75 14.8563C0.75 14.8577 0.75 14.859 0.75 14.8603C0.75 14.8617 0.75 14.863 0.75 14.8644C0.75 14.8657 0.75 14.8671 0.75 14.8684C0.75 14.8697 0.75 14.8711 0.75 14.8724C0.75 14.8738 0.75 14.8751 0.75 14.8764C0.75 14.8778 0.75 14.8791 0.75 14.8805C0.75 14.8818 0.75 14.8832 0.75 14.8845C0.75 14.8858 0.75 14.8872 0.75 14.8885C0.75 14.8899 0.75 14.8912 0.75 14.8926C0.75 14.8939 0.75 14.8953 0.75 14.8966C0.75 14.8979 0.75 14.8993 0.75 14.9006C0.75 14.902 0.75 14.9033 0.75 14.9047C0.75 14.906 0.75 14.9074 0.75 14.9087C0.75 14.91 0.75 14.9114 0.75 14.9127C0.75 14.9141 0.75 14.9154 0.75 14.9168C0.75 14.9181 0.75 14.9195 0.75 14.9208C0.75 14.9222 0.75 14.9235 0.75 14.9248C0.75 14.9262 0.75 14.9275 0.75 14.9289C0.75 14.9302 0.75 14.9316 0.75 14.9329C0.75 14.9343 0.75 14.9356 0.75 14.937C0.75 14.9383 0.75 14.9397 0.75 14.941C0.75 14.9424 0.75 14.9437 0.75 14.9451C0.75 14.9464 0.75 14.9477 0.75 14.9491C0.75 14.9504 0.75 14.9518 0.75 14.9531C0.75 14.9545 0.75 14.9558 0.75 14.9572C0.75 14.9585 0.75 14.9599 0.75 14.9612C0.75 14.9626 0.75 14.9639 0.75 14.9653C0.75 14.9666 0.75 14.968 0.75 14.9693C0.75 14.9707 0.75 14.972 0.75 14.9734C0.75 14.9747 0.75 14.9761 0.75 14.9774C0.75 14.9788 0.75 14.9801 0.75 14.9815C0.75 14.9828 0.75 14.9842 0.75 14.9855C0.75 14.9869 0.75 14.9882 0.75 14.9896C0.75 14.9909 0.75 14.9923 0.75 14.9936C0.75 14.995 0.75 14.9963 0.75 14.9977C0.75 14.9991 0.75 15.0004 0.75 15.0018C0.75 15.0031 0.75 15.0045 0.75 15.0058C0.75 15.0072 0.75 15.0085 0.75 15.0099C0.75 15.0112 0.75 15.0126 0.75 15.0139C0.75 15.0153 0.75 15.0166 0.75 15.018C0.75 15.0193 0.75 15.0207 0.75 15.0221C0.75 15.0234 0.75 15.0248 0.75 15.0261C0.75 15.0275 0.75 15.0288 0.75 15.0302C0.75 15.0315 0.75 15.0329 0.75 15.0342C0.75 15.0356 0.75 15.037 0.75 15.0383C0.75 15.0397 0.75 15.041 0.75 15.0424C0.75 15.0437 0.75 15.0451 0.75 15.0464C0.75 15.0478 0.75 15.0492 0.75 15.0505C0.75 15.0519 0.75 15.0532 0.75 15.0546C0.75 15.0559 0.75 15.0573 0.75 15.0586C0.75 15.06 0.75 15.0614 0.75 15.0627C0.75 15.0641 0.75 15.0654 0.75 15.0668C0.75 15.0681 0.75 15.0695 0.75 15.0709C0.75 15.0722 0.75 15.0736 0.75 15.0749C0.75 15.0763 0.75 15.0777 0.75 15.079C0.75 15.0804 0.75 15.0817 0.75 15.0831C0.75 15.0844 0.75 15.0858 0.75 15.0872C0.75 15.0885 0.75 15.0899 0.75 15.0912C0.75 15.0926 0.75 15.094 0.75 15.0953C0.75 15.0967 0.75 15.098 0.75 15.0994C0.75 15.1008 0.75 15.1021 0.75 15.1035C0.75 15.1048 0.75 15.1062 0.75 15.1076C0.75 15.1089 0.75 15.1103 0.75 15.1116C0.75 15.113 0.75 15.1144 0.75 15.1157C0.75 15.1171 0.75 15.1184 0.75 15.1198C0.75 15.1212 0.75 15.1225 0.75 15.1239C0.75 15.1253 0.75 15.1266 0.75 15.128C0.75 15.1293 0.75 15.1307 0.75 15.1321C0.75 15.1334 0.75 15.1348 0.75 15.1361C0.75 15.1375 0.75 15.1389 0.75 15.1402C0.75 15.1416 0.75 15.143 0.75 15.1443C0.75 15.1457 0.75 15.1471 0.75 15.1484C0.75 15.1498 0.75 15.1511 0.75 15.1525C0.75 15.1539 0.75 15.1552 0.75 15.1566C0.75 15.158 0.75 15.1593 0.75 15.1607C0.75 15.1621 0.75 15.1634 0.75 15.1648C0.75 15.1661 0.75 15.1675 0.75 15.1689C0.75 15.1702 0.75 15.1716 0.75 15.173C0.75 15.1743 0.75 15.1757 0.75 15.1771C0.75 15.1784 0.75 15.1798 0.75 15.1812C0.75 15.1825 0.75 15.1839 0.75 15.1853C0.75 15.1866 0.75 15.188 0.75 15.1894C0.75 15.1907 0.75 15.1921 0.75 15.1935C0.75 15.1948 0.75 15.1962 0.75 15.1976C0.75 15.1989 0.75 15.2003 0.75 15.2017C0.75 15.203 0.75 15.2044 0.75 15.2058C0.75 15.2071 0.75 15.2085 0.75 15.2099C0.75 15.2112 0.75 15.2126 0.75 15.214C0.75 15.2153 0.75 15.2167 0.75 15.2181C0.75 15.2194 0.75 15.2208 0.75 15.2222C0.75 15.2236 0.75 15.2249 0.75 15.2263C0.75 15.2277 0.75 15.229 0.75 15.2304C0.75 15.2318 0.75 15.2331 0.75 15.2345C0.75 15.2359 0.75 15.2372 0.75 15.2386C0.75 15.24 0.75 15.2414 0.75 15.2427C0.75 15.2441 0.75 15.2455 0.75 15.2468C0.75 15.2482 0.75 15.2496 0.75 15.2509C0.75 15.2523 0.75 15.2537 0.75 15.2551C0.75 15.2564 0.75 15.2578 0.75 15.2592C0.75 15.2605 0.75 15.2619 0.75 15.2633C0.75 15.2647 0.75 15.266 0.75 15.2674C0.75 15.2688 0.75 15.2702 0.75 15.2715C0.75 15.2729 0.75 15.2743 0.75 15.2756C0.75 15.277 0.75 15.2784 0.75 15.2798C0.75 15.2811 0.75 15.2825 0.75 15.2839C0.75 15.2852 0.75 15.2866 0.75 15.288C0.75 15.2894 0.75 15.2907 0.75 15.2921C0.75 15.2935 0.75 15.2949 0.75 15.2962C0.75 15.2976 0.75 15.299 0.75 15.3004C0.75 15.3017 0.75 15.3031 0.75 15.3045C0.75 15.3059 0.75 15.3072 0.75 15.3086C0.75 15.31 0.75 15.3114 0.75 15.3127C0.75 15.3141 0.75 15.3155 0.75 15.3169C0.75 15.3182 0.75 15.3196 0.75 15.321C0.75 15.3224 0.75 15.3237 0.75 15.3251C0.75 15.3265 0.75 15.3279 0.75 15.3292C0.75 15.3306 0.75 15.332 0.75 15.3334C0.75 15.3347 0.75 15.3361 0.75 15.3375C0.75 15.3389 0.75 15.3403 0.75 15.3416C0.75 15.343 0.75 15.3444 0.75 15.3458C0.75 15.3471 0.75 15.3485 0.75 15.3499C0.75 15.3513 0.75 15.3526 0.75 15.354C0.75 15.3554 0.75 15.3568 0.75 15.3582C0.75 15.3595 0.75 15.3609 0.75 15.3623C0.75 15.3637 0.75 15.3651 0.75 15.3664C0.75 15.3678 0.75 15.3692 0.75 15.3706C0.75 15.3719 0.75 15.3733 0.75 15.3747C0.75 15.3761 0.75 15.3775 0.75 15.3788C0.75 15.3802 0.75 15.3816 0.75 15.383C0.75 15.3844 0.75 15.3857 0.75 15.3871C0.75 15.3885 0.75 15.3899 0.75 15.3913C0.75 15.3926 0.75 15.394 0.75 15.3954C0.75 15.3968 0.75 15.3982 0.75 15.3995C0.75 15.4009 0.75 15.4023 0.75 15.4037C0.75 15.4051 0.75 15.4065 0.75 15.4078C0.75 15.4092 0.75 15.4106 0.75 15.412C0.75 15.4134 0.75 15.4147 0.75 15.4161C0.75 15.4175 0.75 15.4189 0.75 15.4203C0.75 15.4217 0.75 15.423 0.75 15.4244C0.75 15.4258 0.75 15.4272 0.75 15.4286C0.75 15.4299 0.75 15.4313 0.75 15.4327C0.75 15.4341 0.75 15.4355 0.75 15.4369C0.75 15.4382 0.75 15.4396 0.75 15.441C0.75 15.4424 0.75 15.4438 0.75 15.4452C0.75 15.4465 0.75 15.4479 0.75 15.4493C0.75 15.4507 0.75 15.4521 0.75 15.4535C0.75 15.4549 0.75 15.4562 0.75 15.4576C0.75 15.459 0.75 15.4604 0.75 15.4618C0.75 15.4632 0.75 15.4645 0.75 15.4659C0.75 15.4673 0.75 15.4687 0.75 15.4701C0.75 15.4715 0.75 15.4729 0.75 15.4742C0.75 15.4756 0.75 15.477 0.75 15.4784C0.75 15.4798 0.75 15.4812 0.75 15.4826C0.75 15.4839 0.75 15.4853 0.75 15.4867C0.75 15.4881 0.75 15.4895 0.75 15.4909H2.25ZM4.5 11.2441L8.5 11.2441L8.5 9.74414L4.5 9.74414L4.5 11.2441ZM10.75 13.4936C10.75 13.4948 10.75 13.496 10.75 13.4972C10.75 13.4984 10.75 13.4996 10.75 13.5008C10.75 13.502 10.75 13.5032 10.75 13.5044C10.75 13.5056 10.75 13.5068 10.75 13.508C10.75 13.5092 10.75 13.5104 10.75 13.5116C10.75 13.5128 10.75 13.514 10.75 13.5152C10.75 13.5164 10.75 13.5176 10.75 13.5188C10.75 13.5199 10.75 13.5211 10.75 13.5223C10.75 13.5235 10.75 13.5247 10.75 13.5259C10.75 13.5271 10.75 13.5283 10.75 13.5295C10.75 13.5307 10.75 13.5319 10.75 13.5331C10.75 13.5343 10.75 13.5355 10.75 13.5367C10.75 13.5379 10.75 13.5391 10.75 13.5403C10.75 13.5415 10.75 13.5427 10.75 13.5439C10.75 13.5451 10.75 13.5463 10.75 13.5476C10.75 13.5488 10.75 13.55 10.75 13.5512C10.75 13.5524 10.75 13.5536 10.75 13.5548C10.75 13.556 10.75 13.5572 10.75 13.5584C10.75 13.5596 10.75 13.5608 10.75 13.562C10.75 13.5632 10.75 13.5644 10.75 13.5656C10.75 13.5668 10.75 13.568 10.75 13.5692C10.75 13.5704 10.75 13.5716 10.75 13.5728C10.75 13.574 10.75 13.5752 10.75 13.5764C10.75 13.5777 10.75 13.5789 10.75 13.5801C10.75 13.5813 10.75 13.5825 10.75 13.5837C10.75 13.5849 10.75 13.5861 10.75 13.5873C10.75 13.5885 10.75 13.5897 10.75 13.5909C10.75 13.5921 10.75 13.5933 10.75 13.5946C10.75 13.5958 10.75 13.597 10.75 13.5982C10.75 13.5994 10.75 13.6006 10.75 13.6018C10.75 13.603 10.75 13.6042 10.75 13.6054C10.75 13.6066 10.75 13.6079 10.75 13.6091C10.75 13.6103 10.75 13.6115 10.75 13.6127C10.75 13.6139 10.75 13.6151 10.75 13.6163C10.75 13.6175 10.75 13.6187 10.75 13.62C10.75 13.6212 10.75 13.6224 10.75 13.6236C10.75 13.6248 10.75 13.626 10.75 13.6272C10.75 13.6284 10.75 13.6297 10.75 13.6309C10.75 13.6321 10.75 13.6333 10.75 13.6345C10.75 13.6357 10.75 13.6369 10.75 13.6381C10.75 13.6394 10.75 13.6406 10.75 13.6418C10.75 13.643 10.75 13.6442 10.75 13.6454C10.75 13.6466 10.75 13.6479 10.75 13.6491C10.75 13.6503 10.75 13.6515 10.75 13.6527C10.75 13.6539 10.75 13.6552 10.75 13.6564C10.75 13.6576 10.75 13.6588 10.75 13.66C10.75 13.6612 10.75 13.6625 10.75 13.6637C10.75 13.6649 10.75 13.6661 10.75 13.6673C10.75 13.6685 10.75 13.6698 10.75 13.671C10.75 13.6722 10.75 13.6734 10.75 13.6746C10.75 13.6759 10.75 13.6771 10.75 13.6783C10.75 13.6795 10.75 13.6807 10.75 13.6819C10.75 13.6832 10.75 13.6844 10.75 13.6856C10.75 13.6868 10.75 13.688 10.75 13.6893C10.75 13.6905 10.75 13.6917 10.75 13.6929C10.75 13.6942 10.75 13.6954 10.75 13.6966C10.75 13.6978 10.75 13.699 10.75 13.7003C10.75 13.7015 10.75 13.7027 10.75 13.7039C10.75 13.7051 10.75 13.7064 10.75 13.7076C10.75 13.7088 10.75 13.71 10.75 13.7113C10.75 13.7125 10.75 13.7137 10.75 13.7149C10.75 13.7162 10.75 13.7174 10.75 13.7186C10.75 13.7198 10.75 13.7211 10.75 13.7223C10.75 13.7235 10.75 13.7247 10.75 13.7259C10.75 13.7272 10.75 13.7284 10.75 13.7296C10.75 13.7309 10.75 13.7321 10.75 13.7333C10.75 13.7345 10.75 13.7358 10.75 13.737C10.75 13.7382 10.75 13.7394 10.75 13.7407C10.75 13.7419 10.75 13.7431 10.75 13.7443C10.75 13.7456 10.75 13.7468 10.75 13.748C10.75 13.7493 10.75 13.7505 10.75 13.7517C10.75 13.7529 10.75 13.7542 10.75 13.7554C10.75 13.7566 10.75 13.7579 10.75 13.7591C10.75 13.7603 10.75 13.7615 10.75 13.7628C10.75 13.764 10.75 13.7652 10.75 13.7665C10.75 13.7677 10.75 13.7689 10.75 13.7701C10.75 13.7714 10.75 13.7726 10.75 13.7738C10.75 13.7751 10.75 13.7763 10.75 13.7775C10.75 13.7788 10.75 13.78 10.75 13.7812C10.75 13.7825 10.75 13.7837 10.75 13.7849C10.75 13.7862 10.75 13.7874 10.75 13.7886C10.75 13.7899 10.75 13.7911 10.75 13.7923C10.75 13.7936 10.75 13.7948 10.75 13.796C10.75 13.7973 10.75 13.7985 10.75 13.7997C10.75 13.801 10.75 13.8022 10.75 13.8034C10.75 13.8047 10.75 13.8059 10.75 13.8071C10.75 13.8084 10.75 13.8096 10.75 13.8108C10.75 13.8121 10.75 13.8133 10.75 13.8145C10.75 13.8158 10.75 13.817 10.75 13.8183C10.75 13.8195 10.75 13.8207 10.75 13.822C10.75 13.8232 10.75 13.8244 10.75 13.8257C10.75 13.8269 10.75 13.8281 10.75 13.8294C10.75 13.8306 10.75 13.8319 10.75 13.8331C10.75 13.8343 10.75 13.8356 10.75 13.8368C10.75 13.8381 10.75 13.8393 10.75 13.8405C10.75 13.8418 10.75 13.843 10.75 13.8442C10.75 13.8455 10.75 13.8467 10.75 13.848C10.75 13.8492 10.75 13.8504 10.75 13.8517C10.75 13.8529 10.75 13.8542 10.75 13.8554C10.75 13.8566 10.75 13.8579 10.75 13.8591C10.75 13.8604 10.75 13.8616 10.75 13.8629C10.75 13.8641 10.75 13.8653 10.75 13.8666C10.75 13.8678 10.75 13.8691 10.75 13.8703C10.75 13.8716 10.75 13.8728 10.75 13.874C10.75 13.8753 10.75 13.8765 10.75 13.8778C10.75 13.879 10.75 13.8803 10.75 13.8815C10.75 13.8827 10.75 13.884 10.75 13.8852C10.75 13.8865 10.75 13.8877 10.75 13.889C10.75 13.8902 10.75 13.8915 10.75 13.8927C10.75 13.8939 10.75 13.8952 10.75 13.8964C10.75 13.8977 10.75 13.8989 10.75 13.9002C10.75 13.9014 10.75 13.9027 10.75 13.9039C10.75 13.9052 10.75 13.9064 10.75 13.9077C10.75 13.9089 10.75 13.9101 10.75 13.9114C10.75 13.9126 10.75 13.9139 10.75 13.9151C10.75 13.9164 10.75 13.9176 10.75 13.9189C10.75 13.9201 10.75 13.9214 10.75 13.9226C10.75 13.9239 10.75 13.9251 10.75 13.9264C10.75 13.9276 10.75 13.9289 10.75 13.9301C10.75 13.9314 10.75 13.9326 10.75 13.9339C10.75 13.9351 10.75 13.9364 10.75 13.9376C10.75 13.9389 10.75 13.9401 10.75 13.9414C10.75 13.9426 10.75 13.9439 10.75 13.9451C10.75 13.9464 10.75 13.9476 10.75 13.9489C10.75 13.9501 10.75 13.9514 10.75 13.9526C10.75 13.9539 10.75 13.9551 10.75 13.9564C10.75 13.9576 10.75 13.9589 10.75 13.9602C10.75 13.9614 10.75 13.9627 10.75 13.9639C10.75 13.9652 10.75 13.9664 10.75 13.9677C10.75 13.9689 10.75 13.9702 10.75 13.9714C10.75 13.9727 10.75 13.9739 10.75 13.9752C10.75 13.9765 10.75 13.9777 10.75 13.979C10.75 13.9802 10.75 13.9815 10.75 13.9827C10.75 13.984 10.75 13.9852 10.75 13.9865C10.75 13.9878 10.75 13.989 10.75 13.9903C10.75 13.9915 10.75 13.9928 10.75 13.994C10.75 13.9953 10.75 13.9965 10.75 13.9978C10.75 13.9991 10.75 14.0003 10.75 14.0016C10.75 14.0028 10.75 14.0041 10.75 14.0054C10.75 14.0066 10.75 14.0079 10.75 14.0091C10.75 14.0104 10.75 14.0116 10.75 14.0129C10.75 14.0142 10.75 14.0154 10.75 14.0167C10.75 14.0179 10.75 14.0192 10.75 14.0205C10.75 14.0217 10.75 14.023 10.75 14.0242C10.75 14.0255 10.75 14.0268 10.75 14.028C10.75 14.0293 10.75 14.0305 10.75 14.0318C10.75 14.0331 10.75 14.0343 10.75 14.0356C10.75 14.0369 10.75 14.0381 10.75 14.0394C10.75 14.0406 10.75 14.0419 10.75 14.0432C10.75 14.0444 10.75 14.0457 10.75 14.047C10.75 14.0482 10.75 14.0495 10.75 14.0507C10.75 14.052 10.75 14.0533 10.75 14.0545C10.75 14.0558 10.75 14.0571 10.75 14.0583C10.75 14.0596 10.75 14.0609 10.75 14.0621C10.75 14.0634 10.75 14.0646 10.75 14.0659C10.75 14.0672 10.75 14.0684 10.75 14.0697C10.75 14.071 10.75 14.0722 10.75 14.0735C10.75 14.0748 10.75 14.076 10.75 14.0773C10.75 14.0786 10.75 14.0798 10.75 14.0811C10.75 14.0824 10.75 14.0836 10.75 14.0849C10.75 14.0862 10.75 14.0874 10.75 14.0887C10.75 14.09 10.75 14.0912 10.75 14.0925C10.75 14.0938 10.75 14.095 10.75 14.0963C10.75 14.0976 10.75 14.0988 10.75 14.1001C10.75 14.1014 10.75 14.1027 10.75 14.1039C10.75 14.1052 10.75 14.1065 10.75 14.1077C10.75 14.109 10.75 14.1103 10.75 14.1115C10.75 14.1128 10.75 14.1141 10.75 14.1153C10.75 14.1166 10.75 14.1179 10.75 14.1192C10.75 14.1204 10.75 14.1217 10.75 14.123C10.75 14.1242 10.75 14.1255 10.75 14.1268C10.75 14.1281 10.75 14.1293 10.75 14.1306C10.75 14.1319 10.75 14.1331 10.75 14.1344C10.75 14.1357 10.75 14.137 10.75 14.1382C10.75 14.1395 10.75 14.1408 10.75 14.1421C10.75 14.1433 10.75 14.1446 10.75 14.1459C10.75 14.1471 10.75 14.1484 10.75 14.1497C10.75 14.151 10.75 14.1522 10.75 14.1535C10.75 14.1548 10.75 14.1561 10.75 14.1573C10.75 14.1586 10.75 14.1599 10.75 14.1612C10.75 14.1624 10.75 14.1637 10.75 14.165C10.75 14.1663 10.75 14.1675 10.75 14.1688C10.75 14.1701 10.75 14.1714 10.75 14.1727C10.75 14.1739 10.75 14.1752 10.75 14.1765C10.75 14.1778 10.75 14.179 10.75 14.1803C10.75 14.1816 10.75 14.1829 10.75 14.1841C10.75 14.1854 10.75 14.1867 10.75 14.188C10.75 14.1893 10.75 14.1905 10.75 14.1918C10.75 14.1931 10.75 14.1944 10.75 14.1957C10.75 14.1969 10.75 14.1982 10.75 14.1995C10.75 14.2008 10.75 14.202 10.75 14.2033C10.75 14.2046 10.75 14.2059 10.75 14.2072C10.75 14.2084 10.75 14.2097 10.75 14.211C10.75 14.2123 10.75 14.2136 10.75 14.2149C10.75 14.2161 10.75 14.2174 10.75 14.2187C10.75 14.22 10.75 14.2213 10.75 14.2225C10.75 14.2238 10.75 14.2251 10.75 14.2264C10.75 14.2277 10.75 14.2289 10.75 14.2302C10.75 14.2315 10.75 14.2328 10.75 14.2341C10.75 14.2354 10.75 14.2366 10.75 14.2379C10.75 14.2392 10.75 14.2405 10.75 14.2418C10.75 14.2431 10.75 14.2443 10.75 14.2456C10.75 14.2469 10.75 14.2482 10.75 14.2495C10.75 14.2508 10.75 14.2521 10.75 14.2533C10.75 14.2546 10.75 14.2559 10.75 14.2572C10.75 14.2585 10.75 14.2598 10.75 14.2611C10.75 14.2623 10.75 14.2636 10.75 14.2649C10.75 14.2662 10.75 14.2675 10.75 14.2688C10.75 14.2701 10.75 14.2713 10.75 14.2726C10.75 14.2739 10.75 14.2752 10.75 14.2765C10.75 14.2778 10.75 14.2791 10.75 14.2804C10.75 14.2816 10.75 14.2829 10.75 14.2842C10.75 14.2855 10.75 14.2868 10.75 14.2881C10.75 14.2894 10.75 14.2907 10.75 14.2919C10.75 14.2932 10.75 14.2945 10.75 14.2958C10.75 14.2971 10.75 14.2984 10.75 14.2997C10.75 14.301 10.75 14.3023 10.75 14.3036C10.75 14.3048 10.75 14.3061 10.75 14.3074C10.75 14.3087 10.75 14.31 10.75 14.3113C10.75 14.3126 10.75 14.3139 10.75 14.3152C10.75 14.3165 10.75 14.3178 10.75 14.319C10.75 14.3203 10.75 14.3216 10.75 14.3229C10.75 14.3242 10.75 14.3255 10.75 14.3268C10.75 14.3281 10.75 14.3294 10.75 14.3307C10.75 14.332 10.75 14.3333 10.75 14.3346C10.75 14.3358 10.75 14.3371 10.75 14.3384C10.75 14.3397 10.75 14.341 10.75 14.3423C10.75 14.3436 10.75 14.3449 10.75 14.3462C10.75 14.3475 10.75 14.3488 10.75 14.3501C10.75 14.3514 10.75 14.3527 10.75 14.354C10.75 14.3553 10.75 14.3566 10.75 14.3579C10.75 14.3591 10.75 14.3604 10.75 14.3617C10.75 14.363 10.75 14.3643 10.75 14.3656C10.75 14.3669 10.75 14.3682 10.75 14.3695C10.75 14.3708 10.75 14.3721 10.75 14.3734C10.75 14.3747 10.75 14.376 10.75 14.3773C10.75 14.3786 10.75 14.3799 10.75 14.3812C10.75 14.3825 10.75 14.3838 10.75 14.3851C10.75 14.3864 10.75 14.3877 10.75 14.389C10.75 14.3903 10.75 14.3916 10.75 14.3929C10.75 14.3942 10.75 14.3955 10.75 14.3968C10.75 14.3981 10.75 14.3994 10.75 14.4007C10.75 14.402 10.75 14.4033 10.75 14.4046C10.75 14.4059 10.75 14.4072 10.75 14.4085C10.75 14.4098 10.75 14.4111 10.75 14.4124C10.75 14.4137 10.75 14.415 10.75 14.4163C10.75 14.4176 10.75 14.4189 10.75 14.4202C10.75 14.4215 10.75 14.4228 10.75 14.4241C10.75 14.4254 10.75 14.4267 10.75 14.428C10.75 14.4293 10.75 14.4306 10.75 14.4319C10.75 14.4332 10.75 14.4345 10.75 14.4358C10.75 14.4371 10.75 14.4384 10.75 14.4397C10.75 14.441 10.75 14.4423 10.75 14.4436C10.75 14.4449 10.75 14.4462 10.75 14.4475C10.75 14.4489 10.75 14.4502 10.75 14.4515C10.75 14.4528 10.75 14.4541 10.75 14.4554C10.75 14.4567 10.75 14.458 10.75 14.4593C10.75 14.4606 10.75 14.4619 10.75 14.4632C10.75 14.4645 10.75 14.4658 10.75 14.4671C10.75 14.4684 10.75 14.4697 10.75 14.471C10.75 14.4724 10.75 14.4737 10.75 14.475C10.75 14.4763 10.75 14.4776 10.75 14.4789C10.75 14.4802 10.75 14.4815 10.75 14.4828C10.75 14.4841 10.75 14.4854 10.75 14.4867C10.75 14.488 10.75 14.4893 10.75 14.4907C10.75 14.492 10.75 14.4933 10.75 14.4946C10.75 14.4959 10.75 14.4972 10.75 14.4985C10.75 14.4998 10.75 14.5011 10.75 14.5024C10.75 14.5037 10.75 14.5051 10.75 14.5064C10.75 14.5077 10.75 14.509 10.75 14.5103C10.75 14.5116 10.75 14.5129 10.75 14.5142C10.75 14.5155 10.75 14.5169 10.75 14.5182C10.75 14.5195 10.75 14.5208 10.75 14.5221C10.75 14.5234 10.75 14.5247 10.75 14.526C10.75 14.5273 10.75 14.5287 10.75 14.53C10.75 14.5313 10.75 14.5326 10.75 14.5339C10.75 14.5352 10.75 14.5365 10.75 14.5378C10.75 14.5392 10.75 14.5405 10.75 14.5418C10.75 14.5431 10.75 14.5444 10.75 14.5457C10.75 14.547 10.75 14.5483 10.75 14.5497C10.75 14.551 10.75 14.5523 10.75 14.5536C10.75 14.5549 10.75 14.5562 10.75 14.5575C10.75 14.5589 10.75 14.5602 10.75 14.5615C10.75 14.5628 10.75 14.5641 10.75 14.5654C10.75 14.5668 10.75 14.5681 10.75 14.5694C10.75 14.5707 10.75 14.572 10.75 14.5733C10.75 14.5746 10.75 14.576 10.75 14.5773C10.75 14.5786 10.75 14.5799 10.75 14.5812C10.75 14.5825 10.75 14.5839 10.75 14.5852C10.75 14.5865 10.75 14.5878 10.75 14.5891C10.75 14.5905 10.75 14.5918 10.75 14.5931C10.75 14.5944 10.75 14.5957 10.75 14.597C10.75 14.5984 10.75 14.5997 10.75 14.601C10.75 14.6023 10.75 14.6036 10.75 14.605C10.75 14.6063 10.75 14.6076 10.75 14.6089C10.75 14.6102 10.75 14.6115 10.75 14.6129C10.75 14.6142 10.75 14.6155 10.75 14.6168C10.75 14.6181 10.75 14.6195 10.75 14.6208C10.75 14.6221 10.75 14.6234 10.75 14.6248C10.75 14.6261 10.75 14.6274 10.75 14.6287C10.75 14.63 10.75 14.6314 10.75 14.6327C10.75 14.634 10.75 14.6353 10.75 14.6366C10.75 14.638 10.75 14.6393 10.75 14.6406C10.75 14.6419 10.75 14.6433 10.75 14.6446C10.75 14.6459 10.75 14.6472 10.75 14.6485C10.75 14.6499 10.75 14.6512 10.75 14.6525C10.75 14.6538 10.75 14.6552 10.75 14.6565C10.75 14.6578 10.75 14.6591 10.75 14.6605C10.75 14.6618 10.75 14.6631 10.75 14.6644C10.75 14.6658 10.75 14.6671 10.75 14.6684C10.75 14.6697 10.75 14.6711 10.75 14.6724C10.75 14.6737 10.75 14.675 10.75 14.6764C10.75 14.6777 10.75 14.679 10.75 14.6803C10.75 14.6817 10.75 14.683 10.75 14.6843C10.75 14.6856 10.75 14.687 10.75 14.6883C10.75 14.6896 10.75 14.6909 10.75 14.6923C10.75 14.6936 10.75 14.6949 10.75 14.6962C10.75 14.6976 10.75 14.6989 10.75 14.7002C10.75 14.7016 10.75 14.7029 10.75 14.7042C10.75 14.7055 10.75 14.7069 10.75 14.7082C10.75 14.7095 10.75 14.7108 10.75 14.7122C10.75 14.7135 10.75 14.7148 10.75 14.7162C10.75 14.7175 10.75 14.7188 10.75 14.7202C10.75 14.7215 10.75 14.7228 10.75 14.7241C10.75 14.7255 10.75 14.7268 10.75 14.7281C10.75 14.7295 10.75 14.7308 10.75 14.7321C10.75 14.7334 10.75 14.7348 10.75 14.7361C10.75 14.7374 10.75 14.7388 10.75 14.7401C10.75 14.7414 10.75 14.7428 10.75 14.7441C10.75 14.7454 10.75 14.7468 10.75 14.7481C10.75 14.7494 10.75 14.7508 10.75 14.7521C10.75 14.7534 10.75 14.7547 10.75 14.7561C10.75 14.7574 10.75 14.7587 10.75 14.7601C10.75 14.7614 10.75 14.7627 10.75 14.7641C10.75 14.7654 10.75 14.7667 10.75 14.7681C10.75 14.7694 10.75 14.7707 10.75 14.7721C10.75 14.7734 10.75 14.7747 10.75 14.7761C10.75 14.7774 10.75 14.7787 10.75 14.7801C10.75 14.7814 10.75 14.7828 10.75 14.7841C10.75 14.7854 10.75 14.7868 10.75 14.7881C10.75 14.7894 10.75 14.7908 10.75 14.7921C10.75 14.7934 10.75 14.7948 10.75 14.7961C10.75 14.7974 10.75 14.7988 10.75 14.8001C10.75 14.8014 10.75 14.8028 10.75 14.8041C10.75 14.8055 10.75 14.8068 10.75 14.8081C10.75 14.8095 10.75 14.8108 10.75 14.8121C10.75 14.8135 10.75 14.8148 10.75 14.8162C10.75 14.8175 10.75 14.8188 10.75 14.8202C10.75 14.8215 10.75 14.8228 10.75 14.8242C10.75 14.8255 10.75 14.8269 10.75 14.8282C10.75 14.8295 10.75 14.8309 10.75 14.8322C10.75 14.8335 10.75 14.8349 10.75 14.8362C10.75 14.8376 10.75 14.8389 10.75 14.8402C10.75 14.8416 10.75 14.8429 10.75 14.8443C10.75 14.8456 10.75 14.8469 10.75 14.8483C10.75 14.8496 10.75 14.851 10.75 14.8523C10.75 14.8536 10.75 14.855 10.75 14.8563C10.75 14.8577 10.75 14.859 10.75 14.8603C10.75 14.8617 10.75 14.863 10.75 14.8644C10.75 14.8657 10.75 14.8671 10.75 14.8684C10.75 14.8697 10.75 14.8711 10.75 14.8724C10.75 14.8738 10.75 14.8751 10.75 14.8764C10.75 14.8778 10.75 14.8791 10.75 14.8805C10.75 14.8818 10.75 14.8832 10.75 14.8845C10.75 14.8858 10.75 14.8872 10.75 14.8885C10.75 14.8899 10.75 14.8912 10.75 14.8926C10.75 14.8939 10.75 14.8952 10.75 14.8966C10.75 14.8979 10.75 14.8993 10.75 14.9006C10.75 14.902 10.75 14.9033 10.75 14.9047C10.75 14.906 10.75 14.9073 10.75 14.9087C10.75 14.91 10.75 14.9114 10.75 14.9127C10.75 14.9141 10.75 14.9154 10.75 14.9168C10.75 14.9181 10.75 14.9195 10.75 14.9208C10.75 14.9221 10.75 14.9235 10.75 14.9248C10.75 14.9262 10.75 14.9275 10.75 14.9289C10.75 14.9302 10.75 14.9316 10.75 14.9329C10.75 14.9343 10.75 14.9356 10.75 14.937C10.75 14.9383 10.75 14.9397 10.75 14.941C10.75 14.9424 10.75 14.9437 10.75 14.945C10.75 14.9464 10.75 14.9477 10.75 14.9491C10.75 14.9504 10.75 14.9518 10.75 14.9531C10.75 14.9545 10.75 14.9558 10.75 14.9572C10.75 14.9585 10.75 14.9599 10.75 14.9612C10.75 14.9626 10.75 14.9639 10.75 14.9653C10.75 14.9666 10.75 14.968 10.75 14.9693C10.75 14.9707 10.75 14.972 10.75 14.9734C10.75 14.9747 10.75 14.9761 10.75 14.9774C10.75 14.9788 10.75 14.9801 10.75 14.9815C10.75 14.9828 10.75 14.9842 10.75 14.9855C10.75 14.9869 10.75 14.9882 10.75 14.9896C10.75 14.9909 10.75 14.9923 10.75 14.9936C10.75 14.995 10.75 14.9963 10.75 14.9977C10.75 14.999 10.75 15.0004 10.75 15.0018C10.75 15.0031 10.75 15.0045 10.75 15.0058C10.75 15.0072 10.75 15.0085 10.75 15.0099C10.75 15.0112 10.75 15.0126 10.75 15.0139C10.75 15.0153 10.75 15.0166 10.75 15.018C10.75 15.0193 10.75 15.0207 10.75 15.022C10.75 15.0234 10.75 15.0248 10.75 15.0261C10.75 15.0275 10.75 15.0288 10.75 15.0302C10.75 15.0315 10.75 15.0329 10.75 15.0342C10.75 15.0356 10.75 15.0369 10.75 15.0383C10.75 15.0397 10.75 15.041 10.75 15.0424C10.75 15.0437 10.75 15.0451 10.75 15.0464C10.75 15.0478 10.75 15.0491 10.75 15.0505C10.75 15.0519 10.75 15.0532 10.75 15.0546C10.75 15.0559 10.75 15.0573 10.75 15.0586C10.75 15.06 10.75 15.0614 10.75 15.0627C10.75 15.0641 10.75 15.0654 10.75 15.0668C10.75 15.0681 10.75 15.0695 10.75 15.0709C10.75 15.0722 10.75 15.0736 10.75 15.0749C10.75 15.0763 10.75 15.0776 10.75 15.079C10.75 15.0804 10.75 15.0817 10.75 15.0831C10.75 15.0844 10.75 15.0858 10.75 15.0872C10.75 15.0885 10.75 15.0899 10.75 15.0912C10.75 15.0926 10.75 15.094 10.75 15.0953C10.75 15.0967 10.75 15.098 10.75 15.0994C10.75 15.1008 10.75 15.1021 10.75 15.1035C10.75 15.1048 10.75 15.1062 10.75 15.1076C10.75 15.1089 10.75 15.1103 10.75 15.1116C10.75 15.113 10.75 15.1144 10.75 15.1157C10.75 15.1171 10.75 15.1184 10.75 15.1198C10.75 15.1212 10.75 15.1225 10.75 15.1239C10.75 15.1252 10.75 15.1266 10.75 15.128C10.75 15.1293 10.75 15.1307 10.75 15.1321C10.75 15.1334 10.75 15.1348 10.75 15.1361C10.75 15.1375 10.75 15.1389 10.75 15.1402C10.75 15.1416 10.75 15.143 10.75 15.1443C10.75 15.1457 10.75 15.147 10.75 15.1484C10.75 15.1498 10.75 15.1511 10.75 15.1525C10.75 15.1539 10.75 15.1552 10.75 15.1566C10.75 15.158 10.75 15.1593 10.75 15.1607C10.75 15.162 10.75 15.1634 10.75 15.1648C10.75 15.1661 10.75 15.1675 10.75 15.1689C10.75 15.1702 10.75 15.1716 10.75 15.173C10.75 15.1743 10.75 15.1757 10.75 15.1771C10.75 15.1784 10.75 15.1798 10.75 15.1812C10.75 15.1825 10.75 15.1839 10.75 15.1853C10.75 15.1866 10.75 15.188 10.75 15.1894C10.75 15.1907 10.75 15.1921 10.75 15.1935C10.75 15.1948 10.75 15.1962 10.75 15.1976C10.75 15.1989 10.75 15.2003 10.75 15.2017C10.75 15.203 10.75 15.2044 10.75 15.2058C10.75 15.2071 10.75 15.2085 10.75 15.2099C10.75 15.2112 10.75 15.2126 10.75 15.214C10.75 15.2153 10.75 15.2167 10.75 15.2181C10.75 15.2194 10.75 15.2208 10.75 15.2222C10.75 15.2235 10.75 15.2249 10.75 15.2263C10.75 15.2277 10.75 15.229 10.75 15.2304C10.75 15.2318 10.75 15.2331 10.75 15.2345C10.75 15.2359 10.75 15.2372 10.75 15.2386C10.75 15.24 10.75 15.2414 10.75 15.2427C10.75 15.2441 10.75 15.2455 10.75 15.2468C10.75 15.2482 10.75 15.2496 10.75 15.2509C10.75 15.2523 10.75 15.2537 10.75 15.2551C10.75 15.2564 10.75 15.2578 10.75 15.2592C10.75 15.2605 10.75 15.2619 10.75 15.2633C10.75 15.2647 10.75 15.266 10.75 15.2674C10.75 15.2688 10.75 15.2701 10.75 15.2715C10.75 15.2729 10.75 15.2743 10.75 15.2756C10.75 15.277 10.75 15.2784 10.75 15.2798C10.75 15.2811 10.75 15.2825 10.75 15.2839C10.75 15.2852 10.75 15.2866 10.75 15.288C10.75 15.2894 10.75 15.2907 10.75 15.2921C10.75 15.2935 10.75 15.2949 10.75 15.2962C10.75 15.2976 10.75 15.299 10.75 15.3004C10.75 15.3017 10.75 15.3031 10.75 15.3045C10.75 15.3059 10.75 15.3072 10.75 15.3086C10.75 15.31 10.75 15.3114 10.75 15.3127C10.75 15.3141 10.75 15.3155 10.75 15.3169C10.75 15.3182 10.75 15.3196 10.75 15.321C10.75 15.3224 10.75 15.3237 10.75 15.3251C10.75 15.3265 10.75 15.3279 10.75 15.3292C10.75 15.3306 10.75 15.332 10.75 15.3334C10.75 15.3347 10.75 15.3361 10.75 15.3375C10.75 15.3389 10.75 15.3402 10.75 15.3416C10.75 15.343 10.75 15.3444 10.75 15.3458C10.75 15.3471 10.75 15.3485 10.75 15.3499C10.75 15.3513 10.75 15.3526 10.75 15.354C10.75 15.3554 10.75 15.3568 10.75 15.3582C10.75 15.3595 10.75 15.3609 10.75 15.3623C10.75 15.3637 10.75 15.365 10.75 15.3664C10.75 15.3678 10.75 15.3692 10.75 15.3706C10.75 15.3719 10.75 15.3733 10.75 15.3747C10.75 15.3761 10.75 15.3775 10.75 15.3788C10.75 15.3802 10.75 15.3816 10.75 15.383C10.75 15.3844 10.75 15.3857 10.75 15.3871C10.75 15.3885 10.75 15.3899 10.75 15.3913C10.75 15.3926 10.75 15.394 10.75 15.3954C10.75 15.3968 10.75 15.3982 10.75 15.3995C10.75 15.4009 10.75 15.4023 10.75 15.4037C10.75 15.4051 10.75 15.4064 10.75 15.4078C10.75 15.4092 10.75 15.4106 10.75 15.412C10.75 15.4134 10.75 15.4147 10.75 15.4161C10.75 15.4175 10.75 15.4189 10.75 15.4203C10.75 15.4216 10.75 15.423 10.75 15.4244C10.75 15.4258 10.75 15.4272 10.75 15.4286C10.75 15.4299 10.75 15.4313 10.75 15.4327C10.75 15.4341 10.75 15.4355 10.75 15.4369C10.75 15.4382 10.75 15.4396 10.75 15.441C10.75 15.4424 10.75 15.4438 10.75 15.4452C10.75 15.4465 10.75 15.4479 10.75 15.4493C10.75 15.4507 10.75 15.4521 10.75 15.4535C10.75 15.4548 10.75 15.4562 10.75 15.4576C10.75 15.459 10.75 15.4604 10.75 15.4618C10.75 15.4632 10.75 15.4645 10.75 15.4659C10.75 15.4673 10.75 15.4687 10.75 15.4701C10.75 15.4715 10.75 15.4729 10.75 15.4742C10.75 15.4756 10.75 15.477 10.75 15.4784C10.75 15.4798 10.75 15.4812 10.75 15.4826C10.75 15.4839 10.75 15.4853 10.75 15.4867C10.75 15.4881 10.75 15.4895 10.75 15.4909H12.25C12.25 15.4895 12.25 15.4881 12.25 15.4867C12.25 15.4853 12.25 15.4839 12.25 15.4826C12.25 15.4812 12.25 15.4798 12.25 15.4784C12.25 15.477 12.25 15.4756 12.25 15.4742C12.25 15.4729 12.25 15.4715 12.25 15.4701C12.25 15.4687 12.25 15.4673 12.25 15.4659C12.25 15.4645 12.25 15.4632 12.25 15.4618C12.25 15.4604 12.25 15.459 12.25 15.4576C12.25 15.4562 12.25 15.4548 12.25 15.4535C12.25 15.4521 12.25 15.4507 12.25 15.4493C12.25 15.4479 12.25 15.4465 12.25 15.4452C12.25 15.4438 12.25 15.4424 12.25 15.441C12.25 15.4396 12.25 15.4382 12.25 15.4369C12.25 15.4355 12.25 15.4341 12.25 15.4327C12.25 15.4313 12.25 15.4299 12.25 15.4286C12.25 15.4272 12.25 15.4258 12.25 15.4244C12.25 15.423 12.25 15.4216 12.25 15.4203C12.25 15.4189 12.25 15.4175 12.25 15.4161C12.25 15.4147 12.25 15.4134 12.25 15.412C12.25 15.4106 12.25 15.4092 12.25 15.4078C12.25 15.4064 12.25 15.4051 12.25 15.4037C12.25 15.4023 12.25 15.4009 12.25 15.3995C12.25 15.3982 12.25 15.3968 12.25 15.3954C12.25 15.394 12.25 15.3926 12.25 15.3913C12.25 15.3899 12.25 15.3885 12.25 15.3871C12.25 15.3857 12.25 15.3844 12.25 15.383C12.25 15.3816 12.25 15.3802 12.25 15.3788C12.25 15.3775 12.25 15.3761 12.25 15.3747C12.25 15.3733 12.25 15.3719 12.25 15.3706C12.25 15.3692 12.25 15.3678 12.25 15.3664C12.25 15.365 12.25 15.3637 12.25 15.3623C12.25 15.3609 12.25 15.3595 12.25 15.3582C12.25 15.3568 12.25 15.3554 12.25 15.354C12.25 15.3526 12.25 15.3513 12.25 15.3499C12.25 15.3485 12.25 15.3471 12.25 15.3458C12.25 15.3444 12.25 15.343 12.25 15.3416C12.25 15.3402 12.25 15.3389 12.25 15.3375C12.25 15.3361 12.25 15.3347 12.25 15.3334C12.25 15.332 12.25 15.3306 12.25 15.3292C12.25 15.3279 12.25 15.3265 12.25 15.3251C12.25 15.3237 12.25 15.3224 12.25 15.321C12.25 15.3196 12.25 15.3182 12.25 15.3169C12.25 15.3155 12.25 15.3141 12.25 15.3127C12.25 15.3114 12.25 15.31 12.25 15.3086C12.25 15.3072 12.25 15.3059 12.25 15.3045C12.25 15.3031 12.25 15.3017 12.25 15.3004C12.25 15.299 12.25 15.2976 12.25 15.2962C12.25 15.2949 12.25 15.2935 12.25 15.2921C12.25 15.2907 12.25 15.2894 12.25 15.288C12.25 15.2866 12.25 15.2852 12.25 15.2839C12.25 15.2825 12.25 15.2811 12.25 15.2798C12.25 15.2784 12.25 15.277 12.25 15.2756C12.25 15.2743 12.25 15.2729 12.25 15.2715C12.25 15.2701 12.25 15.2688 12.25 15.2674C12.25 15.266 12.25 15.2647 12.25 15.2633C12.25 15.2619 12.25 15.2605 12.25 15.2592C12.25 15.2578 12.25 15.2564 12.25 15.2551C12.25 15.2537 12.25 15.2523 12.25 15.2509C12.25 15.2496 12.25 15.2482 12.25 15.2468C12.25 15.2455 12.25 15.2441 12.25 15.2427C12.25 15.2414 12.25 15.24 12.25 15.2386C12.25 15.2372 12.25 15.2359 12.25 15.2345C12.25 15.2331 12.25 15.2318 12.25 15.2304C12.25 15.229 12.25 15.2277 12.25 15.2263C12.25 15.2249 12.25 15.2235 12.25 15.2222C12.25 15.2208 12.25 15.2194 12.25 15.2181C12.25 15.2167 12.25 15.2153 12.25 15.214C12.25 15.2126 12.25 15.2112 12.25 15.2099C12.25 15.2085 12.25 15.2071 12.25 15.2058C12.25 15.2044 12.25 15.203 12.25 15.2017C12.25 15.2003 12.25 15.1989 12.25 15.1976C12.25 15.1962 12.25 15.1948 12.25 15.1935C12.25 15.1921 12.25 15.1907 12.25 15.1894C12.25 15.188 12.25 15.1866 12.25 15.1853C12.25 15.1839 12.25 15.1825 12.25 15.1812C12.25 15.1798 12.25 15.1784 12.25 15.1771C12.25 15.1757 12.25 15.1743 12.25 15.173C12.25 15.1716 12.25 15.1702 12.25 15.1689C12.25 15.1675 12.25 15.1661 12.25 15.1648C12.25 15.1634 12.25 15.162 12.25 15.1607C12.25 15.1593 12.25 15.158 12.25 15.1566C12.25 15.1552 12.25 15.1539 12.25 15.1525C12.25 15.1511 12.25 15.1498 12.25 15.1484C12.25 15.147 12.25 15.1457 12.25 15.1443C12.25 15.143 12.25 15.1416 12.25 15.1402C12.25 15.1389 12.25 15.1375 12.25 15.1361C12.25 15.1348 12.25 15.1334 12.25 15.1321C12.25 15.1307 12.25 15.1293 12.25 15.128C12.25 15.1266 12.25 15.1252 12.25 15.1239C12.25 15.1225 12.25 15.1212 12.25 15.1198C12.25 15.1184 12.25 15.1171 12.25 15.1157C12.25 15.1144 12.25 15.113 12.25 15.1116C12.25 15.1103 12.25 15.1089 12.25 15.1076C12.25 15.1062 12.25 15.1048 12.25 15.1035C12.25 15.1021 12.25 15.1008 12.25 15.0994C12.25 15.098 12.25 15.0967 12.25 15.0953C12.25 15.094 12.25 15.0926 12.25 15.0912C12.25 15.0899 12.25 15.0885 12.25 15.0872C12.25 15.0858 12.25 15.0844 12.25 15.0831C12.25 15.0817 12.25 15.0804 12.25 15.079C12.25 15.0776 12.25 15.0763 12.25 15.0749C12.25 15.0736 12.25 15.0722 12.25 15.0709C12.25 15.0695 12.25 15.0681 12.25 15.0668C12.25 15.0654 12.25 15.0641 12.25 15.0627C12.25 15.0614 12.25 15.06 12.25 15.0586C12.25 15.0573 12.25 15.0559 12.25 15.0546C12.25 15.0532 12.25 15.0519 12.25 15.0505C12.25 15.0491 12.25 15.0478 12.25 15.0464C12.25 15.0451 12.25 15.0437 12.25 15.0424C12.25 15.041 12.25 15.0397 12.25 15.0383C12.25 15.0369 12.25 15.0356 12.25 15.0342C12.25 15.0329 12.25 15.0315 12.25 15.0302C12.25 15.0288 12.25 15.0275 12.25 15.0261C12.25 15.0248 12.25 15.0234 12.25 15.022C12.25 15.0207 12.25 15.0193 12.25 15.018C12.25 15.0166 12.25 15.0153 12.25 15.0139C12.25 15.0126 12.25 15.0112 12.25 15.0099C12.25 15.0085 12.25 15.0072 12.25 15.0058C12.25 15.0045 12.25 15.0031 12.25 15.0018C12.25 15.0004 12.25 14.999 12.25 14.9977C12.25 14.9963 12.25 14.995 12.25 14.9936C12.25 14.9923 12.25 14.9909 12.25 14.9896C12.25 14.9882 12.25 14.9869 12.25 14.9855C12.25 14.9842 12.25 14.9828 12.25 14.9815C12.25 14.9801 12.25 14.9788 12.25 14.9774C12.25 14.9761 12.25 14.9747 12.25 14.9734C12.25 14.972 12.25 14.9707 12.25 14.9693C12.25 14.968 12.25 14.9666 12.25 14.9653C12.25 14.9639 12.25 14.9626 12.25 14.9612C12.25 14.9599 12.25 14.9585 12.25 14.9572C12.25 14.9558 12.25 14.9545 12.25 14.9531C12.25 14.9518 12.25 14.9504 12.25 14.9491C12.25 14.9477 12.25 14.9464 12.25 14.945C12.25 14.9437 12.25 14.9424 12.25 14.941C12.25 14.9397 12.25 14.9383 12.25 14.937C12.25 14.9356 12.25 14.9343 12.25 14.9329C12.25 14.9316 12.25 14.9302 12.25 14.9289C12.25 14.9275 12.25 14.9262 12.25 14.9248C12.25 14.9235 12.25 14.9221 12.25 14.9208C12.25 14.9195 12.25 14.9181 12.25 14.9168C12.25 14.9154 12.25 14.9141 12.25 14.9127C12.25 14.9114 12.25 14.91 12.25 14.9087C12.25 14.9073 12.25 14.906 12.25 14.9047C12.25 14.9033 12.25 14.902 12.25 14.9006C12.25 14.8993 12.25 14.8979 12.25 14.8966C12.25 14.8952 12.25 14.8939 12.25 14.8926C12.25 14.8912 12.25 14.8899 12.25 14.8885C12.25 14.8872 12.25 14.8858 12.25 14.8845C12.25 14.8832 12.25 14.8818 12.25 14.8805C12.25 14.8791 12.25 14.8778 12.25 14.8764C12.25 14.8751 12.25 14.8738 12.25 14.8724C12.25 14.8711 12.25 14.8697 12.25 14.8684C12.25 14.8671 12.25 14.8657 12.25 14.8644C12.25 14.863 12.25 14.8617 12.25 14.8603C12.25 14.859 12.25 14.8577 12.25 14.8563C12.25 14.855 12.25 14.8536 12.25 14.8523C12.25 14.851 12.25 14.8496 12.25 14.8483C12.25 14.8469 12.25 14.8456 12.25 14.8443C12.25 14.8429 12.25 14.8416 12.25 14.8402C12.25 14.8389 12.25 14.8376 12.25 14.8362C12.25 14.8349 12.25 14.8335 12.25 14.8322C12.25 14.8309 12.25 14.8295 12.25 14.8282C12.25 14.8269 12.25 14.8255 12.25 14.8242C12.25 14.8228 12.25 14.8215 12.25 14.8202C12.25 14.8188 12.25 14.8175 12.25 14.8162C12.25 14.8148 12.25 14.8135 12.25 14.8121C12.25 14.8108 12.25 14.8095 12.25 14.8081C12.25 14.8068 12.25 14.8055 12.25 14.8041C12.25 14.8028 12.25 14.8014 12.25 14.8001C12.25 14.7988 12.25 14.7974 12.25 14.7961C12.25 14.7948 12.25 14.7934 12.25 14.7921C12.25 14.7908 12.25 14.7894 12.25 14.7881C12.25 14.7868 12.25 14.7854 12.25 14.7841C12.25 14.7828 12.25 14.7814 12.25 14.7801C12.25 14.7787 12.25 14.7774 12.25 14.7761C12.25 14.7747 12.25 14.7734 12.25 14.7721C12.25 14.7707 12.25 14.7694 12.25 14.7681C12.25 14.7667 12.25 14.7654 12.25 14.7641C12.25 14.7627 12.25 14.7614 12.25 14.7601C12.25 14.7587 12.25 14.7574 12.25 14.7561C12.25 14.7547 12.25 14.7534 12.25 14.7521C12.25 14.7508 12.25 14.7494 12.25 14.7481C12.25 14.7468 12.25 14.7454 12.25 14.7441C12.25 14.7428 12.25 14.7414 12.25 14.7401C12.25 14.7388 12.25 14.7374 12.25 14.7361C12.25 14.7348 12.25 14.7334 12.25 14.7321C12.25 14.7308 12.25 14.7295 12.25 14.7281C12.25 14.7268 12.25 14.7255 12.25 14.7241C12.25 14.7228 12.25 14.7215 12.25 14.7202C12.25 14.7188 12.25 14.7175 12.25 14.7162C12.25 14.7148 12.25 14.7135 12.25 14.7122C12.25 14.7108 12.25 14.7095 12.25 14.7082C12.25 14.7069 12.25 14.7055 12.25 14.7042C12.25 14.7029 12.25 14.7016 12.25 14.7002C12.25 14.6989 12.25 14.6976 12.25 14.6962C12.25 14.6949 12.25 14.6936 12.25 14.6923C12.25 14.6909 12.25 14.6896 12.25 14.6883C12.25 14.687 12.25 14.6856 12.25 14.6843C12.25 14.683 12.25 14.6817 12.25 14.6803C12.25 14.679 12.25 14.6777 12.25 14.6764C12.25 14.675 12.25 14.6737 12.25 14.6724C12.25 14.6711 12.25 14.6697 12.25 14.6684C12.25 14.6671 12.25 14.6658 12.25 14.6644C12.25 14.6631 12.25 14.6618 12.25 14.6605C12.25 14.6591 12.25 14.6578 12.25 14.6565C12.25 14.6552 12.25 14.6538 12.25 14.6525C12.25 14.6512 12.25 14.6499 12.25 14.6485C12.25 14.6472 12.25 14.6459 12.25 14.6446C12.25 14.6433 12.25 14.6419 12.25 14.6406C12.25 14.6393 12.25 14.638 12.25 14.6366C12.25 14.6353 12.25 14.634 12.25 14.6327C12.25 14.6314 12.25 14.63 12.25 14.6287C12.25 14.6274 12.25 14.6261 12.25 14.6248C12.25 14.6234 12.25 14.6221 12.25 14.6208C12.25 14.6195 12.25 14.6181 12.25 14.6168C12.25 14.6155 12.25 14.6142 12.25 14.6129C12.25 14.6115 12.25 14.6102 12.25 14.6089C12.25 14.6076 12.25 14.6063 12.25 14.605C12.25 14.6036 12.25 14.6023 12.25 14.601C12.25 14.5997 12.25 14.5984 12.25 14.597C12.25 14.5957 12.25 14.5944 12.25 14.5931C12.25 14.5918 12.25 14.5905 12.25 14.5891C12.25 14.5878 12.25 14.5865 12.25 14.5852C12.25 14.5839 12.25 14.5825 12.25 14.5812C12.25 14.5799 12.25 14.5786 12.25 14.5773C12.25 14.576 12.25 14.5746 12.25 14.5733C12.25 14.572 12.25 14.5707 12.25 14.5694C12.25 14.5681 12.25 14.5668 12.25 14.5654C12.25 14.5641 12.25 14.5628 12.25 14.5615C12.25 14.5602 12.25 14.5589 12.25 14.5575C12.25 14.5562 12.25 14.5549 12.25 14.5536C12.25 14.5523 12.25 14.551 12.25 14.5497C12.25 14.5483 12.25 14.547 12.25 14.5457C12.25 14.5444 12.25 14.5431 12.25 14.5418C12.25 14.5405 12.25 14.5392 12.25 14.5378C12.25 14.5365 12.25 14.5352 12.25 14.5339C12.25 14.5326 12.25 14.5313 12.25 14.53C12.25 14.5287 12.25 14.5273 12.25 14.526C12.25 14.5247 12.25 14.5234 12.25 14.5221C12.25 14.5208 12.25 14.5195 12.25 14.5182C12.25 14.5169 12.25 14.5155 12.25 14.5142C12.25 14.5129 12.25 14.5116 12.25 14.5103C12.25 14.509 12.25 14.5077 12.25 14.5064C12.25 14.5051 12.25 14.5037 12.25 14.5024C12.25 14.5011 12.25 14.4998 12.25 14.4985C12.25 14.4972 12.25 14.4959 12.25 14.4946C12.25 14.4933 12.25 14.492 12.25 14.4907C12.25 14.4893 12.25 14.488 12.25 14.4867C12.25 14.4854 12.25 14.4841 12.25 14.4828C12.25 14.4815 12.25 14.4802 12.25 14.4789C12.25 14.4776 12.25 14.4763 12.25 14.475C12.25 14.4737 12.25 14.4724 12.25 14.471C12.25 14.4697 12.25 14.4684 12.25 14.4671C12.25 14.4658 12.25 14.4645 12.25 14.4632C12.25 14.4619 12.25 14.4606 12.25 14.4593C12.25 14.458 12.25 14.4567 12.25 14.4554C12.25 14.4541 12.25 14.4528 12.25 14.4515C12.25 14.4502 12.25 14.4489 12.25 14.4475C12.25 14.4462 12.25 14.4449 12.25 14.4436C12.25 14.4423 12.25 14.441 12.25 14.4397C12.25 14.4384 12.25 14.4371 12.25 14.4358C12.25 14.4345 12.25 14.4332 12.25 14.4319C12.25 14.4306 12.25 14.4293 12.25 14.428C12.25 14.4267 12.25 14.4254 12.25 14.4241C12.25 14.4228 12.25 14.4215 12.25 14.4202C12.25 14.4189 12.25 14.4176 12.25 14.4163C12.25 14.415 12.25 14.4137 12.25 14.4124C12.25 14.4111 12.25 14.4098 12.25 14.4085C12.25 14.4072 12.25 14.4059 12.25 14.4046C12.25 14.4033 12.25 14.402 12.25 14.4007C12.25 14.3994 12.25 14.3981 12.25 14.3968C12.25 14.3955 12.25 14.3942 12.25 14.3929C12.25 14.3916 12.25 14.3903 12.25 14.389C12.25 14.3877 12.25 14.3864 12.25 14.3851C12.25 14.3838 12.25 14.3825 12.25 14.3812C12.25 14.3799 12.25 14.3786 12.25 14.3773C12.25 14.376 12.25 14.3747 12.25 14.3734C12.25 14.3721 12.25 14.3708 12.25 14.3695C12.25 14.3682 12.25 14.3669 12.25 14.3656C12.25 14.3643 12.25 14.363 12.25 14.3617C12.25 14.3604 12.25 14.3591 12.25 14.3579C12.25 14.3566 12.25 14.3553 12.25 14.354C12.25 14.3527 12.25 14.3514 12.25 14.3501C12.25 14.3488 12.25 14.3475 12.25 14.3462C12.25 14.3449 12.25 14.3436 12.25 14.3423C12.25 14.341 12.25 14.3397 12.25 14.3384C12.25 14.3371 12.25 14.3358 12.25 14.3346C12.25 14.3333 12.25 14.332 12.25 14.3307C12.25 14.3294 12.25 14.3281 12.25 14.3268C12.25 14.3255 12.25 14.3242 12.25 14.3229C12.25 14.3216 12.25 14.3203 12.25 14.319C12.25 14.3178 12.25 14.3165 12.25 14.3152C12.25 14.3139 12.25 14.3126 12.25 14.3113C12.25 14.31 12.25 14.3087 12.25 14.3074C12.25 14.3061 12.25 14.3048 12.25 14.3036C12.25 14.3023 12.25 14.301 12.25 14.2997C12.25 14.2984 12.25 14.2971 12.25 14.2958C12.25 14.2945 12.25 14.2932 12.25 14.2919C12.25 14.2907 12.25 14.2894 12.25 14.2881C12.25 14.2868 12.25 14.2855 12.25 14.2842C12.25 14.2829 12.25 14.2816 12.25 14.2804C12.25 14.2791 12.25 14.2778 12.25 14.2765C12.25 14.2752 12.25 14.2739 12.25 14.2726C12.25 14.2713 12.25 14.2701 12.25 14.2688C12.25 14.2675 12.25 14.2662 12.25 14.2649C12.25 14.2636 12.25 14.2623 12.25 14.2611C12.25 14.2598 12.25 14.2585 12.25 14.2572C12.25 14.2559 12.25 14.2546 12.25 14.2533C12.25 14.2521 12.25 14.2508 12.25 14.2495C12.25 14.2482 12.25 14.2469 12.25 14.2456C12.25 14.2443 12.25 14.2431 12.25 14.2418C12.25 14.2405 12.25 14.2392 12.25 14.2379C12.25 14.2366 12.25 14.2354 12.25 14.2341C12.25 14.2328 12.25 14.2315 12.25 14.2302C12.25 14.2289 12.25 14.2277 12.25 14.2264C12.25 14.2251 12.25 14.2238 12.25 14.2225C12.25 14.2213 12.25 14.22 12.25 14.2187C12.25 14.2174 12.25 14.2161 12.25 14.2149C12.25 14.2136 12.25 14.2123 12.25 14.211C12.25 14.2097 12.25 14.2084 12.25 14.2072C12.25 14.2059 12.25 14.2046 12.25 14.2033C12.25 14.202 12.25 14.2008 12.25 14.1995C12.25 14.1982 12.25 14.1969 12.25 14.1957C12.25 14.1944 12.25 14.1931 12.25 14.1918C12.25 14.1905 12.25 14.1893 12.25 14.188C12.25 14.1867 12.25 14.1854 12.25 14.1841C12.25 14.1829 12.25 14.1816 12.25 14.1803C12.25 14.179 12.25 14.1778 12.25 14.1765C12.25 14.1752 12.25 14.1739 12.25 14.1727C12.25 14.1714 12.25 14.1701 12.25 14.1688C12.25 14.1675 12.25 14.1663 12.25 14.165C12.25 14.1637 12.25 14.1624 12.25 14.1612C12.25 14.1599 12.25 14.1586 12.25 14.1573C12.25 14.1561 12.25 14.1548 12.25 14.1535C12.25 14.1522 12.25 14.151 12.25 14.1497C12.25 14.1484 12.25 14.1471 12.25 14.1459C12.25 14.1446 12.25 14.1433 12.25 14.1421C12.25 14.1408 12.25 14.1395 12.25 14.1382C12.25 14.137 12.25 14.1357 12.25 14.1344C12.25 14.1331 12.25 14.1319 12.25 14.1306C12.25 14.1293 12.25 14.1281 12.25 14.1268C12.25 14.1255 12.25 14.1242 12.25 14.123C12.25 14.1217 12.25 14.1204 12.25 14.1192C12.25 14.1179 12.25 14.1166 12.25 14.1153C12.25 14.1141 12.25 14.1128 12.25 14.1115C12.25 14.1103 12.25 14.109 12.25 14.1077C12.25 14.1065 12.25 14.1052 12.25 14.1039C12.25 14.1027 12.25 14.1014 12.25 14.1001C12.25 14.0988 12.25 14.0976 12.25 14.0963C12.25 14.095 12.25 14.0938 12.25 14.0925C12.25 14.0912 12.25 14.09 12.25 14.0887C12.25 14.0874 12.25 14.0862 12.25 14.0849C12.25 14.0836 12.25 14.0824 12.25 14.0811C12.25 14.0798 12.25 14.0786 12.25 14.0773C12.25 14.076 12.25 14.0748 12.25 14.0735C12.25 14.0722 12.25 14.071 12.25 14.0697C12.25 14.0684 12.25 14.0672 12.25 14.0659C12.25 14.0646 12.25 14.0634 12.25 14.0621C12.25 14.0609 12.25 14.0596 12.25 14.0583C12.25 14.0571 12.25 14.0558 12.25 14.0545C12.25 14.0533 12.25 14.052 12.25 14.0507C12.25 14.0495 12.25 14.0482 12.25 14.047C12.25 14.0457 12.25 14.0444 12.25 14.0432C12.25 14.0419 12.25 14.0406 12.25 14.0394C12.25 14.0381 12.25 14.0369 12.25 14.0356C12.25 14.0343 12.25 14.0331 12.25 14.0318C12.25 14.0305 12.25 14.0293 12.25 14.028C12.25 14.0268 12.25 14.0255 12.25 14.0242C12.25 14.023 12.25 14.0217 12.25 14.0205C12.25 14.0192 12.25 14.0179 12.25 14.0167C12.25 14.0154 12.25 14.0142 12.25 14.0129C12.25 14.0116 12.25 14.0104 12.25 14.0091C12.25 14.0079 12.25 14.0066 12.25 14.0054C12.25 14.0041 12.25 14.0028 12.25 14.0016C12.25 14.0003 12.25 13.9991 12.25 13.9978C12.25 13.9965 12.25 13.9953 12.25 13.994C12.25 13.9928 12.25 13.9915 12.25 13.9903C12.25 13.989 12.25 13.9878 12.25 13.9865C12.25 13.9852 12.25 13.984 12.25 13.9827C12.25 13.9815 12.25 13.9802 12.25 13.979C12.25 13.9777 12.25 13.9765 12.25 13.9752C12.25 13.9739 12.25 13.9727 12.25 13.9714C12.25 13.9702 12.25 13.9689 12.25 13.9677C12.25 13.9664 12.25 13.9652 12.25 13.9639C12.25 13.9627 12.25 13.9614 12.25 13.9602C12.25 13.9589 12.25 13.9576 12.25 13.9564C12.25 13.9551 12.25 13.9539 12.25 13.9526C12.25 13.9514 12.25 13.9501 12.25 13.9489C12.25 13.9476 12.25 13.9464 12.25 13.9451C12.25 13.9439 12.25 13.9426 12.25 13.9414C12.25 13.9401 12.25 13.9389 12.25 13.9376C12.25 13.9364 12.25 13.9351 12.25 13.9339C12.25 13.9326 12.25 13.9314 12.25 13.9301C12.25 13.9289 12.25 13.9276 12.25 13.9264C12.25 13.9251 12.25 13.9239 12.25 13.9226C12.25 13.9214 12.25 13.9201 12.25 13.9189C12.25 13.9176 12.25 13.9164 12.25 13.9151C12.25 13.9139 12.25 13.9126 12.25 13.9114C12.25 13.9101 12.25 13.9089 12.25 13.9077C12.25 13.9064 12.25 13.9052 12.25 13.9039C12.25 13.9027 12.25 13.9014 12.25 13.9002C12.25 13.8989 12.25 13.8977 12.25 13.8964C12.25 13.8952 12.25 13.8939 12.25 13.8927C12.25 13.8915 12.25 13.8902 12.25 13.889C12.25 13.8877 12.25 13.8865 12.25 13.8852C12.25 13.884 12.25 13.8827 12.25 13.8815C12.25 13.8803 12.25 13.879 12.25 13.8778C12.25 13.8765 12.25 13.8753 12.25 13.874C12.25 13.8728 12.25 13.8716 12.25 13.8703C12.25 13.8691 12.25 13.8678 12.25 13.8666C12.25 13.8653 12.25 13.8641 12.25 13.8629C12.25 13.8616 12.25 13.8604 12.25 13.8591C12.25 13.8579 12.25 13.8566 12.25 13.8554C12.25 13.8542 12.25 13.8529 12.25 13.8517C12.25 13.8504 12.25 13.8492 12.25 13.848C12.25 13.8467 12.25 13.8455 12.25 13.8442C12.25 13.843 12.25 13.8418 12.25 13.8405C12.25 13.8393 12.25 13.8381 12.25 13.8368C12.25 13.8356 12.25 13.8343 12.25 13.8331C12.25 13.8319 12.25 13.8306 12.25 13.8294C12.25 13.8281 12.25 13.8269 12.25 13.8257C12.25 13.8244 12.25 13.8232 12.25 13.822C12.25 13.8207 12.25 13.8195 12.25 13.8183C12.25 13.817 12.25 13.8158 12.25 13.8145C12.25 13.8133 12.25 13.8121 12.25 13.8108C12.25 13.8096 12.25 13.8084 12.25 13.8071C12.25 13.8059 12.25 13.8047 12.25 13.8034C12.25 13.8022 12.25 13.801 12.25 13.7997C12.25 13.7985 12.25 13.7973 12.25 13.796C12.25 13.7948 12.25 13.7936 12.25 13.7923C12.25 13.7911 12.25 13.7899 12.25 13.7886C12.25 13.7874 12.25 13.7862 12.25 13.7849C12.25 13.7837 12.25 13.7825 12.25 13.7812C12.25 13.78 12.25 13.7788 12.25 13.7775C12.25 13.7763 12.25 13.7751 12.25 13.7738C12.25 13.7726 12.25 13.7714 12.25 13.7701C12.25 13.7689 12.25 13.7677 12.25 13.7665C12.25 13.7652 12.25 13.764 12.25 13.7628C12.25 13.7615 12.25 13.7603 12.25 13.7591C12.25 13.7579 12.25 13.7566 12.25 13.7554C12.25 13.7542 12.25 13.7529 12.25 13.7517C12.25 13.7505 12.25 13.7493 12.25 13.748C12.25 13.7468 12.25 13.7456 12.25 13.7443C12.25 13.7431 12.25 13.7419 12.25 13.7407C12.25 13.7394 12.25 13.7382 12.25 13.737C12.25 13.7358 12.25 13.7345 12.25 13.7333C12.25 13.7321 12.25 13.7309 12.25 13.7296C12.25 13.7284 12.25 13.7272 12.25 13.7259C12.25 13.7247 12.25 13.7235 12.25 13.7223C12.25 13.7211 12.25 13.7198 12.25 13.7186C12.25 13.7174 12.25 13.7162 12.25 13.7149C12.25 13.7137 12.25 13.7125 12.25 13.7113C12.25 13.71 12.25 13.7088 12.25 13.7076C12.25 13.7064 12.25 13.7051 12.25 13.7039C12.25 13.7027 12.25 13.7015 12.25 13.7003C12.25 13.699 12.25 13.6978 12.25 13.6966C12.25 13.6954 12.25 13.6942 12.25 13.6929C12.25 13.6917 12.25 13.6905 12.25 13.6893C12.25 13.688 12.25 13.6868 12.25 13.6856C12.25 13.6844 12.25 13.6832 12.25 13.6819C12.25 13.6807 12.25 13.6795 12.25 13.6783C12.25 13.6771 12.25 13.6759 12.25 13.6746C12.25 13.6734 12.25 13.6722 12.25 13.671C12.25 13.6698 12.25 13.6685 12.25 13.6673C12.25 13.6661 12.25 13.6649 12.25 13.6637C12.25 13.6625 12.25 13.6612 12.25 13.66C12.25 13.6588 12.25 13.6576 12.25 13.6564C12.25 13.6552 12.25 13.6539 12.25 13.6527C12.25 13.6515 12.25 13.6503 12.25 13.6491C12.25 13.6479 12.25 13.6466 12.25 13.6454C12.25 13.6442 12.25 13.643 12.25 13.6418C12.25 13.6406 12.25 13.6394 12.25 13.6381C12.25 13.6369 12.25 13.6357 12.25 13.6345C12.25 13.6333 12.25 13.6321 12.25 13.6309C12.25 13.6297 12.25 13.6284 12.25 13.6272C12.25 13.626 12.25 13.6248 12.25 13.6236C12.25 13.6224 12.25 13.6212 12.25 13.62C12.25 13.6187 12.25 13.6175 12.25 13.6163C12.25 13.6151 12.25 13.6139 12.25 13.6127C12.25 13.6115 12.25 13.6103 12.25 13.6091C12.25 13.6079 12.25 13.6066 12.25 13.6054C12.25 13.6042 12.25 13.603 12.25 13.6018C12.25 13.6006 12.25 13.5994 12.25 13.5982C12.25 13.597 12.25 13.5958 12.25 13.5946C12.25 13.5933 12.25 13.5921 12.25 13.5909C12.25 13.5897 12.25 13.5885 12.25 13.5873C12.25 13.5861 12.25 13.5849 12.25 13.5837C12.25 13.5825 12.25 13.5813 12.25 13.5801C12.25 13.5789 12.25 13.5777 12.25 13.5764C12.25 13.5752 12.25 13.574 12.25 13.5728C12.25 13.5716 12.25 13.5704 12.25 13.5692C12.25 13.568 12.25 13.5668 12.25 13.5656C12.25 13.5644 12.25 13.5632 12.25 13.562C12.25 13.5608 12.25 13.5596 12.25 13.5584C12.25 13.5572 12.25 13.556 12.25 13.5548C12.25 13.5536 12.25 13.5524 12.25 13.5512C12.25 13.55 12.25 13.5488 12.25 13.5476C12.25 13.5463 12.25 13.5451 12.25 13.5439C12.25 13.5427 12.25 13.5415 12.25 13.5403C12.25 13.5391 12.25 13.5379 12.25 13.5367C12.25 13.5355 12.25 13.5343 12.25 13.5331C12.25 13.5319 12.25 13.5307 12.25 13.5295C12.25 13.5283 12.25 13.5271 12.25 13.5259C12.25 13.5247 12.25 13.5235 12.25 13.5223C12.25 13.5211 12.25 13.5199 12.25 13.5188C12.25 13.5176 12.25 13.5164 12.25 13.5152C12.25 13.514 12.25 13.5128 12.25 13.5116C12.25 13.5104 12.25 13.5092 12.25 13.508C12.25 13.5068 12.25 13.5056 12.25 13.5044C12.25 13.5032 12.25 13.502 12.25 13.5008C12.25 13.4996 12.25 13.4984 12.25 13.4972C12.25 13.496 12.25 13.4948 12.25 13.4936H10.75ZM8.5 11.2441C9.74281 11.2441 10.75 12.2512 10.75 13.4936H12.25C12.25 11.4224 10.5709 9.74414 8.5 9.74414L8.5 11.2441ZM2.25 13.4936C2.25 12.2512 3.25719 11.2441 4.5 11.2441L4.5 9.74414C2.4291 9.74414 0.75 11.4224 0.75 13.4936H2.25ZM12.75 6V11H14.25V6H12.75ZM11 9.25H16V7.75H11V9.25Z" fill="#273240"/>
</svg>
