<svg width="16" height="17" fill="none" xmlns="http://www.w3.org/2000/svg">
    <path d="M10.75 15.49v.75h1.5v-.75h-1.5zm-10 0v.75h1.5v-.75H.75zm7.75-4.996v.75-.75zm-4 0v-.75.75zm4.25-5.996A2.249 2.249 0 0 1 6.5 6.746v1.5c2.07 0 3.75-1.677 3.75-3.748h-1.5zM6.5 6.746a2.249 2.249 0 0 1-2.25-2.248h-1.5c0 2.07 1.68 3.748 3.75 3.748v-1.5zM4.25 4.498A2.249 2.249 0 0 1 6.5 2.25V.75a3.749 3.749 0 0 0-3.75 3.748h1.5zM6.5 2.25a2.249 2.249 0 0 1 2.25 2.248h1.5C10.25 2.428 8.57.75 6.5.75v1.5zM2.25 15.49V13.495H.75V15.49h1.5zm2.25-4.246h4v-1.5h-4v1.5zm6.25 2.25V15.49h1.5V13.494h-1.5zm-2.25-2.25a2.25 2.25 0 0 1 2.25 2.25h1.5a3.75 3.75 0 0 0-3.75-3.75v1.5zm-6.25 2.25a2.25 2.25 0 0 1 2.25-2.25v-1.5a3.75 3.75 0 0 0-3.75 3.75h1.5zM12.75 6v5h1.5V6h-1.5zM11 9.25h5v-1.5h-5v1.5z" fill="#fff"/>
</svg>
